<?xml version="1.0" standalone="no"?><!DOCTYPE svg PUBLIC "-//W3C//DTD SVG 1.1//EN" "http://www.w3.org/Graphics/SVG/1.1/DTD/svg11.dtd"><svg t="1665114972330" class="icon" viewBox="0 0 1024 1024" version="1.1" xmlns="http://www.w3.org/2000/svg" p-id="2534" xmlns:xlink="http://www.w3.org/1999/xlink" width="200" height="200"><path d="M853.333333 704h-106.666666v-106.666667c0-11.733333-9.6-21.333333-21.333334-21.333333s-21.333333 9.6-21.333333 21.333333v106.666667h-106.666667c-11.733333 0-21.333333 9.6-21.333333 21.333333s9.6 21.333333 21.333333 21.333334h106.666667v106.666666c0 11.733333 9.6 21.333333 21.333333 21.333334s21.333333-9.6 21.333334-21.333334v-106.666666h106.666666c11.733333 0 21.333333-9.6 21.333334-21.333334s-9.6-21.333333-21.333334-21.333333zM616.32 552.32a21.290667 21.290667 0 0 0-9.386667-28.586667c-13.226667-6.613333-26.88-11.946667-40.746666-16.64C623.146667 473.6 661.333333 411.946667 661.333333 341.333333a192 192 0 0 0-384 0c0 70.613333 38.186667 132.053333 94.933334 165.333334C243.2 550.613333 149.333333 679.04 149.333333 830.506667c0 8.106667 0.213333 16.213333 0.853334 24.106666 0.853333 11.306667 10.026667 19.84 21.333333 19.84h1.493333c11.733333-0.853333 20.693333-10.88 19.84-22.613333-0.64-7.04-0.853333-14.08-0.853333-21.333333C192 666.666667 316.373333 533.333333 469.333333 533.333333c41.386667 0 81.28 9.6 118.4 28.373334 10.453333 5.333333 23.253333 1.066667 28.586667-9.386667zM320 341.333333c0-82.346667 66.986667-149.333333 149.333333-149.333333s149.333333 66.986667 149.333334 149.333333-66.986667 149.333333-149.333334 149.333334-149.333333-66.986667-149.333333-149.333334z" p-id="2535" fill="#ffffff"></path></svg>