<?xml version="1.0" encoding="UTF-8"?>
<svg width="18px" height="19px" viewBox="0 0 18 19" version="1.1" xmlns="http://www.w3.org/2000/svg" xmlns:xlink="http://www.w3.org/1999/xlink">
    <!-- Generator: Sketch 60.1 (88133) - https://sketch.com -->
    <title>添加用户备份@2x</title>
    <desc>Created with Sketch.</desc>
    <g id="招聘管理" stroke="none" stroke-width="1" fill="none" fill-rule="evenodd">
        <g id="添加用户备份" transform="translate(1.000000, 1.500000)" fill-rule="nonzero">
            <rect id="矩形" fill="#000000" opacity="0" x="0" y="0" width="16" height="16"></rect>
            <path d="M11.92,14.656 C11.472,14.656 11.048,14.5706667 10.648,14.4 C10.248,14.2293333 9.89866667,13.9946667 9.6,13.696 C9.30133333,13.3973333 9.06666667,13.048 8.896,12.648 C8.72533333,12.248 8.64,11.824 8.64,11.376 C8.64,10.928 8.72533333,10.504 8.896,10.104 C9.06666667,9.704 9.30133333,9.35733333 9.6,9.064 C9.89866667,8.77066667 10.248,8.53866667 10.648,8.368 C11.048,8.19733333 11.472,8.112 11.92,8.112 C12.368,8.112 12.792,8.19733333 13.192,8.368 C13.592,8.53866667 13.9386667,8.77066667 14.232,9.064 C14.5253333,9.35733333 14.7573333,9.704 14.928,10.104 C15.0986667,10.504 15.184,10.928 15.184,11.376 C15.184,11.824 15.0986667,12.248 14.928,12.648 C14.7573333,13.048 14.5253333,13.3973333 14.232,13.696 C13.9386667,13.9946667 13.592,14.2293333 13.192,14.4 C12.792,14.5706667 12.368,14.656 11.92,14.656 Z M13.536,10.848 L12.352,10.848 L12.352,9.744 C12.352,9.59466667 12.304,9.46666667 12.208,9.36 C12.112,9.25333333 11.9893333,9.2 11.84,9.2 C11.6906667,9.2 11.5733333,9.25333333 11.488,9.36 C11.4026667,9.46666667 11.36,9.59466667 11.36,9.744 L11.36,10.848 L10.32,10.848 C10.1706667,10.848 10.0426667,10.9013333 9.936,11.008 C9.82933333,11.1146667 9.776,11.2426667 9.776,11.392 C9.776,11.5413333 9.82933333,11.6533333 9.936,11.728 C10.0426667,11.8026667 10.1706667,11.84 10.32,11.84 L11.36,11.84 L11.36,12.976 C11.36,13.1253333 11.4026667,13.2533333 11.488,13.36 C11.5733333,13.4666667 11.6906667,13.52 11.84,13.52 C11.9893333,13.52 12.112,13.4666667 12.208,13.36 C12.304,13.2533333 12.352,13.1253333 12.352,12.976 L12.352,11.84 L13.536,11.84 L13.536,11.872 C13.6853333,11.872 13.8133333,11.8293333 13.92,11.744 C14.0266667,11.6586667 14.08,11.5413333 14.08,11.392 C14.08,11.2426667 14.0266667,11.1146667 13.92,11.008 C13.8133333,10.9013333 13.6853333,10.848 13.536,10.848 L13.536,10.848 Z M9.584,6.864 C9.54133333,7.03466667 9.49866667,7.18933333 9.456,7.328 C9.41333333,7.44533333 9.36,7.56533333 9.296,7.688 C9.232,7.81066667 9.16266667,7.904 9.088,7.968 C8.992,8.04266667 8.92533333,8.12266667 8.888,8.208 C8.85066667,8.29333333 8.81866667,8.38133333 8.792,8.472 C8.76533333,8.56266667 8.736,8.656 8.704,8.752 C8.672,8.848 8.61866667,8.944 8.544,9.04 C8.29866667,9.36 8.11466667,9.66933333 7.992,9.968 C7.86933333,10.2666667 7.784,10.5546667 7.736,10.832 C7.688,11.1093333 7.67466667,11.384 7.696,11.656 C7.71733333,11.928 7.76,12.192 7.824,12.448 C7.86666667,12.64 7.93066667,12.84 8.016,13.048 C8.10133333,13.256 8.22666667,13.4693333 8.392,13.688 C8.55733333,13.9066667 8.768,14.12 9.024,14.328 C9.28,14.536 9.6,14.736 9.984,14.928 C9.728,14.9813333 9.42933333,15.0293333 9.088,15.072 C8.8,15.104 8.44533333,15.1333333 8.024,15.16 C7.60266667,15.1866667 7.12,15.2 6.576,15.2 C6.29866667,15.2 5.976,15.1893333 5.608,15.168 C5.24,15.1466667 4.86133333,15.12 4.472,15.088 C4.08266667,15.056 3.69866667,15.0186667 3.32,14.976 C2.94133333,14.9333333 2.59466667,14.888 2.28,14.84 C1.96533333,14.792 1.69866667,14.7413333 1.48,14.688 C1.26133333,14.6346667 1.12533333,14.5866667 1.072,14.544 C0.976,14.4586667 0.901333333,14.2213333 0.848,13.832 C0.794666667,13.4426667 0.810666667,12.9333333 0.896,12.304 C0.949333333,11.952 1.09066667,11.6826667 1.32,11.496 C1.54933333,11.3093333 1.81866667,11.1626667 2.128,11.056 C2.43733333,10.9493333 2.76,10.8506667 3.096,10.76 C3.432,10.6693333 3.728,10.544 3.984,10.384 C4.18666667,10.256 4.34133333,10.136 4.448,10.024 C4.55466667,9.912 4.62933333,9.79733333 4.672,9.68 C4.71466667,9.56266667 4.736,9.44 4.736,9.312 C4.736,9.184 4.73066667,9.04533333 4.72,8.896 C4.69866667,8.672 4.62133333,8.496 4.488,8.368 C4.35466667,8.24 4.21333333,8.112 4.064,7.984 C3.97866667,7.92 3.904,7.824 3.84,7.696 C3.776,7.568 3.72266667,7.44533333 3.68,7.328 C3.62666667,7.18933333 3.584,7.03466667 3.552,6.864 C3.47733333,6.84266667 3.408,6.81066667 3.344,6.768 C3.29066667,6.72533333 3.232,6.66133333 3.168,6.576 C3.104,6.49066667 3.04533333,6.36266667 2.992,6.192 C2.93866667,6.032 2.92,5.88266667 2.936,5.744 C2.952,5.60533333 2.98133333,5.488 3.024,5.392 C3.06666667,5.27466667 3.12533333,5.17333333 3.2,5.088 C3.2,4.72533333 3.22133333,4.36266667 3.264,4 C3.30666667,3.69066667 3.37333333,3.36 3.464,3.008 C3.55466667,2.656 3.70133333,2.34133333 3.904,2.064 C4.096,1.79733333 4.30133333,1.57866667 4.52,1.408 C4.73866667,1.23733333 4.96533333,1.104 5.2,1.008 C5.43466667,0.912 5.66933333,0.845333333 5.904,0.808 C6.13866667,0.770666667 6.36266667,0.752 6.576,0.752 C6.85333333,0.752 7.12,0.784 7.376,0.848 C7.632,0.912 7.86933333,0.997333333 8.088,1.104 C8.30666667,1.21066667 8.50133333,1.33066667 8.672,1.464 C8.84266667,1.59733333 8.98133333,1.73333333 9.088,1.872 C9.33333333,2.18133333 9.512,2.52266667 9.624,2.896 C9.736,3.26933333 9.81866667,3.62133333 9.872,3.952 C9.92533333,4.336 9.94666667,4.72 9.936,5.104 C10,5.15733333 10.0533333,5.22133333 10.096,5.296 C10.1386667,5.36 10.1706667,5.44533333 10.192,5.552 C10.2133333,5.65866667 10.2133333,5.792 10.192,5.952 C10.1706667,6.15466667 10.128,6.31466667 10.064,6.432 C10,6.54933333 9.93066667,6.64 9.856,6.704 C9.77066667,6.77866667 9.68,6.832 9.584,6.864 L9.584,6.864 Z" id="形状" fill="#FFFFFF"></path>
        </g>
    </g>
</svg>