<?xml version="1.0" encoding="UTF-8"?>
<svg width="18px" height="19px" viewBox="0 0 18 19" version="1.1" xmlns="http://www.w3.org/2000/svg" xmlns:xlink="http://www.w3.org/1999/xlink">
    <!-- Generator: Sketch 60.1 (88133) - https://sketch.com -->
    <title>新增报价单</title>
    <desc>Created with Sketch.</desc>
    <g id="招聘管理" stroke="none" stroke-width="1" fill="none" fill-rule="evenodd">
        <g id="报价单备份" transform="translate(0.000000, 0.700691)" fill-rule="nonzero">
            <rect id="矩形" fill="#000000" opacity="0" x="0" y="0" width="18" height="18"></rect>
            <path d="M14.8886719,1.40625 L3.11132812,1.40625 C2.49257813,1.40625 1.98632812,1.9125 1.98632812,2.53125 L1.98632812,15.46875 C1.98632812,16.0875 2.49257813,16.59375 3.11132812,16.59375 L12.5683594,16.59375 C14.4632812,16.59375 16.0136719,15.0433594 16.0136719,13.1484375 L16.0136719,2.53125 C16.0136719,1.9125 15.5074219,1.40625 14.8886719,1.40625 Z M5.46679688,4.640625 L9.15820312,4.640625 C9.54492188,4.640625 9.86132812,4.95703125 9.86132812,5.34375 C9.86132812,5.73046875 9.54492188,6.046875 9.15820312,6.046875 L5.46679688,6.046875 C5.08007812,6.046875 4.76367188,5.73046875 4.76367188,5.34375 C4.76367188,4.95703125 5.08007812,4.640625 5.46679688,4.640625 Z M5.46679688,7.59375 L11.0917969,7.59375 C11.4785156,7.59375 11.7949219,7.91015625 11.7949219,8.296875 C11.7949219,8.68359375 11.4785156,9 11.0917969,9 L5.46679688,9 C5.08007812,9 4.76367188,8.68359375 4.76367188,8.296875 C4.76367188,7.91015625 5.08007812,7.59375 5.46679688,7.59375 Z M7.22460938,11.9355469 L5.46679688,11.9355469 C5.08007812,11.9355469 4.76367188,11.6191406 4.76367188,11.2324219 C4.76367188,10.8457031 5.08007812,10.5292969 5.46679688,10.5292969 L7.22460938,10.5292969 C7.61132812,10.5292969 7.92773438,10.8457031 7.92773438,11.2324219 C7.92773438,11.6191406 7.61132812,11.9355469 7.22460938,11.9355469 Z M13.9394531,10.2234375 L12.99375,11.8898438 L13.6951172,11.8898438 C13.7408203,11.8898438 13.7777344,11.9267578 13.7777344,11.9724609 L13.7777344,12.5560547 C13.7777344,12.6017578 13.7408203,12.6386719 13.6951172,12.6386719 L12.6017578,12.6386719 L12.6017578,13.0675781 L13.6933594,13.0675781 C13.7390625,13.0675781 13.7759766,13.1044922 13.7759766,13.1501953 L13.7759766,13.7337891 C13.7759766,13.7794922 13.7390625,13.8164063 13.6933594,13.8164063 L12.6017578,13.8164063 L12.6017578,14.9414063 C12.6017578,14.9871094 12.5648437,15.0240234 12.5191406,15.0240234 L11.6121094,15.0240234 C11.5664062,15.0240234 11.5294922,14.9871094 11.5294922,14.9414063 L11.5294922,13.8199219 L10.4730469,13.8199219 C10.4273437,13.8199219 10.3904297,13.7830078 10.3904297,13.7373047 L10.3904297,13.1537109 C10.3904297,13.1080078 10.4273437,13.0710938 10.4730469,13.0710938 L11.5294922,13.0710938 L11.5294922,12.6421875 L10.4730469,12.6421875 C10.4273437,12.6421875 10.3904297,12.6052734 10.3904297,12.5595703 L10.3904297,11.9759766 C10.3904297,11.9285156 10.4273437,11.8916016 10.4730469,11.8916016 L11.1146484,11.8916016 L10.1671875,10.2234375 C10.1373047,10.1689453 10.1742187,10.1003906 10.2392578,10.1003906 L11.3027344,10.1003906 L12.0832031,11.6015625 L12.8583984,10.1003906 L13.8673828,10.1003906 C13.9306641,10.1003906 13.9710937,10.1671875 13.9394531,10.2234375 L13.9394531,10.2234375 Z" id="形状" fill="#FFFFFF"></path>
        </g>
    </g>
</svg>