<?xml version="1.0" encoding="UTF-8"?>
<svg width="19px" height="19px" viewBox="0 0 19 19" version="1.1" xmlns="http://www.w3.org/2000/svg" xmlns:xlink="http://www.w3.org/1999/xlink">
    <!-- Generator: Sketch 60.1 (88133) - https://sketch.com -->
    <title>招待费</title>
    <desc>Created with Sketch.</desc>
    <g id="招聘管理" stroke="none" stroke-width="1" fill="none" fill-rule="evenodd">
        <g id="1---业务招待费用报账备份" transform="translate(1.001421, 0.795855)" fill="#FFFFFF" fill-rule="nonzero">
            <path d="M2.03009764,4.43316648 L13.7240885,4.43316648 C14.0819469,4.43316648 14.4251483,4.56644025 14.6781924,4.80366907 C14.9312365,5.0408979 15.0733952,5.36264923 15.0733952,5.69814146 L15.0733952,10.8887554 C15.0733952,10.9126645 15.0726184,10.9365681 15.0711463,10.9604373 C14.890789,13.9183705 12.4926213,15.3962829 7.87709308,15.3962829 C3.26156485,15.3962829 0.86384695,13.9179488 0.683039861,10.960859 C0.681559282,10.9368494 0.680790999,10.9128051 0.680790999,10.8887554 L0.680790999,5.69814146 C0.680790999,4.99951507 1.28489616,4.43316648 2.03009764,4.43316648 Z" id="路径"></path>
            <path d="M2.47986653,16.0287704 L13.2743196,16.0287704 C13.7240885,16.0287704 13.948973,16.2395996 13.948973,16.6612579 L13.948973,16.6612579 C13.948973,17.0829162 13.7240885,17.2937454 13.2743196,17.2937454 L2.47986653,17.2937454 C2.03009765,17.2937454 1.80521321,17.0829162 1.80521321,16.6612579 L1.80521321,16.6612579 C1.80521321,16.2395996 2.03009765,16.0287704 2.47986653,16.0287704 Z" id="路径"></path>
            <path d="M6.30290201,0.216583253 L6.30290201,0.216583253 C6.75267089,0.216583253 6.97755533,0.427412416 6.97755533,0.84907074 L6.97755533,3.37902069 C6.97755533,3.80067901 6.75267089,4.01150817 6.30290201,4.01150817 L6.30290201,4.01150817 C5.85313313,4.01150817 5.62824869,3.80067901 5.62824869,3.37902069 L5.62824869,0.84907074 C5.62824869,0.427412416 5.85313313,0.216583253 6.30290201,0.216583253 Z" id="路径"></path>
            <path d="M8.5517464,1.48155823 L8.5517464,1.48155823 C9.00151528,1.48155823 9.22639972,1.69238739 9.22639972,2.11404571 L9.22639972,2.95736235 C9.22639972,3.37902068 9.00151528,3.58984984 8.5517464,3.58984984 L8.5517464,3.58984984 C8.10197752,3.58984984 7.87709308,3.37902068 7.87709308,2.95736235 L7.87709308,2.11404571 C7.87709308,1.69238739 8.10197752,1.48155823 8.5517464,1.48155823 L8.5517464,1.48155823 Z" id="路径"></path>
        </g>
    </g>
</svg>