<?xml version="1.0" encoding="UTF-8"?>
<svg width="19px" height="19px" viewBox="0 0 19 19" version="1.1" xmlns="http://www.w3.org/2000/svg" xmlns:xlink="http://www.w3.org/1999/xlink">
    <!-- Generator: Sketch 60.1 (88133) - https://sketch.com -->
    <title>礼品费</title>
    <desc>Created with Sketch.</desc>
    <g id="招聘管理" stroke="none" stroke-width="1" fill="none" fill-rule="evenodd">
        <g id="礼物备份" transform="translate(0.000000, 0.710814)" fill-rule="nonzero">
            <rect id="矩形" fill="#000000" opacity="0" x="0" y="0" width="18.9026573" height="17.57932"></rect>
            <path d="M10.0814172,10.8007342 L10.0814172,16.6605075 C10.0814172,16.8159184 10.1478013,16.964964 10.2659659,17.0748561 C10.3841304,17.1847482 10.5443959,17.2464849 10.7115058,17.2464849 L15.1221258,17.2464849 C15.8181025,17.2464849 16.382303,16.7217829 16.382303,16.0745302 L16.382303,10.8007342 C16.382303,10.6453234 16.3159188,10.4962777 16.1977543,10.3863857 C16.0795898,10.2764936 15.9193243,10.2147569 15.7522144,10.2147569 L10.7115058,10.2147569 C10.5443959,10.2147569 10.3841304,10.2764936 10.2659659,10.3863857 C10.1478014,10.4962777 10.0814172,10.6453234 10.0814172,10.8007342 L10.0814172,10.8007342 Z M8.19115148,10.2147569 L3.15044289,10.2147569 C2.983333,10.2147569 2.82306751,10.2764936 2.70490297,10.3863857 C2.58673844,10.4962777 2.5203543,10.6453234 2.5203543,10.8007342 L2.5203543,16.0745302 C2.5203543,16.7217829 3.08455483,17.2464849 3.78053146,17.2464849 L8.19115148,17.2464849 C8.35826137,17.2464849 8.51852687,17.1847482 8.6366914,17.0748561 C8.75485594,16.964964 8.82124007,16.8159184 8.82124007,16.6605075 L8.82124007,10.8007342 C8.82124007,10.6453234 8.75485593,10.4962777 8.6366914,10.3863857 C8.51852686,10.2764936 8.35826137,10.2147569 8.19115148,10.2147569 L8.19115148,10.2147569 Z M16.382303,4.35498354 L15.1331524,4.35498354 C15.4312789,4.02619505 15.6309989,3.63016282 15.7122038,3.20676096 C15.8600435,2.42010795 15.5867564,1.61577621 14.9797258,1.05095034 C14.1574459,0.287821033 12.8956351,0.11374404 11.8705537,0.622014934 C11.3475802,0.878966 10.947789,1.31053831 10.6966987,1.80861903 L9.45132864,4.27792752 L8.19556212,1.78869581 C7.98668775,1.37440983 7.67447886,1.00524411 7.26460625,0.752394896 C6.16352646,0.0732471724 4.78205724,0.25167727 3.92293147,1.05095034 C3.31599468,1.61582914 3.04272324,2.42011473 3.1904535,3.20676096 C3.27165834,3.63016282 3.47137835,4.02619505 3.76950491,4.35498354 L2.5203543,4.35498354 C1.82437768,4.35498355 1.26017716,4.87968552 1.26017716,5.52693821 L1.26017716,7.87084754 C1.26017716,8.51810022 1.82437768,9.04280221 2.5203543,9.04280221 L8.19115148,9.04280221 C8.35826137,9.04280221 8.51852686,8.9810655 8.6366914,8.87117343 C8.75485593,8.76128136 8.82124007,8.61223573 8.82124007,8.45682488 L8.82124007,6.13195981 C8.82124007,5.8401431 9.03578523,5.56942157 9.34547376,5.52254338 C9.52847505,5.49384982 9.7157798,5.54152738 9.85756021,5.65289263 C9.99934063,5.76425787 10.0812203,5.92801849 10.0814172,6.10061001 L10.0814172,8.45682488 C10.0814172,8.61223573 10.1478014,8.76128136 10.2659659,8.87117343 C10.3841304,8.9810655 10.5443959,9.04280221 10.7115058,9.04280221 L16.382303,9.04280221 C17.0782796,9.04280221 17.6424801,8.51810022 17.6424801,7.87084754 L17.6424801,5.52693821 C17.6424801,4.87968552 17.0782796,4.35498355 16.382303,4.35498354 L16.382303,4.35498354 Z M6.14871936,4.35498354 L5.20232634,3.94216251 C4.79468228,3.7673149 4.50617168,3.41654586 4.43141295,3.00489176 C4.351278,2.59410403 4.49427427,2.1730019 4.81356168,1.8795223 C5.12874913,1.58200264 5.58188947,1.44891784 6.02364679,1.52412704 C6.46626782,1.59349525 6.84347125,1.8617189 7.03147346,2.24077733 L8.09789838,4.35498354 L6.14871936,4.35498354 Z M14.4709293,3.00489176 C14.3964431,3.41656777 14.107995,3.76740424 13.7003309,3.94216251 L12.7539379,4.35498354 L10.8044439,4.35498354 L11.8708688,2.24077733 C12.0588434,1.86157658 12.4362265,1.59330902 12.8790105,1.52412704 C13.3206585,1.44912574 13.773602,1.58218735 14.0887806,1.8795223 C14.408261,2.17289215 14.5512901,2.59409077 14.4709293,3.00489176 L14.4709293,3.00489176 Z" id="形状" fill="#FFFFFF"></path>
        </g>
    </g>
</svg>