<?xml version="1.0" encoding="UTF-8"?>
<svg width="18px" height="19px" viewBox="0 0 18 19" version="1.1" xmlns="http://www.w3.org/2000/svg" xmlns:xlink="http://www.w3.org/1999/xlink">
    <!-- Generator: Sketch 60.1 (88133) - https://sketch.com -->
    <title>新增合同</title>
    <desc>Created with Sketch.</desc>
    <g id="招聘管理" stroke="none" stroke-width="1" fill="none" fill-rule="evenodd">
        <g id="合同-2备份" transform="translate(0.000000, 0.850345)" fill-rule="nonzero">
            <rect id="矩形" fill="#000000" opacity="0" x="0" y="0" width="18.4466727" height="17.5"></rect>
            <path d="M10.0546714,15.6662598 L10.0546714,14.8288574 C10.0546714,14.0085449 10.7435407,13.340332 11.5892115,13.340332 L11.6191623,13.340332 C11.6913967,13.3129883 11.7301566,13.2788086 11.7583456,13.2497559 C11.9204325,13.0737305 12.0243796,12.7199707 12.0508068,12.2893066 C11.5645461,11.817627 11.2844177,11.1767578 11.2844177,10.503418 C11.2844177,9.10717773 12.4542622,7.97241211 13.8936643,7.97241211 C13.9905641,7.97241211 14.085702,7.97924805 14.1790782,7.98779297 L14.1790782,2.03027344 C14.1790782,1.51416016 13.7456719,1.09375 13.2136041,1.09375 L2.16702984,1.09375 C1.63496199,1.09375 1.20155573,1.51416016 1.20155573,2.03027344 L1.20155573,15.427002 C1.20155573,15.9431152 1.63496199,16.3635254 2.16702984,16.3635254 L10.2414237,16.3635254 C10.1269058,16.1533203 10.0546714,15.9191895 10.0546714,15.6662598" id="路径" fill="#FFFFFF"></path>
            <path d="M16.8181773,14.1589355 C16.7299071,14.1247559 16.6362326,14.105957 16.5371538,14.105957 L16.3930392,14.105957 C16.14264,14.0461426 15.9318724,13.9350586 15.7643391,13.7573242 C15.2833565,13.2463379 15.2401221,12.3730469 15.2509307,11.9372559 C15.7247076,11.6176758 16.0381569,11.0947266 16.0381569,10.501709 C16.0381569,9.52929688 15.2040935,8.73803711 14.1790782,8.73803711 C13.1540629,8.73803711 12.3199995,9.52929688 12.3199995,10.501709 C12.3199995,11.0947266 12.6334488,11.6176758 13.1072256,11.9372559 C13.1198357,12.3730469 13.0784027,13.2463379 12.5974201,13.7573242 C12.4316883,13.9350586 12.2209206,14.0461426 11.9705215,14.105957 L11.8210025,14.105957 C11.4012687,14.105957 11.0607979,14.4289551 11.0607979,14.8271484 L11.0607979,15.6645508 C11.0607979,16.0627441 11.4012687,16.3857422 11.8210025,16.3857422 L16.5371538,16.3857422 C16.9550862,16.3857422 17.2973585,16.0627441 17.2973585,15.6645508 L17.2973585,14.8271484 C17.2973585,14.5246582 17.0973994,14.2666016 16.8181773,14.1589355" id="路径" fill="#FFFFFF"></path>
            <path d="M11.8101939,5.23461914 L3.95954947,5.23461914 C3.62448295,5.23461914 3.35246659,4.9765625 3.35246659,4.65869141 C3.35246659,4.34082031 3.62448295,4.08276367 3.95954947,4.08276367 L11.8083925,4.08276367 C12.143459,4.08276367 12.4154754,4.34082031 12.4154754,4.65869141 C12.4154754,4.9765625 12.1452605,5.23461914 11.8101939,5.23461914 Z M10.15828,7.96728516 L3.95954947,7.96728516 C3.62448295,7.96728516 3.35246659,7.70922852 3.35246659,7.39135742 C3.35246659,7.07348633 3.62448295,6.81542969 3.95954947,6.81542969 L10.15828,6.81542969 C10.4933465,6.81542969 10.7653629,7.07348633 10.7653629,7.39135742 C10.7653629,7.70922852 10.4933465,7.96728516 10.15828,7.96728516 L10.15828,7.96728516 Z M7.90829033,10.7648926 L3.95954947,10.7648926 C3.62448295,10.7648926 3.35246659,10.5068359 3.35246659,10.1889648 C3.35246659,9.87109375 3.62448295,9.61303711 3.95954947,9.61303711 L7.90829033,9.61303711 C8.24335685,9.61303711 8.51537321,9.87109375 8.51537321,10.1889648 C8.51537321,10.5068359 8.24335685,10.7648926 7.90829033,10.7648926 Z" id="形状" fill="#468BFD"></path>
        </g>
    </g>
</svg>