<?xml version="1.0" encoding="UTF-8"?>
<svg width="19px" height="19px" viewBox="0 0 19 19" version="1.1" xmlns="http://www.w3.org/2000/svg" xmlns:xlink="http://www.w3.org/1999/xlink">
    <!-- Generator: Sketch 60.1 (88133) - https://sketch.com -->
    <title>申请开票</title>
    <desc>Created with Sketch.</desc>
    <g id="招聘管理" stroke="none" stroke-width="1" fill="none" fill-rule="evenodd">
        <g id="开票_fill备份" transform="translate(0.761870, 1.031096)" fill-rule="nonzero">
            <rect id="矩形" fill="#000000" opacity="0" x="0" y="0" width="17.2381302" height="16.9378077"></rect>
            <path d="M13.4672892,15.8791947 C12.9533017,15.8791947 12.5457062,15.6551839 12.2445027,15.2071621 C12.0026788,14.8474646 11.5150495,14.7519088 11.1553518,14.9937323 C11.1152211,15.0207121 11.0776698,15.0513433 11.0431772,15.085235 L10.9360058,15.1905392 C10.5469517,15.5728153 9.92332795,15.5728153 9.53427382,15.1905392 L9.42710245,15.085235 C8.97855697,14.6445041 8.25957323,14.6445041 7.81102775,15.085235 L7.70385638,15.1905392 C7.31480225,15.5728153 6.69117854,15.5728153 6.3021244,15.1905392 L6.19495304,15.085235 C5.88579089,14.7814591 5.3889064,14.7858255 5.08513047,15.0949876 C5.05123877,15.1294802 5.0206076,15.1670315 4.99362752,15.2071621 C4.69242398,15.6551839 4.28482846,15.8791947 3.77084098,15.8791947 C2.58571953,15.8791947 1.61607471,14.9264431 1.61607471,13.7619688 L1.61607471,3.17583895 C1.61607471,2.01136467 2.58571953,1.05861298 3.77084098,1.05861298 L13.4672892,1.05861298 C14.6524107,1.05861298 15.6220555,2.01136467 15.6220555,3.17583895 L15.6220555,13.7619688 C15.6220555,14.9264431 14.6524107,15.8791947 13.4672892,15.8791947 Z M11.3125229,5.8223714 L9.91958439,5.8223714 L11.6980578,4.07488256 C11.9075583,3.86903196 11.9075583,3.532178 11.6980578,3.3263274 C11.4885572,3.1204768 11.1457306,3.1204768 10.93623,3.3263274 L8.6190651,5.60312273 L6.30190015,3.3263274 C6.09239963,3.1204768 5.74957295,3.1204768 5.54007243,3.3263274 C5.33057192,3.532178 5.33057192,3.86903196 5.54007243,4.07488256 L7.31854581,5.8223714 L5.92560726,5.8223714 C5.62932689,5.8223714 5.38691569,6.06055932 5.38691569,6.35167789 C5.38691569,6.64279646 5.62932689,6.88098439 5.92560726,6.88098439 L8.08037353,6.88098439 L8.08037353,8.46890386 L5.92560726,8.46890386 C5.62932689,8.46890386 5.38691569,8.70709178 5.38691569,8.99821035 C5.38691569,9.28932892 5.62932689,9.52751684 5.92560726,9.52751684 L8.08037353,9.52751684 L8.08037353,11.6447428 C8.08037353,11.9358614 8.32278474,12.1740493 8.6190651,12.1740493 C8.91534546,12.1740493 9.15775667,11.9358614 9.15775667,11.6447428 L9.15775667,9.52751684 L11.3125229,9.52751684 C11.6088033,9.52751684 11.8512145,9.28932892 11.8512145,8.99821035 C11.8512145,8.70709178 11.6088033,8.46890386 11.3125229,8.46890386 L9.15775667,8.46890386 L9.15775667,6.88098439 L11.3125229,6.88098439 C11.6088033,6.88098439 11.8512145,6.64279646 11.8512145,6.35167789 C11.8512145,6.06055932 11.6088033,5.8223714 11.3125229,5.8223714 Z" id="形状" fill="#468BFD"></path>
        </g>
    </g>
</svg>