<?xml version="1.0" encoding="UTF-8"?>
<svg width="19px" height="19px" viewBox="0 0 19 19" version="1.1" xmlns="http://www.w3.org/2000/svg" xmlns:xlink="http://www.w3.org/1999/xlink">
    <!-- Generator: Sketch 60.1 (88133) - https://sketch.com -->
    <title>其他非</title>
    <desc>Created with Sketch.</desc>
    <g id="招聘管理" stroke="none" stroke-width="1" fill="none" fill-rule="evenodd">
        <g id="费用支出备份" transform="translate(1.097224, 1.099092)" fill-rule="nonzero">
            <rect id="矩形" fill="#000000" opacity="0" x="0" y="0" width="16" height="16"></rect>
            <path d="M14.872,3.064 C14.7984019,3.0591046 14.7246335,3.07057969 14.656,3.0976 L14,3.3664 L14,1.6224 C14,0.7256 13.28,0 12.408,0 L11.768,0 C11.248,0 10.8,0.3424 10.624,0.84 C10.224,1.9232 9.2,2.6976 8,2.6976 C6.8,2.6976 5.776,1.9232 5.384,0.8312 C5.2,0.3424 4.752,0 4.232,0 L3.592,0 C2.712,0 2,0.7336 2,1.6224 L2,3.3664 L1.344,3.0976 C1.27530505,3.07085202 1.20153864,3.05965046 1.128,3.0648 C0.496,3.1296 0,3.6512 0,4.2792 L0,14.7856 C0,15.4536 0.56,16 1.248,16 L14.752,16 C15.44,16 16,15.4536 16,14.7856 L16,4.2792 C16,3.6512 15.504,3.1296 14.872,3.0648 L14.872,3.064 Z M9.92,11.412 C10.152,11.412 10.304,11.5664 10.304,11.8032 C10.304,12.0392 10.152,12.1944 9.92,12.1944 L8.384,12.1944 L8.384,13.7184 C8.384,13.9552 8.232,14.1104 8,14.1104 C7.768,14.1104 7.616,13.9552 7.616,13.7184 L7.616,12.1944 L6.072,12.1944 C5.84,12.1944 5.688,12.0392 5.688,11.8024 C5.688,11.5664 5.84,11.412 6.072,11.412 L7.608,11.412 L7.608,10.4664 L6.04,10.4664 C5.808,10.4664 5.656,10.3112 5.656,10.0752 C5.656,9.8392 5.808,9.6832 6.04,9.6832 L7.192,9.6832 L5.92,8.396 C5.84720531,8.32388521 5.80625203,8.2256676 5.80625203,8.1232 C5.80625203,8.0207324 5.84720531,7.92251479 5.92,7.8504 C5.98954424,7.77649609 6.08652,7.7345904 6.188,7.7345904 C6.28948,7.7345904 6.38645576,7.77649609 6.456,7.8504 L7.992,9.4152 L9.528,7.8504 C9.59754424,7.77649609 9.69452,7.7345904 9.796,7.7345904 C9.89748,7.7345904 9.99445576,7.77649609 10.064,7.8504 C10.1367947,7.92251479 10.177748,8.0207324 10.177748,8.1232 C10.177748,8.2256676 10.1367947,8.32388521 10.064,8.396 L8.792,9.692 L9.944,9.692 C10.176,9.692 10.328,9.8472 10.328,10.084 C10.328,10.32 10.176,10.4744 9.944,10.4744 L8.368,10.4744 L8.368,11.412 L9.92,11.412 L9.92,11.412 Z M13.04,3.7584 L8.64,5.5512 C8.232,5.7224 7.768,5.7224 7.36,5.5512 L2.96,3.7576 L2.96,1.6216 C2.96,1.2712 3.248,0.9784 3.592,0.9784 L4.232,0.9784 C4.336,0.9784 4.432,1.0512 4.48,1.1736 C5.016,2.6736 6.432,3.684 8,3.684 C9.568,3.684 10.984,2.6736 11.52,1.1736 C11.56,1.06 11.656,0.9784 11.768,0.9784 L12.408,0.9784 C12.752,0.9784 13.04,1.2712 13.04,1.6224 L13.04,3.7576 L13.04,3.7584 Z" id="形状" fill="#FFFFFF"></path>
        </g>
    </g>
</svg>