<?xml version="1.0" encoding="UTF-8"?>
<svg width="18px" height="19px" viewBox="0 0 18 19" version="1.1" xmlns="http://www.w3.org/2000/svg" xmlns:xlink="http://www.w3.org/1999/xlink">
    <!-- Generator: Sketch 60.1 (88133) - https://sketch.com -->
    <title>项目立项备份 3</title>
    <desc>Created with Sketch.</desc>
    <g id="招聘管理" stroke="none" stroke-width="1" fill="none" fill-rule="evenodd">
        <g id="项目立项备份-3" transform="translate(0.500000, 1.374843)" fill-rule="nonzero">
            <rect id="矩形" fill="#000000" opacity="0" x="0" y="0" width="16.5774677" height="16"></rect>
            <path d="M8.4429271,12.72 C8.45468733,11.3238817 9.30175072,10.0602196 10.6163559,9.47764577 C11.9309611,8.89507192 13.476022,9.09865215 14.5807345,10 L14.5807345,1.6 C14.5807345,0.7163444 13.838536,0 12.9229877,0 L2.69469017,0 C1.77914191,0 1.0369434,0.7163444 1.0369434,1.6 L1.0369434,14.716 C1.01325494,15.1582618 1.23812278,15.5785754 1.6254435,15.816 C2.03281728,16.0334382 2.52984526,16.022744 2.92677472,15.788 L7.84613826,13.2 L8.55896937,13.576 C8.48379562,13.2963897 8.44481776,13.0088647 8.4429271,12.72 L8.4429271,12.72 Z M6.01018371,4.912 C6.01018371,4.6910861 6.19573334,4.512 6.4246204,4.512 L11.2072198,4.512 C11.4361069,4.512 11.6216565,4.6910861 11.6216565,4.912 L11.6216565,5.436 C11.6216565,5.6569139 11.4361069,5.836 11.2072198,5.836 L6.4246204,5.836 C6.19573334,5.836 6.01018371,5.6569139 6.01018371,5.436 L6.01018371,4.912 Z M4.94922578,9.2 L4.41460244,9.2 C4.304687,9.2 4.19927341,9.15785726 4.12155145,9.08284271 C4.04382949,9.00782816 4.00016575,8.9060866 4.00016575,8.8 L4.00016575,8.296 C4.00016575,8.1899134 4.04382949,8.08817184 4.12155145,8.01315729 C4.19927341,7.93814274 4.304687,7.896 4.41460244,7.896 L4.94922578,7.896 C5.17811284,7.896 5.36366247,8.0750861 5.36366247,8.296 L5.36366247,8.8 C5.36366247,9.0209139 5.17811284,9.2 4.94922578,9.2 L4.94922578,9.2 Z M4.94922578,5.816 L4.41460244,5.816 C4.18571538,5.816 4.00016575,5.6369139 4.00016575,5.416 L4.00016575,4.908 C4.00016575,4.8019134 4.04382949,4.70017184 4.12155145,4.62515729 C4.19927341,4.55014274 4.304687,4.508 4.41460244,4.508 L4.95337015,4.508 C5.18225721,4.508 5.36780684,4.6870861 5.36780684,4.908 L5.36780684,5.432 C5.36780684,5.5380866 5.3241431,5.63982816 5.24642114,5.71484271 C5.16869918,5.78985726 5.06328559,5.832 4.95337015,5.832 L4.94922578,5.816 Z M6.4246204,9.2 C6.31470496,9.2 6.20929136,9.15785726 6.13156941,9.08284271 C6.05384745,9.00782816 6.01018371,8.9060866 6.01018371,8.8 L6.01018371,8.296 C6.01018371,8.0750861 6.19573334,7.896 6.4246204,7.896 L11.2072198,7.896 C11.4361069,7.896 11.6216565,8.0750861 11.6216565,8.296 L11.6216565,8.8 C11.6216565,9.0209139 11.4361069,9.2 11.2072198,9.2 L6.4246204,9.2 L6.4246204,9.2 Z M12.2267341,9.668 C10.4269632,9.69222016 8.98588538,11.1157538 9.00255691,12.8529249 C9.01922844,14.590096 10.4873798,15.9876212 12.2873067,15.979694 C14.0872337,15.9716991 15.5420527,14.5612456 15.5422277,12.824 C15.5423127,11.9792972 15.1915549,11.1698155 14.5684333,10.5766694 C13.9453116,9.98352341 13.1018386,9.6562234 12.2267341,9.668 L12.2267341,9.668 Z" id="形状" fill="#FFFFFF"></path>
        </g>
        <rect id="矩形备份-32" stroke="#468BFD" x="11.247026" y="14.2833655" width="3.08073452" height="1" rx="0.43937324"></rect>
        <rect id="矩形备份-33" stroke="#468BFD" transform="translate(12.787393, 14.222739) rotate(-270.000000) translate(-12.787393, -14.222739) " x="11.247026" y="14.2833655" width="3.08073452" height="1" rx="0.43937324"></rect>
    </g>
</svg>