<?xml version="1.0" encoding="UTF-8"?>
<svg width="21px" height="19px" viewBox="0 0 21 19" version="1.1" xmlns="http://www.w3.org/2000/svg" xmlns:xlink="http://www.w3.org/1999/xlink">
    <!-- Generator: Sketch 60.1 (88133) - https://sketch.com -->
    <title>新增平台</title>
    <desc>Created with Sketch.</desc>
    <g id="招聘管理" stroke="none" stroke-width="1" fill="none" fill-rule="evenodd">
        <g id="数据平台备份" transform="translate(0.632907, -0.957405)" fill-rule="nonzero">
            <rect id="矩形" fill="#000000" opacity="0" x="0" y="0" width="20.3239156" height="21.5990571"></rect>
            <path d="M13.8307915,17.0388182 L13.8307915,18.2428877 C13.8307915,18.2913917 13.7937994,18.3307119 13.7481674,18.3307119 L6.12237758,18.3307119 C6.07674556,18.3307119 6.03975351,18.2913917 6.03975351,18.2428877 L6.03975351,17.0392573 C6.03975351,16.990954 6.07693434,16.9514295 6.12237758,16.9514295 L13.7485805,16.9514295 C13.7936107,16.950994 13.8307915,16.9905149 13.8307915,17.0388182 Z M18.1978875,3.14986249 C18.6542077,3.14986249 19.0241283,3.54306477 19.0241283,4.02810434 L19.0241283,14.6925951 C19.0241283,15.1776347 18.6542077,15.5708369 18.1978875,15.5708369 L1.67307065,15.5708369 C1.21675044,15.5708369 0.846829822,15.1776347 0.846829822,14.6925951 L0.846829822,4.02810434 C0.846829822,3.54306477 1.21675044,3.14986249 1.67307065,3.14986249 L18.1978875,3.14986249 Z M12.0779216,5.08199442 C11.7111214,5.08199442 11.3655944,5.26501425 11.1447486,5.57631048 C10.9239028,5.88760671 10.8533607,6.29105164 10.954234,6.66590372 L10.9786081,6.74626285 L8.73123303,8.26562126 C8.29006568,7.81693773 7.59831073,7.80484136 7.14349727,8.23785731 C6.68868381,8.67087326 6.62410618,9.40305404 6.99527684,9.91837958 C7.36644749,10.4337051 8.04826382,10.5584856 8.56020118,10.2047793 L8.62671357,10.1547195 L10.9182925,11.8462133 C10.8450339,12.4603243 11.2083092,13.0380554 11.7701556,13.2009648 C12.332002,13.3638742 12.920951,13.0622441 13.1512126,12.4936566 C13.3814742,11.9250692 13.1827754,11.2630503 12.6852736,10.9412542 C12.1877717,10.6194581 11.5432981,10.736093 11.1740141,11.2147574 L11.1265052,11.2806255 L8.97951842,9.69495986 C9.09581588,9.43487627 9.1231359,9.13982288 9.05677193,8.8606301 L9.03033223,8.76490175 L11.2872091,7.23851741 C11.6721172,7.61489944 12.2454197,7.67364001 12.6908773,7.38233722 C13.1363349,7.09103443 13.3454849,6.52061642 13.2029579,5.98573153 C13.060431,5.45084664 12.6009305,5.08173183 12.0779216,5.08199442 L12.0779216,5.08199442 Z" id="形状" fill="#FFFFFF"></path>
        </g>
    </g>
</svg>