<?xml version="1.0" encoding="UTF-8"?>
<svg width="19px" height="18px" viewBox="0 0 19 18" version="1.1" xmlns="http://www.w3.org/2000/svg" xmlns:xlink="http://www.w3.org/1999/xlink">
    <!-- Generator: Sketch 60.1 (88133) - https://sketch.com -->
    <title>售后</title>
    <desc>Created with Sketch.</desc>
    <g id="招聘管理" stroke="none" stroke-width="1" fill="none" fill-rule="evenodd">
        <g id="售后备份" transform="translate(0.200000, 0.000000)" fill-rule="nonzero">
            <rect id="矩形" fill="#000000" opacity="0" x="0" y="0" width="18.5" height="18.5"></rect>
            <polygon id="路径" fill="#202425" opacity="0.01" points="0 0 18.5 0 18.5 18.5 0 18.5"></polygon>
            <path d="M16.0333333,9.25 C16.0333333,12.99625 12.99625,16.0333333 9.25,16.0333333 C5.50375,16.0333333 2.46666666,12.99625 2.46666666,9.25 C2.46666666,5.50375 5.50375,2.46666666 9.25,2.46666666 C12.99625,2.46666666 16.0333333,5.50375 16.0333333,9.25 Z" id="路径" fill="#468BFD"></path>
            <path d="M12.099,5.68566666 L12.15635,5.73808334 L12.2130833,5.79605 C12.4244587,6.01427971 12.4453936,6.35394841 12.2624167,6.59648334 L12.2130833,6.65383334 L10.8878667,8.02283334 L11.7431833,8.02283334 C12.0837589,8.02283334 12.35985,8.29892441 12.35985,8.6395 C12.35985,8.98007559 12.0837589,9.25616666 11.7431833,9.25616666 L9.89256666,9.25616666 L9.89256666,10.4895 L11.7425667,10.4895 C12.0831423,10.4895 12.3592333,10.7655911 12.3592333,11.1061667 C12.3592333,11.4467423 12.0831423,11.7228333 11.7425667,11.7228333 L9.89256666,11.7228333 L9.89256666,12.9561667 C9.89256667,13.1764804 9.77503067,13.3800588 9.58423334,13.4902157 C9.39343601,13.6003726 9.15836399,13.6003726 8.96756666,13.4902157 C8.77676933,13.3800588 8.65923333,13.1764804 8.65923334,12.9561667 L8.65923334,11.7228333 L6.80923334,11.7228333 C6.46865774,11.7228333 6.19256667,11.4467423 6.19256667,11.1061667 C6.19256667,10.7655911 6.46865774,10.4895 6.80923334,10.4895 L8.65923334,10.4895 L8.65923334,9.25616666 L6.80923334,9.25616666 C6.46865775,9.25616666 6.19256668,8.98007559 6.19256668,8.6395 C6.19256668,8.29892441 6.46865775,8.02283334 6.80923334,8.02283334 L7.66455,8.02283334 L6.33995,6.65383334 C6.10891355,6.41481543 6.10891355,6.03568457 6.33995,5.79666666 L6.39668334,5.73808334 C6.6333844,5.49321185 7.0237752,5.4865857 7.26865,5.72328334 L9.27651666,7.79775 L11.2843833,5.72328334 C11.5076935,5.50736673 11.8567418,5.49124867 12.099,5.68566666 L12.099,5.68566666 Z" id="路径" fill="#FFFFFF"></path>
            <path d="M6.39915,16.0808167 C6.69515,16.2047667 6.623,16.65 6.30171666,16.65 L1.48925,16.65 C0.939183339,16.65 0.66415,15.98585 1.05265,15.59735 L1.91598334,14.7340167 C2.13181668,14.5181833 2.15525,14.1790167 1.98998334,13.9231 C1.09103028,12.5304796 0.614091207,10.9075589 0.616656285,9.25 C0.616656285,5.40816666 3.1265,2.1534 6.59401666,1.03291666 C6.91824463,0.928359951 7.26584329,1.10643869 7.3704,1.43066666 C7.47495671,1.75489463 7.29687797,2.10249329 6.97265,2.20705 C3.9997,3.1672 1.85,5.95823334 1.85,9.25 C1.85,12.3253167 3.72651666,14.9640333 6.39915,16.0808167 Z M12.10085,2.41918334 C11.80485,2.29523334 11.877,1.85 12.1982833,1.85 L17.01075,1.85 C17.5608167,1.85 17.83585,2.51415 17.44735,2.90265 L16.5840167,3.76598334 C16.3681833,3.98181668 16.3453667,4.32098334 16.5100167,4.57628334 C17.4090516,5.96909477 17.8859926,7.59223634 17.8833444,9.25 C17.8833444,13.0918333 15.3735,16.3466 11.9059833,17.4670833 C11.6962446,17.5347197 11.4663545,17.4853239 11.3029104,17.337503 C11.1394662,17.1896822 11.0672991,16.9658936 11.1135937,16.7504364 C11.1598883,16.5349792 11.3176113,16.3605863 11.52735,16.29295 C14.5003,15.3328 16.65,12.5417667 16.65,9.25 C16.65,6.17468334 14.7734833,3.53596666 12.10085,2.41918334 L12.10085,2.41918334 Z" id="形状" fill="#468BFD"></path>
        </g>
    </g>
</svg>