<?xml version="1.0" encoding="UTF-8"?>
<svg width="19px" height="19px" viewBox="0 0 19 19" version="1.1" xmlns="http://www.w3.org/2000/svg" xmlns:xlink="http://www.w3.org/1999/xlink">
    <!-- Generator: Sketch 60.1 (88133) - https://sketch.com -->
    <title>新增收款</title>
    <desc>Created with Sketch.</desc>
    <g id="招聘管理" stroke="none" stroke-width="1" fill="none" fill-rule="evenodd">
        <g id="收款认领备份" transform="translate(0.500000, 0.637116)" fill-rule="nonzero">
            <rect id="矩形" fill="#000000" opacity="0" x="0" y="0" width="18" height="18"></rect>
            <path d="M16.0903125,10.94625 C14.7186424,9.82788379 12.7428955,9.85251125 11.3995279,11.0047201 C10.0561603,12.1569289 9.73090504,14.1058752 10.6273125,15.631875 L10.3989375,15.82875 C9.58370696,16.4716423 8.43463601,16.4739655 7.6168125,15.834375 L1.3494375,10.46475 C1.19294182,10.2936203 1.11245302,10.0663892 1.12633765,9.83490814 C1.14022227,9.60342706 1.24729567,9.3874463 1.423125,9.23625 C1.58329521,9.09756771 1.78728012,9.01987814 1.999125,9.016875 L3.846375,9.016875 L3.846375,3.090375 C3.846375,2.28375 4.46625,1.6880625 5.288625,1.6880625 L12.718125,1.6880625 C13.4915625,1.666125 14.13675,2.262375 14.1586875,3.0195 C14.1598125,3.043125 14.1598125,3.06675 14.1586875,3.090375 L14.1586875,9.016875 L16.027875,9.016875 C16.5195,9.043875 16.898625,9.4539375 16.873875,9.936 C16.8639212,10.1252065 16.7919692,10.3058771 16.669125,10.450125 L16.08975,10.9468125 L16.0903125,10.94625 Z" id="路径" fill="#FFFFFF"></path>
            <path d="M8.4375,7.3125 L6.75,7.3125 C6.43933983,7.3125 6.1875,7.06066017 6.1875,6.75 C6.1875,6.43933983 6.43933983,6.1875 6.75,6.1875 L7.642125,6.1875 L6.3523125,4.8976875 C6.20608692,4.75645811 6.14744291,4.54731869 6.19892035,4.35065213 C6.25039778,4.15398557 6.40398557,4.00039778 6.60065213,3.94892035 C6.79731869,3.89744291 7.00645811,3.95608692 7.1476875,4.1023125 L9,5.954625 L10.8523125,4.1023125 C11.0730256,3.88914063 11.4238602,3.89218929 11.6408354,4.10916455 C11.8578107,4.32613981 11.8608594,4.67697438 11.6476875,4.8976875 L10.357875,6.1875 L11.25,6.1875 C11.5606602,6.1875 11.8125,6.43933983 11.8125,6.75 C11.8125,7.06066017 11.5606602,7.3125 11.25,7.3125 L9.5625,7.3125 L9.5625,7.875 L10.6875,7.875 C10.9981602,7.875 11.25,8.12683983 11.25,8.4375 C11.25,8.74816017 10.9981602,9 10.6875,9 L9.5625,9 L9.5625,9.5625 C9.5625,9.87316017 9.31066017,10.125 9,10.125 C8.68933983,10.125 8.4375,9.87316017 8.4375,9.5625 L8.4375,9 L7.3125,9 C7.00183983,9 6.75,8.74816017 6.75,8.4375 C6.75,8.12683983 7.00183983,7.875 7.3125,7.875 L8.4375,7.875 L8.4375,7.3125 Z" id="路径" fill="#468BFD"></path>
            <path d="M13.78125,16.875 C12.0726191,16.875 10.6875,15.4898809 10.6875,13.78125 C10.6875,12.0726191 12.0726191,10.6875 13.78125,10.6875 C15.4898809,10.6875 16.8749999,12.0726191 16.8749999,13.78125 C16.8749999,15.4898809 15.4898809,16.875 13.78125,16.875 L13.78125,16.875 Z" id="路径" fill="#FFFFFF"></path>
            <path d="M13.572,14.376375 L12.5775,13.3824375 C12.4671434,13.2758516 12.2917262,13.2773759 12.1832385,13.3858635 C12.0747509,13.4943512 12.0732266,13.6697684 12.1798125,13.780125 L13.372875,14.9731875 C13.4827031,15.0829824 13.6607344,15.0829824 13.7705625,14.9731875 L15.7595625,12.98475 C15.8695362,12.8749316 15.8696621,12.696755 15.7598437,12.5867812 C15.6500254,12.4768075 15.4718487,12.4766816 15.361875,12.5865 L13.572,14.376375 Z" id="路径" fill="#468BFD"></path>
        </g>
    </g>
</svg>