<?xml version="1.0" encoding="UTF-8"?>
<svg width="19px" height="19px" viewBox="0 0 19 19" version="1.1" xmlns="http://www.w3.org/2000/svg" xmlns:xlink="http://www.w3.org/1999/xlink">
    <!-- Generator: Sketch 60.1 (88133) - https://sketch.com -->
    <title>样品申请</title>
    <desc>Created with Sketch.</desc>
    <g id="招聘管理" stroke="none" stroke-width="1" fill="none" fill-rule="evenodd">
        <g id="样品管理备份" transform="translate(1.934328, 1.697711)" fill-rule="nonzero">
            <rect id="矩形" fill="#000000" opacity="0" x="0" y="0" width="15.9843902" height="15.9843902"></rect>
            <path d="M15.9843167,5.37232885 L15.9843167,14.5016115 C15.9890445,14.7102871 15.9410491,14.9167828 15.8447736,15.1019824 C15.7623908,15.2589686 15.6581461,15.4034689 15.5351574,15.5311613 C15.3929518,15.6813649 15.2216315,15.8010171 15.0316514,15.8828163 C14.8665513,15.9493005 14.6903038,15.9837472 14.512321,15.984389 L1.36426143,15.984389 C0.993876039,15.9882042 0.639138181,15.8351948 0.387779528,15.56313 C0.144556662,15.3051621 0.00628677622,14.9657569 0,14.6112639 L0,5.37232885 L1.47311463,0.800814267 C1.57226088,0.651764271 1.69218123,0.517634331 1.82924521,0.402485089 C2.06741153,0.168048447 2.43936658,0.0352720598 2.94511035,0.00415592585 L13.0380875,0.00415592585 C13.0901963,-0.0164638439 13.3098208,0.0485923278 13.696961,0.199324425 C14.0841012,0.350056523 14.3558345,0.701551657 14.5112021,1.2526909 L15.9843167,5.37232885 Z M14.0620428,4.23328645 L13.1469407,1.48734068 L2.72852286,1.48734068 L1.92195425,4.23328645 L14.0620428,4.23328645 Z M11.030777,11.1073418 C11.4344974,10.6295921 11.4344974,9.93023528 11.030777,9.45248553 C10.8074282,9.24078225 10.509491,9.1258817 10.2018303,9.1327992 L5.67475212,9.1327992 C5.36711877,9.12603833 5.06923916,9.24091669 4.84580546,9.45248553 C4.49884338,9.77722088 4.39129527,10.2839166 4.57643273,10.7215921 C4.76157019,11.1592677 5.20007847,11.4349807 5.67475212,11.4121628 L10.2018303,11.4121628 C10.5081883,11.4282828 10.8077726,11.3181772 11.030777,11.1075017 L11.030777,11.1073418 Z" id="形状" fill="#FFFFFF"></path>
        </g>
    </g>
</svg>