<?xml version="1.0" encoding="UTF-8"?>
<svg width="19px" height="18px" viewBox="0 0 19 18" version="1.1" xmlns="http://www.w3.org/2000/svg" xmlns:xlink="http://www.w3.org/1999/xlink">
    <!-- Generator: Sketch 60.1 (88133) - https://sketch.com -->
    <title>退货</title>
    <desc>Created with Sketch.</desc>
    <g id="招聘管理" stroke="none" stroke-width="1" fill="none" fill-rule="evenodd">
        <g id="退货管理备份" transform="translate(-2.084044, -4.000000)" fill-rule="nonzero">
            <rect id="矩形" fill="#000000" opacity="0" x="0" y="0" width="22.6921447" height="26.4076692"></rect>
            <path d="M7.56404822,6.16178947 L7.56404822,7.04204512 C7.56404822,7.53146725 7.90140478,7.92230075 8.31667103,7.92230075 L14.3754737,7.92230075 C14.7839323,7.92230075 15.1280965,7.52794623 15.1280965,7.04204512 L15.1280965,6.16178947 L16.6446881,6.16178947 C17.4782462,6.16178947 18.1537158,6.94521699 18.1537158,7.92230075 L18.1537158,19.3656241 C18.1537158,20.3383065 17.4782462,21.1261356 16.6446881,21.1261356 L6.04745656,21.1261356 C5.64651953,21.1263714 5.26200084,20.9408244 4.97885055,20.6104863 C4.69570027,20.2801483 4.53722246,19.8322069 4.5384221,19.3656241 L4.5384221,7.92230075 C4.5384221,6.94961828 5.21389845,6.16178947 6.04745656,6.16178947 L7.56404822,6.16178947 Z M10.5896675,16.7248571 L12.858882,16.7248571 C14.1077064,16.7248571 15.1280965,15.5426738 15.1280965,14.0840902 C15.1280965,12.6290276 14.1122448,11.4433233 12.858882,11.4433233 L9.83326269,11.4433233 L9.83326269,10.5630677 L7.56404822,12.323579 L9.83326269,14.0840902 L9.83326269,13.2038346 L12.8573692,13.2038346 C13.27512,13.2038346 13.613774,13.5979385 13.613774,14.0840902 C13.613774,14.570242 13.27512,14.9643459 12.8573692,14.9643459 L10.5896675,14.9643459 C10.1719167,14.9643459 9.83326276,15.3584498 9.83326276,15.8446015 C9.83326276,16.3307532 10.1719167,16.7248571 10.5896675,16.7248571 Z" id="形状" fill="#468BFD"></path>
            <path d="M15.1280965,9.68281248 L15.1280965,7.03940435 C15.1268555,6.55599675 14.7908631,6.16420435 14.3754737,6.16178947 L8.31667103,6.16178947 C7.90821243,6.16178947 7.56404822,6.55438349 7.56404822,7.03940435 L7.56404822,9.68281248 C7.36337565,9.68304592 7.17086433,9.59038007 7.02896732,9.42524938 C6.88707031,9.2601187 6.80744243,9.03608632 6.80764303,8.80255638 L6.80764303,6.16178947 C6.80764303,5.67588835 7.15256401,5.28152986 7.56556104,5.28152986 L15.1265837,5.28152986 C15.3275181,5.28083151 15.5204187,5.3732905 15.6626433,5.53847207 C15.8048679,5.70365364 15.8847033,5.92795385 15.8845017,6.16178947 L15.8845017,8.80255638 C15.8845017,9.2884575 15.5410935,9.68193177 15.1280965,9.68281248 L15.1280965,9.68281248 Z" id="路径" fill="#468BFD"></path>
        </g>
    </g>
</svg>