<?xml version="1.0" encoding="UTF-8"?>
<svg width="21px" height="19px" viewBox="0 0 21 19" version="1.1" xmlns="http://www.w3.org/2000/svg" xmlns:xlink="http://www.w3.org/1999/xlink">
    <!-- Generator: Sketch 60.1 (88133) - https://sketch.com -->
    <title>企业资质</title>
    <desc>Created with Sketch.</desc>
    <g id="招聘管理" stroke="none" stroke-width="1" fill="none" fill-rule="evenodd">
        <g id="企业备份" transform="translate(0.000000, -0.591949)" fill-rule="nonzero">
            <rect id="矩形" fill="#000000" opacity="0" x="0" y="0" width="21.0571429" height="21.0571429"></rect>
            <path d="M19.7205078,17.1116018 C19.7085809,16.8442748 19.5031504,16.6180751 19.2259528,16.6180751 L18.5335759,16.6180751 L18.5335759,7.96716741 C18.5335759,7.28427271 17.9799804,6.73067718 17.2970857,6.73067718 L12.8142018,6.73067718 C12.430912,6.73069281 12.1201942,7.04141056 12.1201942,7.42470034 C12.1201942,7.42511124 12.1201946,7.42552214 12.1201953,7.42593304 C12.1201953,7.42593304 12.1201953,7.42593304 12.1201953,7.42593304 C12.1221146,8.23079297 12.1238282,9.0356529 12.1253362,9.84051283 C12.1273926,10.7712221 12.1293804,11.7019999 12.1312997,12.6328463 L12.1362349,14.9507771 C12.1370575,15.2728033 12.1377429,15.5949666 12.1382913,15.917267 C12.1382913,16.1944646 11.9120915,16.3998951 11.6447645,16.4107938 C11.3774375,16.4216925 11.1512377,16.1749291 11.1502095,15.917267 L11.1502095,15.9006105 C11.1407503,15.5080511 11.1483588,15.1142578 11.1475363,14.7216984 C11.1458912,13.9168384 11.1441775,13.1119785 11.1423954,12.3071186 C11.1406132,11.3761351 11.1386939,10.4453573 11.1366376,9.51478516 L11.1366376,4.68603683 C11.1366376,4.00314213 10.583042,3.4495466 9.90014732,3.4495466 L3.7600572,3.4495466 C3.0771625,3.4495466 2.52356696,4.00314213 2.52356696,4.68603683 L2.52356696,16.6170469 C2.30250809,16.6170469 2.08144922,16.6137567 1.86059598,16.6170469 L1.83160128,16.6170469 C1.57291099,16.6170469 1.32511942,16.8444805 1.3380745,17.1105737 C1.35102958,17.3766669 1.55543192,17.6041004 1.83160128,17.6041004 L18.5158912,17.6041004 C18.742091,17.6041004 18.9699358,17.6073906 19.1965469,17.6041004 L19.2255416,17.6041004 C19.4842319,17.6061568 19.7320234,17.3787232 19.7205078,17.1116018 Z M14.1321395,10.068769 L16.7700402,10.068769 C17.0472377,10.068769 17.2526682,10.2949688 17.2645951,10.5633239 C17.276522,10.8316791 17.0287305,11.0568507 16.7700402,11.0568507 L14.1321395,11.0568507 C13.8547363,11.0568507 13.6495114,10.8306509 13.6386127,10.5633239 C13.627714,10.2959969 13.8734492,10.068769 14.1321395,10.068769 Z M14.1321395,13.3515446 L16.7700402,13.3515446 C17.0472377,13.3515446 17.2526682,13.5777444 17.2645951,13.8463052 C17.276522,14.1148661 17.0287305,14.339832 16.7700402,14.339832 L14.1321395,14.339832 C13.8547363,14.339832 13.6495114,14.1136323 13.6386127,13.8463052 C13.627714,13.5789782 13.8734492,13.3515446 14.1321395,13.3515446 Z M5.47485714,6.73910826 L8.1843192,6.73910826 C8.46460128,6.73910826 8.67229381,6.96839258 8.68442634,7.2392154 C8.69655887,7.51003823 8.44588839,7.73932254 8.1843192,7.73932254 L5.47506278,7.73932254 C5.19478069,7.73932254 4.98708817,7.51024386 4.97495564,7.2392154 C4.9628231,6.96818694 5.21349358,6.73910826 5.47506278,6.73910826 L5.47485714,6.73910826 Z M5.47485714,10.0545801 L8.1843192,10.0545801 C8.46460128,10.0545801 8.67229381,10.2836588 8.68442634,10.5546872 C8.69655887,10.8257157 8.44588839,11.0545801 8.1843192,11.0545801 L5.47506278,11.0545801 C5.19478069,11.0545801 4.98708817,10.82551 4.97495564,10.5546872 C4.9628231,10.2838644 5.21349358,10.0556083 5.47506278,10.0556083 L5.47485714,10.0545801 Z M5.47485714,13.3667617 L8.1843192,13.3667617 C8.46460128,13.3667617 8.67229381,13.5958404 8.68442634,13.8668689 C8.69655887,14.1378973 8.44588839,14.366976 8.1843192,14.366976 L5.47506278,14.366976 C5.19478069,14.366976 4.98708817,14.1376917 4.97495564,13.8668689 C4.9628231,13.596046 5.21349358,13.3663504 5.47506278,13.3663504 L5.47485714,13.3667617 Z" id="形状" fill="#FFFFFF"></path>
        </g>
    </g>
</svg>