<svg xmlns="http://www.w3.org/2000/svg" width="11.467" height="11.859" viewBox="0 0 11.467 11.859"><defs><style>.a{fill:#fff;}</style></defs><g transform="translate(-98 -30.7)"><path class="a" d="M275.3,129.318a.411.411,0,0,0,.41.41h5.224a.41.41,0,0,0,0-.82H275.71A.411.411,0,0,0,275.3,129.318Zm2.849-3.679h-2.44a.41.41,0,0,0,0,.82h2.44a.41.41,0,1,0,0-.82Zm4.473-2.394-3.435,3.435a.41.41,0,0,0,.581.58l3.434-3.435a.41.41,0,0,0-.58-.58Z" transform="translate(-175.036 -91.245)"/><path class="a" d="M931.8,31.11a.411.411,0,1,0,.411-.41A.41.41,0,0,0,931.8,31.11Z" transform="translate(-823.155)"/><path class="a" d="M107.8,67.479a.411.411,0,0,0-.411.41h0v5.7a.819.819,0,0,1-.817.817H99.586a.819.819,0,0,1-.817-.817V65.437a.819.819,0,0,1,.817-.817h6.159a.41.41,0,0,0-.006-.82h-6.1A1.639,1.639,0,0,0,98,65.435V73.6a1.639,1.639,0,0,0,1.634,1.634h7.328c.9,0,1.251-.735,1.251-1.634V67.92a.245.245,0,0,0,0-.031A.411.411,0,0,0,107.8,67.479Z" transform="translate(0 -32.677)"/></g></svg>