<svg xmlns="http://www.w3.org/2000/svg" width="12" height="11.999" viewBox="0 0 12 11.999"><defs><style>.a{fill:#db0c0c;}</style></defs><path class="a" d="M77.994,68.821l-3.3-3.3a.522.522,0,0,0-.738,0,2.474,2.474,0,0,0-.63,2.293l-1.494,1.492a4.466,4.466,0,0,0-4.483.878.522.522,0,0,0,0,.738L69.6,73.176l-3.314,3.314a.522.522,0,0,0,.738.738l3.314-3.314,2.251,2.25a.521.521,0,0,0,.738,0,4.466,4.466,0,0,0,.878-4.482L75.7,70.19a2.474,2.474,0,0,0,2.293-.63.522.522,0,0,0,0-.738Zm-2.2.29a.522.522,0,0,0-.591.1l-1.96,1.961a.525.525,0,0,0-.114.568,4.644,4.644,0,0,1,.278,1.351,3.076,3.076,0,0,1-.477,1.928l-2.215-2.215-2.217-2.217a3.823,3.823,0,0,1,3.278-.2.522.522,0,0,0,.569-.114l1.961-1.96a.522.522,0,0,0,.1-.591,1.2,1.2,0,0,1,0-1.016l2.4,2.4a1.21,1.21,0,0,1-1.016,0Zm-3.1,2.827a2.068,2.068,0,0,1,.168.822.457.457,0,1,1-.914-.026,1.163,1.163,0,0,0-.089-.424.457.457,0,0,1,.835-.372Z" transform="translate(-66.147 -65.371)"/></svg>