<?xml version="1.0" encoding="UTF-8"?>
<svg width="19px" height="19px" viewBox="0 0 19 19" version="1.1" xmlns="http://www.w3.org/2000/svg" xmlns:xlink="http://www.w3.org/1999/xlink">
    <!-- Generator: Sketch 60.1 (88133) - https://sketch.com -->
    <title>跟单录入</title>
    <desc>Created with Sketch.</desc>
    <g id="招聘管理" stroke="none" stroke-width="1" fill="none" fill-rule="evenodd">
        <g id="录入报告2备份" transform="translate(2.000000, 0.200691)" fill-rule="nonzero">
            <rect id="矩形" fill="#000000" opacity="0" x="0" y="0.949003471" width="17.0509965" height="17.0509965"></rect>
            <path d="M8.16509375,5.1111875 L11.8994063,8.17229688 C12.0996204,8.33641274 12.3949665,8.30715794 12.5590938,8.10695313 L13.1457813,7.39123438 C13.7465781,6.65829688 13.6390938,5.57320313 12.9061563,4.97239063 L11.1052656,3.49617188 C10.7988125,3.24495313 10.4121094,3.10660938 10.0163906,3.10660938 C9.49895313,3.10660938 9.0141875,3.3359375 8.6864375,3.73579688 L8.09975,4.45151563 C7.935625,4.65171875 7.96489063,4.94707813 8.16509375,5.1111875 Z M13.682,15.8962969 L5.10003125,15.8940156 L6.30621875,15.589875 C6.40357294,15.5653224 6.49047257,15.5101625 6.554125,15.4325156 L11.4991875,9.3999375 C11.6632907,9.19971651 11.6340296,8.90437704 11.4338281,8.74025 L7.69954688,5.67914063 C7.49934375,5.51503125 7.20396875,5.54429688 7.03985938,5.7445 L2.09478125,11.7770625 C2.03112692,11.8547113 1.99408996,11.9507489 1.989125,12.0510313 L1.78825,16.1044219 C1.78589063,16.152125 1.7909375,16.1992656 1.8025625,16.2444219 C1.79265957,16.2827868 1.7876829,16.3222526 1.7876829,16.361875 C1.7876829,16.62075 1.99742188,16.8306719 2.2563125,16.83075 L13.6817656,16.8337813 L13.6818906,16.8337813 C13.9407031,16.8337813 14.1506406,16.6239844 14.1506406,16.3651563 C14.1506406,16.1062969 13.9408906,15.8963594 13.682,15.8962969 L13.682,15.8962969 Z" id="形状" fill="#FFFFFF"></path>
        </g>
    </g>
</svg>