<?xml version="1.0" encoding="UTF-8"?>
<svg width="18px" height="18px" viewBox="0 0 18 18" version="1.1" xmlns="http://www.w3.org/2000/svg" xmlns:xlink="http://www.w3.org/1999/xlink">
    <!-- Generator: Sketch 60.1 (88133) - https://sketch.com -->
    <title>客户认领</title>
    <desc>Created with Sketch.</desc>
    <g id="招聘管理" stroke="none" stroke-width="1" fill="none" fill-rule="evenodd">
        <g id="客户备份" fill-rule="nonzero">
            <rect id="矩形" fill="#000000" opacity="0" x="0" y="0" width="18" height="18"></rect>
            <path d="M8.86289063,10.8632844 C11.1058594,10.8597656 12.6,7.92246094 12.6,6.3421875 C12.6,4.76191406 12.5929688,1.95117188 8.86289062,1.95117188 C5.1328125,1.95117188 5.12578125,4.76191406 5.12578125,6.3421875 C5.12578125,7.92246094 6.61992188,10.8667969 8.86289063,10.8632844 Z M15.2244141,13.0921875 C14.2734375,12.3626953 11.5277344,11.1498047 11.5277344,11.1498047 L9.7453125,14.3771484 L9.48164063,13.6089844 L9.96855469,12.6386719 L8.99296875,11.6683594 L8.01738281,12.6386719 L8.50605469,13.6089844 L8.19140625,14.3964844 L6.45820312,11.1515625 C6.45820312,11.1515625 3.71425781,12.3644531 2.76152344,13.0939453 C1.80878906,13.8216797 1.38867188,16.0365234 1.38867188,16.0365234 L16.6236328,16.0365234 C16.6236328,16.0365234 16.3458984,13.9517578 15.2244141,13.0921875 L15.2244141,13.0921875 Z" id="形状" fill="#FFFFFF"></path>
        </g>
    </g>
</svg>