<svg xmlns="http://www.w3.org/2000/svg" width="16" height="16.739" viewBox="0 0 16 16.739"><defs><style>.a{fill:#fff;}</style></defs><path class="a" d="M87.014,63.955h1.992a1.982,1.982,0,0,1,1.961,1.723c0,.356,0,.739,0,.739h0c0,.006,7.139,0,7.139,0A2.388,2.388,0,0,1,99.848,67h0a2.4,2.4,0,0,1,.718,1.712V78.27a2.407,2.407,0,0,1-.718,1.71h0v0a2.452,2.452,0,0,1-1.725.71H87.014a2.45,2.45,0,0,1-1.726-.712h0l0,0a2.4,2.4,0,0,1-.717-1.708V66.379a2.4,2.4,0,0,1,.718-1.71h0a2.451,2.451,0,0,1,1.724-.71Zm4.225,8.6h6.394c.588,0,.568-.721-.02-.721h-6.4c-.566,0-.541.721.025.721Zm-2.507.246h.72a.5.5,0,0,0,.5-.494.448.448,0,0,0-.46-.474h-.738a.484.484,0,1,0-.02.967Zm.02,4.2h.738a.373.373,0,1,0,0-.738h-.738a.372.372,0,1,0,0,.738l-.02.057Zm0-2.215h.738c.548,0,.509-.722-.038-.722h-.72c-.577,0-.557.722.02.722l-.02.02ZM91.214,77c.3-.006,6.4,0,6.4,0a.373.373,0,1,0,0-.738h-6.4C90.826,76.271,90.829,77.009,91.214,77Zm0-2.215h6.4c.567,0,.587-.722.02-.722H91.239c-.4,0-.387.7-.025.722l.025.02Zm-5.908-5.908H99.829a2.255,2.255,0,0,0-.492-1.231h0a2.061,2.061,0,0,0-1.231-.492H90.968c-.278,0-.406.007-.591-.176h0c-.185-.184-.144-.529-.144-.806,0,0-.18-1.477-1.231-1.477H87.029a1.932,1.932,0,0,0-1.723,1.723Zm14.523.738H85.306v8.615c0,.507,1.246,1.723,1.723,1.723H98.106c.4,0,.777-.41,1.038-.67l0,0c.262-.259.682-.656.682-1.052Z" transform="translate(-84.568 -63.955)"/></svg>