<?xml version="1.0" encoding="UTF-8"?>
<svg width="18px" height="19px" viewBox="0 0 18 19" version="1.1" xmlns="http://www.w3.org/2000/svg" xmlns:xlink="http://www.w3.org/1999/xlink">
    <!-- Generator: Sketch 60.1 (88133) - https://sketch.com -->
    <title>提报审批</title>
    <desc>Created with Sketch.</desc>
    <g id="招聘管理" stroke="none" stroke-width="1" fill="none" fill-rule="evenodd">
        <g id="审批备份" transform="translate(0.500000, 0.850345)" fill-rule="nonzero">
            <rect id="矩形" fill="#000000" opacity="0" x="0" y="0" width="17" height="17"></rect>
            <path d="M7.0124834,9.9875 L7.0124834,8.18993262 C5.69911719,7.61515332 4.7812334,6.30308203 4.7812334,4.78125 C4.7812334,2.7274541 6.45035449,1.0625 8.4999834,1.0625 C10.5537793,1.0625 12.2187334,2.7317041 12.2187334,4.78125 C12.2187334,6.30550586 11.2993555,7.61555176 9.9874834,8.1897666 L9.9874834,9.9875 L13.3322334,9.9875 C14.3602852,9.9875 15.1937334,10.8128633 15.1937334,11.8469248 L15.1937334,13.70625 L1.8062666,13.70625 L1.8062666,11.8468418 C1.8062666,10.8199521 2.64371582,9.9875 3.6677334,9.9875 L7.0124834,9.9875 L7.0124834,9.9875 Z M2.55,14.45 L14.4499004,14.45 L14.4499004,15.9375 L2.55,15.9375 L2.55,14.45 L2.55,14.45 Z" id="形状" fill="#FFFFFF"></path>
        </g>
    </g>
</svg>