<svg xmlns="http://www.w3.org/2000/svg" width="12" height="10.354" viewBox="0 0 12 10.354"><defs><style>.a{fill:#027aff;}</style></defs><path class="a" d="M212.117,443.521h-7.134a.383.383,0,0,1-.384-.384v-5.854a.384.384,0,0,1,.384-.384h7.134a.384.384,0,0,1,.384.384v5.854A.383.383,0,0,1,212.117,443.521Zm-6.75-.767h6.367v-5.087h-6.367Z" transform="translate(-204.373 -433.167)"/><path class="a" d="M203.787,287.259h-3.872a.384.384,0,0,1,0-.767H203.4v-4.608h-5.32v2.3a.384.384,0,0,1-.767,0V281.5a.383.383,0,0,1,.384-.384h6.087a.383.383,0,0,1,.384.384v5.375A.383.383,0,0,1,203.787,287.259ZM192.555,283.3a.379.379,0,0,1-.219-.069.384.384,0,0,1-.1-.533,4.861,4.861,0,0,1,2.415-1.66.384.384,0,0,1,.228.732,4.09,4.09,0,0,0-2.013,1.368A.379.379,0,0,1,192.555,283.3Z" transform="translate(-192.17 -280.136)"/><path class="a" d="M302.871,235.307l2.245-1.724L302.5,232.5Z" transform="translate(-300.485 -232.5)"/></svg>