<svg xmlns="http://www.w3.org/2000/svg" xmlns:xlink="http://www.w3.org/1999/xlink" width="20" height="20" viewBox="0 0 20 20" fill="none"><defs><linearGradient id="linear_0" x1="50%" y1="1.4586344361305237%" x2="51%" y2="96.53856754302979%" gradientUnits="objectBoundingBox"><stop offset="0" stop-color="#FF9919" stop-opacity="1" /><stop offset="1" stop-color="#C70000" stop-opacity="1" /></linearGradient></defs><g opacity="1" transform="translate(0 0)  rotate(0 10 10)"><path id="矩形" fill-rule="evenodd" style="fill:#000000" transform="translate(0 0)  rotate(0 10 10)" opacity="0" d="M0,20L20,20L20,0L0,0L0,20Z " /><path id="路径" fill-rule="evenodd" fill="url(#linear_0)" transform="translate(3.255800670193093 1.235996127128601)  rotate(0 6.744198826051524 8.76749038696289)" opacity="1" d="M7.77986 0.34546C7.77786 3.5013 7.77645 5.73004 9.34 7.67C9.19 6.44 9.61 4.5 11.88 3.81C11.8692 5.52748 12.3397 6.6324 12.7747 7.6541C13.1452 8.52413 13.49 9.33381 13.49 10.41C13.49 14.35 10.47 17.53 6.74 17.53C3.02 17.53 0 14.35 0 10.41C0 8.78 0.69 6.78 2.08 6.03C2.08 6.03 2.32 8.73 3.63 9.86C3.6566 9.55908 3.64533 9.14289 3.63195 8.64857C3.56484 6.16965 3.44453 1.72585 7.78 0C7.78 0.116382 7.77993 0.231525 7.77986 0.34546Z" /></g></svg>