<svg xmlns="http://www.w3.org/2000/svg" width="10" height="10.404" viewBox="0 0 10 10.404"><defs><style>.a{fill:#fff;}</style></defs><path class="a" d="M176.206,155.237a2.278,2.278,0,0,1-2.269,2.167h-5.365a2.277,2.277,0,0,1-2.269-2.167h0v-6.069h0A2.278,2.278,0,0,1,168.572,147h4.518l-.979.827h-3.539a1.454,1.454,0,0,0-1.445,1.452v5.848a1.45,1.45,0,0,0,1.445,1.449h5.365a1.449,1.449,0,0,0,1.445-1.449v-4.092l.826-.814v5.017Zm.059-7.139-1.039-.827a.122.122,0,0,0-.171,0l-4.138,5.161-2.252-2.25a.12.12,0,0,0-.171,0l-.827.827a.122.122,0,0,0,0,.171l3.375,3.375a.171.171,0,0,0,.043.027.109.109,0,0,0,.129-.027l5.052-6.286A.12.12,0,0,0,176.264,148.1Zm0,0" transform="translate(-166.3 -147)"/></svg>