<?xml version="1.0" encoding="UTF-8"?>
<svg width="19px" height="19px" viewBox="0 0 19 19" version="1.1" xmlns="http://www.w3.org/2000/svg" xmlns:xlink="http://www.w3.org/1999/xlink">
    <!-- Generator: Sketch 60.1 (88133) - https://sketch.com -->
    <title>邀请好友备份@2x</title>
    <desc>Created with Sketch.</desc>
    <g id="招聘管理" stroke="none" stroke-width="1" fill="none" fill-rule="evenodd">
        <g id="邀请好友备份" transform="translate(0.000000, -0.500000)" fill-rule="nonzero">
            <rect id="矩形" fill="#000000" opacity="0" x="0" y="0" width="20" height="20"></rect>
            <path d="M6.88095238,12.4126984 L12.1190476,12.4126984 C13.710119,12.4126984 15,13.6634921 15,15.2063492 L15,16.4761905 C15,17.3177672 14.2964475,18 13.4285714,18 L5.57142857,18 C4.70355254,18 4,17.3177672 4,16.4761905 L4,15.2063492 C4,13.6634921 5.28988095,12.4126984 6.88095238,12.4126984 Z M8.71428571,2 L10.0238095,2 C11.9042857,2 13.4285714,3.47809524 13.4285714,5.3015873 L13.4285714,7.07936508 C13.4285714,8.90285714 11.9042857,10.3809524 10.0238095,10.3809524 L8.71428571,10.3809524 C6.83380952,10.3809524 5.30952381,8.90285714 5.30952381,7.07936508 L5.30952381,5.3015873 C5.30952381,3.47809524 6.83380952,2 8.71428571,2 Z" id="形状" fill="#1989FA"></path>
            <path d="M13.0505714,10.25 C13.7116286,9.57825 14.1142857,8.68825 14.1142857,7.712 L14.1142857,5.038 C14.1142857,4.288 13.8765286,3.5885 13.4663429,3 L13.6285714,3 C15.3722857,3 16.7857143,4.455 16.7857143,6.25 L16.7857143,7 C16.7857143,8.795 15.3722857,10.25 13.6285714,10.25 L13.0505714,10.25 Z M5.29007143,3.001 C4.88037143,3.58925 4.64285714,4.28825 4.64285714,5.038 L4.64285714,7.712 C4.64285714,8.68825 5.04551429,9.57825 5.70657143,10.25 L5.37142857,10.25 C3.62771429,10.25 2.21428571,8.795 2.21428571,7 L2.21428571,6.25 C2.21428571,4.483 3.584,3.0455 5.29007143,3.001 L5.29007143,3.001 Z M15.5592857,16.75 C15.5670571,16.66775 15.5711857,16.58425 15.5711857,16.5 L15.5711857,15.25 C15.5711857,13.86075 14.8372714,12.648 13.7468429,12 L15.6928571,12 C16.967057,12 18,13.0633237 18,14.375 L18,15.25 C18,16.0784271 17.3476149,16.75 16.5428571,16.75 L15.5592857,16.75 L15.5592857,16.75 Z M5.25242857,12 C4.16248571,12.648 3.42857143,13.86075 3.42857143,15.25 L3.42857143,16.5 C3.42857143,16.67125 3.44532857,16.8385 3.47714286,17 L2.45714286,17 C1.65238508,17 1,16.3284271 1,15.5 L1,14.5 C1,13.11925 2.08727143,12 3.42857143,12 L5.25291429,12 L5.25242857,12 Z" id="形状" fill="#1989FA" opacity="0.3"></path>
        </g>
    </g>
</svg>