<svg xmlns="http://www.w3.org/2000/svg" width="12" height="15.126" viewBox="0 0 12 15.126"><defs><style>.a{fill:#fff;}</style></defs><path class="a" d="M-2249.5-1290.216h0a.359.359,0,0,1-.191-.284v-6.158a.3.3,0,0,0-.316-.315h-2.617a1.282,1.282,0,0,1-1.234-.948,1.259,1.259,0,0,0-1.295-.948,1.31,1.31,0,0,0-1.137.979,1.278,1.278,0,0,1-1.2.917h-2.623a.3.3,0,0,0-.316.315v11.369a.3.3,0,0,0,.316.316h5.213a.334.334,0,0,1,.283.157.3.3,0,0,1-.283.442h-5.213a.93.93,0,0,1-.947-.948v-11.336a.93.93,0,0,1,.947-.946h2.623a.611.611,0,0,0,.6-.475,1.9,1.9,0,0,1,1.83-1.421,1.9,1.9,0,0,1,1.832,1.421.61.61,0,0,0,.6.475h2.617a.93.93,0,0,1,.949.946v6.158A.319.319,0,0,1-2249.5-1290.216Zm-9.348,1.768h3.789a.312.312,0,0,1,.285.442.277.277,0,0,1-.285.189h-3.789a.3.3,0,0,1-.316-.315A.3.3,0,0,1-2258.846-1288.448Zm0-2.842h6.316a.3.3,0,0,1,.316.316.3.3,0,0,1-.316.315h-6.316a.3.3,0,0,1-.316-.315A.3.3,0,0,1-2258.846-1291.29Zm3.156-5.684a.3.3,0,0,1-.316-.316.3.3,0,0,1,.316-.315h1.264a.3.3,0,0,1,.316.315.3.3,0,0,1-.316.316Zm4.738,3.157a.3.3,0,0,1-.316.316h-7.578a.3.3,0,0,1-.316-.316.3.3,0,0,1,.316-.315h7.578a.3.3,0,0,1,.316.315Zm-.34,5.188a.305.305,0,0,1,.313.313v1.428h1.43a.306.306,0,0,1,.314.312.307.307,0,0,1-.314.313l-1.406.022v1.43a.3.3,0,0,1-.312.312.3.3,0,0,1-.312-.312v-1.43h-1.43a.3.3,0,0,1-.312-.312.305.305,0,0,1,.313-.313h1.43v-1.428a.34.34,0,0,1,.289-.335Z" transform="translate(2261.057 1299.5)"/></svg>