<svg xmlns="http://www.w3.org/2000/svg" width="12" height="12" viewBox="0 0 12 12"><defs><style>.a{fill:#027aff;}</style></defs><path class="a" d="M14.46,3.529a1.852,1.852,0,0,0-2.616,0L11,4.371,10.47,4.9l-4.3,4.3a1.027,1.027,0,0,0-.3.8l.1,1.372a.629.629,0,0,0,.026.1,4.34,4.34,0,0,0-2.491.682,1.477,1.477,0,0,0,.057,2.272,1.689,1.689,0,0,0,1.182.562,1.541,1.541,0,0,0,1.09-.505,4.389,4.389,0,0,0,.682-2.517c.017,0,.032.012.049.014l1.408.128c.031,0,.063,0,.094,0a1.025,1.025,0,0,0,.726-.3l4.29-4.291.533-.533.842-.842a1.851,1.851,0,0,0,0-2.616ZM5.3,13.949c-.246.247-.639.508-1.2-.057s-.3-.958-.057-1.2a3.426,3.426,0,0,1,1.709-.447A3.413,3.413,0,0,1,5.3,13.949Zm2.96-2.673a.274.274,0,0,1-.218.079l-1.325-.12L6.628,9.946a.273.273,0,0,1,.079-.212l4.3-4.3,1.548,1.549ZM13.927,5.61l-.841.842L11.537,4.9l.841-.841a1.1,1.1,0,0,1,1.549,1.548Z" transform="translate(-3.001 -2.988)"/></svg>