<svg xmlns="http://www.w3.org/2000/svg" width="14" height="14" viewBox="0 0 14 14"><defs><style>.a{fill:#fff;}</style></defs><path class="a" d="M6.405,10.706H7.47V11.84H6.405Zm2.69-7.848a2.908,2.908,0,0,0-2.012-.7,3.447,3.447,0,0,0-1.127.187,2.875,2.875,0,0,0-.989.58,2.284,2.284,0,0,0-.629.872,4.111,4.111,0,0,0-.214,1.32h.9Q5.19,2.934,7.042,2.934A1.918,1.918,0,0,1,8.4,3.4a1.622,1.622,0,0,1,.5,1.245,1.652,1.652,0,0,1-.2.851,7.89,7.89,0,0,1-.995,1.154A4.915,4.915,0,0,0,6.682,8.03a3.906,3.906,0,0,0-.263,1.375h.954A3.07,3.07,0,0,1,7.567,8.12a5.528,5.528,0,0,1,1.052-1.2A5.472,5.472,0,0,0,9.642,5.755a2.1,2.1,0,0,0,.235-1.023,2.392,2.392,0,0,0-.782-1.874M7,.7A6.3,6.3,0,1,1,.7,7,6.307,6.307,0,0,1,7,.7M7,0a7,7,0,1,0,7,7A7,7,0,0,0,7,0"/></svg>