<?xml version="1.0" standalone="no"?>
<!DOCTYPE svg PUBLIC "-//W3C//DTD SVG 1.1//EN" "http://www.w3.org/Graphics/SVG/1.1/DTD/svg11.dtd" >
<svg xmlns="http://www.w3.org/2000/svg">
  <metadata>Created by iconfont</metadata>
  <defs>
  <font id="iconfont" horiz-adv-x="1024">
    <font-face
      font-family="iconfont"
      font-weight="400"
      font-stretch="normal"
      units-per-em="1024"
      ascent="896"
      descent="-128"
    />
      <missing-glyph />
      
      <glyph glyph-name="a-24gl-questionCirclebeifen2x" unicode="&#58950;" d="M501.940706 785.588706a421.647059 421.647059 0 1 1 0-843.294118 421.647059 421.647059 0 0 1 0 843.294118z m0-803.177412a381.470118 381.470118 0 1 0 0 763.000471 381.470118 381.470118 0 0 0 0-763.000471z m20.118588 180.705882a20.058353 20.058353 0 1 0-40.176941 0 20.058353 20.058353 0 0 0 40.176941 0z m-20.118588 80.353883A20.058353 20.058353 0 0 0 481.882353 263.529412v40.176941c0 5.300706 2.108235 10.420706 5.903059 14.155294 12.288 12.348235 27.166118 23.491765 42.947764 35.177412C565.970824 379.301647 602.352941 406.467765 602.352941 444.235294c0 55.356235-45.056 100.412235-100.412235 100.412235S401.588706 499.591529 401.588706 444.235294A20.058353 20.058353 0 1 0 361.411765 444.235294a140.528941 140.528941 0 1 0 281.118117 0c0-26.503529-9.999059-50.718118-30.539294-74.089412-16.564706-18.913882-37.225412-34.334118-57.223529-49.27247-11.986824-8.914824-23.371294-17.408-32.707765-25.840941v-31.503059a20.058353 20.058353 0 0 0-20.118588-20.058353z"  horiz-adv-x="1024" />
      
      <glyph glyph-name="a-chaxunbeifen2" unicode="&#58949;" d="M334.464 337.6a158.336 158.336 0 1 1 223.872 223.936 158.336 158.336 0 0 1-223.872-223.936zM512 873.984a489.984 489.984 0 1 1 0-979.968A489.984 489.984 0 0 1 512 873.984z m278.4-762.624l-5.76-5.76a30.016 30.016 0 0 0-42.432 0L577.152 270.72a221.888 221.888 0 0 0-287.36 22.208 221.76 221.76 0 0 0 0 313.28 221.76 221.76 0 0 0 313.28 0 221.888 221.888 0 0 0 22.208-287.36l165.12-165.12a30.016 30.016 0 0 0 0-42.368z"  horiz-adv-x="1024" />
      
      <glyph glyph-name="chanpin" unicode="&#58947;" d="M451.4 361.20000000000005L122 527.6c-36.3 18.3-36.3 70.1 0 88.4l329.8 166.7c39.7 20.1 86.5 20.1 126.3 0.2l320.4-160.8c40.1-20.1 40.3-77.3 0.3-97.7l-320.5-163c-39.9-20.3-87-20.3-126.9-0.2zM513.9 159.60000000000002c-32.4 0-64.8 7.3-94.4 21.8L120.9 328.20000000000005c-22.5 11.1-31.8 38.3-20.8 60.9 11.1 22.6 38.4 31.8 60.9 20.8L459.6 263c34.3-16.8 75.1-16.7 109.2 0.3l293.4 146.3c22.5 11.2 49.8 2.1 61-20.4 11.2-22.5 2.1-49.8-20.4-61L609.5 182c-29.9-14.9-62.7-22.4-95.6-22.4zM513.9-31.100000000000023c-32.4 0-64.8 7.3-94.4 21.8L120.9 137.5c-22.5 11.1-31.8 38.3-20.8 60.9 11.1 22.5 38.4 31.8 60.9 20.8l298.6-146.8c34.2-16.8 75.1-16.7 109.2 0.3L862.2 219c22.5 11.2 49.8 2.1 61-20.4 11.2-22.5 2.1-49.8-20.4-61L609.5-8.700000000000045c-29.9-14.9-62.7-22.4-95.6-22.4z"  horiz-adv-x="1024" />
      
      <glyph glyph-name="jinghao" unicode="&#59162;" d="M740.261 747.98c15.716-4.196 25.146-20.159 21.345-35.879l-0.18-0.703-41.704-156.07h178.385c16.51 0 29.893-13.38 29.893-29.884 0-16.268-13.004-29.5-29.187-29.874l-0.706-0.009-194.355 0.001-56.509-211.48h191.078c16.51 0 29.893-13.38 29.893-29.884 0-16.268-13.004-29.5-29.187-29.875l-0.706-0.008-207.049 0.001-49.202-184.138c-4.26-15.944-20.645-25.418-36.595-21.158-15.716 4.196-25.146 20.159-21.345 35.879l0.18 0.703 45.081 168.714H357.638l-49.203-184.138c-4.26-15.944-20.645-25.418-36.595-21.158-15.715 4.196-25.146 20.159-21.344 35.879l0.179 0.703 45.081 168.714H120.893c-16.51 0-29.893 13.378-29.893 29.882 0 16.269 13.004 29.5 29.187 29.875l0.706 0.008 190.833 0.001 56.51 211.48H180.679c-16.51 0-29.893 13.379-29.893 29.882 0 16.269 13.004 29.5 29.187 29.875l0.706 0.008 203.527 0.001 45.826 171.494c4.26 15.944 20.645 25.418 36.595 21.158 15.715-4.196 25.146-20.159 21.344-35.879l-0.179-0.703-41.704-156.07h211.753l45.825 171.494c4.261 15.944 20.645 25.418 36.595 21.158z m-154.9-463.898l56.51 211.48H430.118l-56.509-211.48h211.752z"  horiz-adv-x="1024" />
      
      <glyph glyph-name="iqunzu" unicode="&#59053;" d="M512 283.4c-68.5 0-133 26.7-181.4 75.2S255.5 471.5 255.5 540s26.7 133 75.2 181.4S443.5 796.6 512 796.6c68.5 0 133-26.7 181.4-75.2s75.2-112.9 75.2-181.4-26.7-133-75.2-181.4-112.8-75.2-181.4-75.2zM826.1-30.5c-21 0-38 17-38 38 0 152.1-123.8 275.9-275.9 275.9S236.3 159.60000000000002 236.3 7.5c0-21-17-38-38-38s-38 17-38 38c0 47.5 9.3 93.6 27.7 137 17.7 41.9 43.1 79.5 75.4 111.8 32.3 32.3 69.9 57.7 111.8 75.4 43.4 18.4 89.5 27.7 137 27.7s93.6-9.3 137-27.7c41.9-17.7 79.5-43.1 111.8-75.4s57.7-69.9 75.4-111.8c18.4-43.4 27.7-89.5 27.7-137 0-21-17.1-38-38-38zM39.7 107.60000000000002c-21 0-38 17-38 38C1.7 207 25.6 264.70000000000005 69 308.20000000000005c14.2 14.2 30 26.3 46.9 36.2-34.4 31.4-56 76.6-56 126.8 0 29.7 7.7 59.1 22.4 84.8 14.2 24.9 34.5 46.1 58.9 61.2 17.8 11.1 41.3 5.6 52.3-12.3 11.1-17.8 5.6-41.3-12.3-52.3-28.4-17.6-45.3-48-45.3-81.4 0-52.7 42.9-95.7 95.7-95.7h0.1c21 0 38-17 38-38s-17-38-37.9-38h-0.1c-84.9 0-153.9-69-153.9-153.9-0.1-21-17.1-38-38.1-38zM985 108c-21 0-38 17-38 38 0 84.9-69 153.9-153.9 153.9-21 0-38 17-38 38s17 38 38 38c52.8 0 95.7 42.9 95.7 95.7 0 33.3-17 63.8-45.3 81.4-17.8 11.1-23.3 34.5-12.3 52.3 11.1 17.8 34.5 23.3 52.3 12.3 24.4-15.1 44.7-36.3 58.9-61.2 14.6-25.7 22.4-55.1 22.4-84.8 0-50.2-21.6-95.4-56-126.8 16.9-9.9 32.7-22 46.9-36.2 43.4-43.4 67.3-101.2 67.3-162.6 0-21-17-38-38-38z"  horiz-adv-x="1024" />
      
      <glyph glyph-name="contacts" unicode="&#58934;" d="M810.666667 597.333333h213.333333v-85.333333h-213.333333V597.333333z m-85.333334-213.333333h298.666667v-85.333333h-298.666667v85.333333z m128-213.333333h170.666667v-85.333334h-170.666667v85.333334zM85.333333-42.66666699999996a341.333333 341.333333 0 1 0 682.666667 0h-85.333333a256 256 0 1 1-512 0H85.333333z m341.333334 384c-141.44 0-256 114.56-256 256s114.56 256 256 256 256-114.56 256-256-114.56-256-256-256z m0 85.333334c94.293333 0 170.666667 76.373333 170.666666 170.666666s-76.373333 170.666667-170.666666 170.666667-170.666667-76.373333-170.666667-170.666667 76.373333-170.666667 170.666667-170.666666z"  horiz-adv-x="1024" />
      
      <glyph glyph-name="useradd" unicode="&#58946;" d="M597.333333 287.914667v-89.173334A256 256 0 0 1 256-42.66666699999996l-85.333333 0.042667a341.333333 341.333333 0 0 0 426.666666 330.581333zM512 341.33333300000004c-141.44 0-256 114.56-256 256s114.56 256 256 256 256-114.56 256-256-114.56-256-256-256z m0 85.333334c94.293333 0 170.666667 76.373333 170.666667 170.666666s-76.373333 170.666667-170.666667 170.666667-170.666667-76.373333-170.666667-170.666667 76.373333-170.666667 170.666667-170.666666z m256-256v128h85.333333v-128h128v-85.333334h-128v-128h-85.333333v128h-128v85.333334h128z"  horiz-adv-x="1024" />
      
      <glyph glyph-name="zlcb" unicode="&#58945;" d="M512.54 129.35000000000002a32 32 0 0 1 32 32V268.91999999999996h106.68a32 32 0 0 1 0 64H544.54v73.54h106.68a32 32 0 0 1 0 64h-61.54l84.26 84.26A32 32 0 1 1 628.69 600L512.5 483.78 396.31 600a32 32 0 1 1-45.25-45.25l84.26-84.26h-61.47a32 32 0 0 1 0-64h106.69v-73.54H373.85a32 32 0 0 1 0-64h106.69v-107.6a32 32 0 0 1 32-32zM891 731.4300000000001c-12.66 3.71-91.55 26.8-172.69 49.62C536.09 832.27 520.74 832.27 512.5 832.27h-1c-8.25 0-23.6 0-205.77-51.23-81.14-22.82-160-45.91-172.69-49.62a44.07 44.07 0 0 1-35.74-43.21v-277.93c0-55.41 11.8-112.58 35.09-169.94a564.12 564.12 0 0 1 91.68-150.94C307-8.259999999999991 411.86-64.26999999999998 511.81-64.26999999999998v64c-81.13 0-168.22 47.78-238.94 131.09C203 213.11 161.3 317.58000000000004 161.3 410.28V672.75c155.16 45.72 324.4 92.69 350.7 95.44 26.31-2.74 195.54-49.72 350.7-95.44v-262.47c0-92.7-41.71-197.17-111.57-279.46-70.73-83.31-157.82-131.09-238.94-131.09v-64c99.95 0 204.82 56 287.73 153.67a564.12 564.12 0 0 1 91.69 150.94c23.29 57.36 35.09 114.53 35.09 169.94V688.21a44.07 44.07 0 0 1-35.7 43.22z"  horiz-adv-x="1024" />
      
      <glyph glyph-name="hscb" unicode="&#58933;" d="M615.47 465.41l-99.33-184.09-99.33 184.09h-55.57l114.5-201.48h-83.06v-28.06h98.77v-55.01h-98.77v-28.05h98.77v-88.13h49.39v88.13h99.33v28.05h-99.33v55.01h99.33v28.06h-83.63l114.5 201.48h-55.57zM545 642.7l165.82 141.07a21.25 21.25 0 0 1-17.45 37.11l-86.76-15.25-86.75 15.25a20.63 20.63 0 0 1-7.35 0l-86.73-15.25L339 820.88a21.25 21.25 0 0 1-17.45-37.11L487.33 642.7c-196.48-25.51-341-305.74-341-490.59 0-220.18 196.51-220.18 369.87-220.18s369.9 0 369.9 220.18C886.08 337 741.53 617.19 545 642.7zM422.1 763.14a20.63 20.63 0 0 1 7.35 0l86.73 15.25 86.76-15.25a20.63 20.63 0 0 1 7.35 0l13.48 2.36-107.59-91.55-107.56 91.55z m94.08-788.71c-203.7 0-327.37 12-327.37 177.68 0 177.77 146.66 450.17 327.37 450.17s327.4-272.4 327.4-450.17c0-165.72-123.69-177.68-327.4-177.68z"  horiz-adv-x="1024" />
      
      <glyph glyph-name="kehu" unicode="&#58986;" d="M243.4844448 321.64977812999996c-2.95822187-8.96568853-4.55111147-18.56853333-4.55111147-28.53546666v-90.97671147a91.02222187 91.02222187 0 0 1 91.02222187-91.02222187h91.02222293a91.02222187 91.02222187 0 0 1 91.02222187 91.02222187v90.97671147c0 10.0124448-1.59288853 19.56977813-4.55111147 28.58097706 135.8051552-36.31786667 232.10666667-127.11253333 232.10666667-233.33546666V19.911111470000037a91.02222187 91.02222187 0 0 0-91.02222187-91.02222294H102.4a91.02222187 91.02222187 0 0 0-91.02222187 91.02222294v68.4487104c0 106.22293333 96.30151147 197.0176 232.10666667 233.33546666z m620.1344-302.51235626A90.56711147 90.56711147 0 0 1 876.08888853 65.19466666999995V133.68888852999999c0 100.1244448-90.9312 186.5955552-222.27626666 226.59982294C706.3779552 410.35093333 739.5555552 483.9424 739.5555552 566.0444448000001c0 49.5616-12.1059552 96.0284448-33.2231104 136.07822187C801.13208853 695.02293333 876.08888853 606.2307552 876.08888853 497.77777813c0-70.76977813-31.85777813-133.16551147-80.41813333-169.9384896 126.11128853-27.30666667 216.95146667-103.90186667 216.95146667-194.1504v-69.0403552a45.51111147 45.51111147 0 0 0-45.5111104-45.51111146h-103.49226667zM375.46666667 293.11431146999996a45.51111147 45.51111147 0 0 0 45.51111146-45.51111147v-45.51111147a45.51111147 45.51111147 0 1 0-91.02222293 0v45.51111147a45.51111147 45.51111147 0 0 0 45.51111147 45.51111147z m0 45.5111104c-125.65617813 0-227.5555552 112.0483552-227.5555552 250.2200896C147.91111147 727.0627552 249.81048853 839.11111147 375.46666667 839.11111147s227.5555552-112.0483552 227.5555552-250.2656c0-138.17173333-101.89937813-250.22008853-227.5555552-250.2200896z"  horiz-adv-x="1024" />
      
      <glyph glyph-name="a-HRrenshi-08" unicode="&#59639;" d="M482.986667 211.626667v-177.493334h-51.2v73.386667H375.466667v-73.386667h-51.2V211.626667h51.2v-61.44h56.32v61.44h51.2zM640 34.133333L602.453333 93.866667h-10.24v-59.733334h-51.2V211.626667H614.4c22.186667 0 39.253333-5.12 51.2-13.653334s17.066667-23.893333 17.066667-46.08c0-13.653333-1.706667-25.6-6.826667-34.133333s-13.653333-15.36-23.893333-18.773333l47.786666-64.853334h-59.733333z m-47.786667 95.573334h11.946667c10.24 0 17.066667 1.706667 22.186667 5.12 3.413333 3.413333 6.826667 8.533333 6.826666 17.066666 0 3.413333 0 6.826667-1.706666 10.24-1.706667 3.413333-1.706667 5.12-5.12 6.826667s-5.12 3.413333-8.533334 3.413333-8.533333 1.706667-13.653333 1.706667h-11.946667v-44.373333zM512 701.44m-145.066667 0a145.066667 145.066667 0 1 1 290.133334 0 145.066667 145.066667 0 1 1-290.133334 0ZM580.266667 518.826667h-136.533334c-107.52 0-196.266667-88.746667-196.266666-196.266667v-30.72c0-13.653333 11.946667-25.6 25.6-25.6h477.866666c13.653333 0 25.6 11.946667 25.6 25.6v30.72c0 109.226667-88.746667 196.266667-196.266666 196.266667zM955.733333 256H68.266667c-18.773333 0-34.133333 15.36-34.133334 34.133333s15.36 34.133333 34.133334 34.133334h887.466666c18.773333 0 34.133333-15.36 34.133334-34.133334s-15.36-34.133333-34.133334-34.133333zM844.8-78.506667h-665.6c-18.773333 0-34.133333 15.36-34.133333 34.133334V288.426667c0 18.773333 15.36 34.133333 34.133333 34.133333h667.306667c18.773333 0 34.133333-15.36 34.133333-34.133333v-334.506667c-1.706667-17.066667-17.066667-32.426667-35.84-32.426667z m-633.173333 66.56h600.746666V256H211.626667v-267.946667z"  horiz-adv-x="1024" />
      
      <glyph glyph-name="tongxunlu" unicode="&#59074;" d="M711.602525 508.208906l215.391628 0c16.918321 0 29.658484-8.594749 29.658484-26.744107 0-18.154475-14.712073-26.749224-31.629371-26.749224L711.602525 454.715575c-16.925485 0-30.656207 8.594749-30.656207 26.749224C680.946318 499.615181 694.677041 508.208906 711.602525 508.208906zM956.088796 358.900346c0-18.151405-12.748349-26.752294-29.661553-26.752294L757.275751 332.148052c-16.925485 0-30.65723 8.597819-30.65723 26.752294 0 18.149359 13.731746 26.743084 30.65723 26.743084l170.132842 0C944.324868 385.64343 956.088796 377.049704 956.088796 358.900346zM800.847106 81.614042c0-39.784098-32.308847-64.12446-72.02643-64.12446L466.867592 17.489582l-84.297918 0-245.941412 0c-39.711444 0-72.024383 24.337291-72.024383 64.12446l0 17.287735c0 36.45426 26.839275 68.769246 61.099566 81.065294l146.643871 65.364707c0 0 39.749306 12.218276 50.631144 24.411993 7.239891 8.121981 9.473769 34.901905 0.296759 52.481282-9.174963 17.577331-83.47825 114.289999-83.47825 195.409528 0 130.822534 85.99149 236.876965 192.06127 236.876965 106.073874 0 192.058201-106.054431 192.058201-236.876965 0-84.695984-83.380012-177.934528-90.234117-200.878077-6.859221-22.943548-7.41283-40.902572 0.333598-48.523133 12.050454-11.843746 43.062771-23.88806 43.062771-23.88806l162.670893-63.391772c34.262338-12.301164 61.10059-45.601594 61.10059-82.055854L800.847106 81.614042 800.847106 81.614042zM926.918429 216.700693 813.853327 216.700693c-16.921391 0-30.653137 8.594749-30.653137 26.752294 0 18.147312 13.731746 26.743084 30.653137 26.743084l114.049522 0c16.921391 0 29.647227-8.594749 29.647227-26.743084C957.549054 225.298512 943.837774 216.700693 926.918429 216.700693z"  horiz-adv-x="1024" />
      
      <glyph glyph-name="shenpi" unicode="&#59413;" d="M947.2 135.31428600000004h-102.4c32.914286 21.942857 51.2 58.514286 51.2 98.742857 0 67.657143-54.857143 120.685714-120.685714 120.685714s-120.685714-54.857143-120.685715-120.685714c0-40.228571 20.114286-76.8 51.2-98.742857H603.428571c-14.628571 0-27.428571-12.8-27.428571-27.428572v-76.8c0-14.628571 12.8-27.428571 27.428571-27.428571h345.6c14.628571 0 27.428571 12.8 27.428572 27.428571v76.8c-1.828571 14.628571-14.628571 27.428571-29.257143 27.428572zM629.028571-21.942857000000004h290.742858v-54.857143H629.028571zM588.8 234.057143c0 102.4 82.285714 184.685714 184.685714 184.685714 71.314286 0 131.657143-40.228571 162.742857-96.914286V766.171429c0 20.114286-16.457143 36.571429-36.571428 36.571428h-731.428572c-20.114286 0-36.571429-16.457143-36.571428-36.571428v-804.571429c0-20.114286 16.457143-36.571429 36.571428-36.571429h340.114286V109.71428600000002c0 47.542857 36.571429 85.942857 82.285714 91.428571 0 9.142857-1.828571 21.942857-1.828571 32.914286zM354.742857 565.028571h362.057143v-73.142857H354.742857v73.142857z m142.628572-404.114285h-142.628572v73.142857h142.628572v-73.142857z m-142.628572 166.4v73.142857h252.342857v-73.142857H354.742857z"  horiz-adv-x="1024" />
      
      <glyph glyph-name="jsfx" unicode="&#59039;" d="M235.008 784.384c-51.2 0-92.16-41.472-92.16-92.16s41.472-92.16 92.16-92.16c51.2 0 92.16 41.472 92.16 92.16 0 51.2-41.472 92.16-92.16 92.16zM438.784 382.976l83.456 29.184 6.656 2.048 6.144-3.584 62.976-39.424 52.224 148.992 8.192 22.528 16.384-17.408 47.616-50.688 69.632 119.808 25.088-14.848-79.36-136.704-9.728-16.896-13.312 14.336-44.544 47.616-50.176-143.872-6.144-17.408-15.36 9.728-72.704 45.568-76.8-26.624-10.24 27.648zM454.144 19.456h282.112v-49.664h-282.112v49.664zM631.808 180.224h303.104v578.56h-560.128v-58.88h501.76v-461.312h-477.696v-58.88h152.576v-145.408h80.384v145.92zM77.312 336.384l58.368-44.032-18.944-323.072h84.48l14.336 275.456h35.84l17.408-275.456h79.36l-12.288 323.072-6.656 197.12 193.024 3.072 41.472 73.216-217.088 10.24h-97.792l7.168-12.288-9.728-19.456 20.992-148.48-32.256-33.28v-2.56l-1.024 1.536-1.536-1.536v2.56l-32.768 33.792 20.992 148.48-9.728 19.456 7.168 12.288h-96.256l-44.544-240.128z"  horiz-adv-x="1024" />
      
      <glyph glyph-name="hsfx" unicode="&#58932;" d="M843.409 798.772H181.08c-45.535 0-82.377-37.256-82.377-82.791l-0.414-745.12 165.582 165.582h579.538c45.535 0 82.791 37.256 82.791 82.791V715.981c0 45.535-37.256 82.791-82.791 82.791zM675.663 545.7909999999999V463H553.64v-59.229h122.004v-82.791H553.64v-62.735h-82.791V320.98h-122.06v82.791h122.06V463H348.808v82.791h44.355l-73.98 73.98 58.542 58.542 132.522-132.522h3.994l132.522 132.522 58.542-58.542-73.98-73.98h44.338z"  horiz-adv-x="1024" />
      
      <glyph glyph-name="khgx" unicode="&#59493;" d="M791.30324 526.3c-5-5-6.2-12.7-2.8-18.9 17.5-31.9 27.4-68.5 27.4-107.4 0-56.2-20.7-107.6-54.9-147-4.5-5.1-5.1-12.6-1.8-18.4l39.2-67.9c3.3-5.7 9.6-8.7 16.1-7.8 6 0.8 12.1 1.2 18.3 1.2 70.1-0.5 128-59.7 127.1-129.7-0.9-69.7-57.4-125.9-127.1-126.4-70.9-0.5-128.9 57.1-128.9 128 0 38.1 16.7 72.3 43.1 95.8l-37 64c-4.2 7.3-13.3 10-20.9 6.4-29.3-14.2-62.3-22.2-97.2-22.2-26.7 0-52.3 4.7-76 13.2-7.3 2.6-15.4-0.3-19.3-7l-24.9-43.1c-3.1-5.4-2.8-12.1 0.8-17.2 15-21.2 23.7-47.1 23.5-75.1-0.7-69.5-57.5-126.2-127-126.8-71.6-0.6-129.8 57.7-129.1 129.4 0.8 69.7 58 126.5 127.8 126.6 12 0 23.7-1.6 34.8-4.7 7-2 14.5 1.1 18.2 7.4l21.7 37.6c3.7 6.4 2.5 14.6-2.9 19.6-33.6 31.2-57.5 72.6-67 119.2-1.5 7.5-8 12.9-15.7 12.9h-92c-6.9 0-13.1-4.5-15.2-11.1C232.80324 305.79999999999995 184.70324 269 128.00324 269 57.00324 269-0.49676 326.79999999999995 0.00324 397.9 0.40324 468.5 58.60324 525.7 129.20324 525c54.2-0.5 100.4-34.8 118.5-82.8C250.00324 436 256.00324 432 262.60324 432h94.1c7.6 0 14.2 5.3 15.7 12.7 11 54.2 41.5 101.3 84 133.6 6.4 4.9 8.2 13.8 4.2 20.8l-2.2 3.8c-3.5 6-10.3 9-17.1 7.7-8.8-1.8-18-2.7-27.4-2.5-69.5 1-126.9 60.1-126 129.6 0.9 70.3 58.4 126.9 129 126.3 69.3-0.6 126-57 127-126.2 0.4-31.6-10.6-60.7-29.3-83.2-4.3-5.2-5-12.5-1.6-18.3l6.6-11.4c3.6-6.2 10.8-9.3 17.7-7.5 17.5 4.4 35.8 6.7 54.6 6.7 52.3 0 100.4-17.9 138.6-48 6.4-5 15.5-4.5 21.2 1.2l24.2 24.2c4.7 4.7 6 11.8 3.3 17.8-7.3 16.1-11.3 34-11.3 52.8 0 70.7 57.3 128 128 128 70.6 0 128-57.4 128-128 0-70.7-57.3-128-128-128-20.7 0-40.2 4.9-57.5 13.6-6.2 3.1-13.7 2-18.7-2.9l-28.4-28.5z"  horiz-adv-x="1024" />
      
      <glyph glyph-name="xjd" unicode="&#59213;" d="M566.784 28.16c0 50.517333 41.642667 91.818667 93.696 94.549333-8.704 19.285333-15.018667 43.008-15.018667 72.021334 0 109.056 86.357333 157.866667 172.032 157.866666 30.549333 0 61.269333-6.656 87.893334-20.48 2.048 17.066667 3.242667 34.304 3.242666 51.882667 0 241.152-196.096 437.248-437.248 437.248S34.133333 625.152 34.133333 384s196.096-437.248 437.248-437.248c32.768 0 64.682667 3.754667 95.232 10.581333l0.170667 70.826667z m-95.232 123.733333c-21.333333 0-38.741333 17.237333-38.741333 38.741334v83.456h-83.626667c-21.333333 0-38.741333 17.237333-38.741333 38.741333 0 21.333333 17.237333 38.741333 38.741333 38.741333h83.626667v44.714667h-83.626667c-21.333333 0-38.741333 17.237333-38.741333 38.741333s17.237333 38.741333 38.741333 38.741334h49.152l-76.458667 76.458666c-15.189333 15.189333-15.189333 39.594667 0 54.613334 15.189333 15.189333 39.594667 15.189333 54.613334 0l94.72-94.72 94.72 94.72c15.189333 15.189333 39.594667 15.189333 54.613333 0s15.189333-39.594667 0-54.613334l-76.458667-76.458666h49.152c21.333333 0 38.741333-17.237333 38.741334-38.741334s-17.237333-38.741333-38.741334-38.741333H510.293333v-44.714667h83.285334c21.333333 0 38.741333-17.237333 38.741333-38.741333 0-21.333333-17.237333-38.741333-38.741333-38.741333H510.293333v-83.456c0-21.333333-17.408-38.741333-38.741333-38.741334zM938.154667 92.16h-61.269334v0.341333c1.365333 2.218667 5.290667 6.485333 8.192 9.557334 14.506667 15.530667 38.570667 41.472 38.570667 92.16 0 81.066667-56.661333 110.08-109.738667 110.08-52.736 0-114.346667-28.842667-114.346666-110.08 0-52.736 25.429333-80.213333 40.618666-96.597334l4.949334-5.461333h-61.44c-28.501333 0-51.712-23.210667-51.712-51.712v-84.309333H989.866667v84.138666c0 28.672-23.210667 51.882667-51.712 51.882667z"  horiz-adv-x="1024" />
      
      <glyph glyph-name="jjjl" unicode="&#59317;" d="M781.312-50.517333H242.688c-18.773333 0-34.133333 15.36-34.133333 34.133333s15.36 34.133333 34.133333 34.133333h538.453333c18.773333 0 34.133333-15.36 34.133334-34.133333s-15.189333-34.133333-33.962667-34.133333zM921.6 803.498667H102.4c-37.717333 0-68.266667-30.549333-68.266667-68.266667v-573.781333c0-37.717333 30.549333-68.266667 68.266667-68.266667h819.2c37.717333 0 68.266667 30.549333 68.266667 68.266667V735.232c0 37.717333-30.549333 68.266667-68.266667 68.266667zM644.778667 547.157333c0 18.773333 15.36 34.133333 34.133333 34.133334s34.133333-15.36 34.133333-34.133334v-189.610666c0-18.773333-15.36-34.133333-34.133333-34.133334s-34.133333 15.36-34.133333 34.133334V547.157333zM551.765333 622.933333c0 18.773333 15.36 34.133333 34.133334 34.133334s34.133333-15.36 34.133333-34.133334v-265.557333c0-18.773333-15.36-34.133333-34.133333-34.133333s-34.133333 15.36-34.133334 34.133333V622.933333z m-92.842666-151.722666c0 18.773333 15.36 34.133333 34.133333 34.133333s34.133333-15.36 34.133333-34.133333v-113.834667c0-18.773333-15.36-34.133333-34.133333-34.133333s-34.133333 15.36-34.133333 34.133333v113.834667z m-93.013334-75.776c0 18.773333 15.36 34.133333 34.133334 34.133333s34.133333-15.36 34.133333-34.133333v-37.888c0-18.773333-15.36-34.133333-34.133333-34.133334s-34.133333 15.36-34.133334 34.133334v37.888zM750.933333 247.466667H307.2c-18.773333 0-34.133333 15.36-34.133333 34.133333V622.933333c0 18.773333 15.36 34.133333 34.133333 34.133334s34.133333-15.36 34.133333-34.133334v-307.2h409.6c18.773333 0 34.133333-15.36 34.133334-34.133333s-15.36-34.133333-34.133334-34.133333z"  horiz-adv-x="1024" />
      
      <glyph glyph-name="fenxi" unicode="&#58915;" d="M227.4304-51.571199999999976a44.2368 44.2368 0 0 0-44.176 45.02506667V223.43679999999995a44.96533333 44.96533333 0 1 0 89.08053334 0v-229.98293333a44.90453333 44.90453333 0 0 0-44.90453334-45.02506667z m221.54773334 0a44.2368 44.2368 0 0 0-44.1152 45.02506667V357.664a44.90453333 44.90453333 0 0 0 89.08053333 0v-363.4816a44.90453333 44.90453333 0 0 0-44.90453333-45.7536z m221.6096 0a44.2368 44.2368 0 0 0-44.11626667 45.02506667v159.95733333a44.90453333 44.90453333 0 0 0 89.08053333 0v-159.95733333a44.90453333 44.90453333 0 0 0-44.90453333-45.02506667z m221.60853333 0a44.2368 44.2368 0 0 0-44.176 45.02506667v294.912a44.96533333 44.96533333 0 1 0 89.14133333 0v-298.61333334a44.90453333 44.90453333 0 0 0-44.90453333-41.264zM169.23733334 394.55893333a44.176 44.176 0 0 0-36.0448 17.6576 45.02613333 45.02613333 0 0 0 11.0432 62.6848l320.21653333 246.9728a45.57226667 45.57226667 0 0 0 55.22026667 0l147.27466666-120.14933333 237.81013334 198.368a44.53973333 44.53973333 0 0 0 57.4048-67.84213333L697.8336 509.54986667a44.1152 44.1152 0 0 0-56.67733333 0l-147.2128 120.93866666-294.54826667-226.3424a45.57226667 45.57226667 0 0 0-30.15786666-9.5872zM933.4592 570.7776a44.90453333 44.90453333 0 0 0-44.90453333 44.2368v123.85066667H763.37066667a44.96533333 44.96533333 0 0 0 0 89.20213333h170.09066667a44.90453333 44.90453333 0 0 0 44.90346666-44.176v-168.8768a44.90453333 44.90453333 0 0 0-44.90453333-44.2976z"  horiz-adv-x="1080" />
      
      <glyph glyph-name="dunpai" unicode="&#59253;" d="M771.2 521l-275-266.3c-1.9-2.9-3.8-5.8-6.7-7.7-7.7-7.7-18.2-11.5-28.7-11.5-10.6 0-21.1 3.8-29.7 11.5-1.9 1.9-4.8 4.8-5.8 7.7L277.7 397.4c-15.3 15.3-15.3 39.3 0 54.6 15.3 15.4 41.2 15.4 56.5 0l126.5-121.7 253.9 245.3c16.3 15.3 41.2 15.3 56.5 0 16.4-14.4 16.4-39.3 0.1-54.6z m147.6 227.1c-12.5 11.5-28.8 17.3-45 17.3H869c-1 0-11.5-1-27.8-1-27.8 0-80.5 1.9-131.3 14.4-65.2 15.3-140.9 87.1-163 101.5-10.5 6.7-24 10.5-36.4 10.5S485.6 887 474.1 880.3C471.3 878.4 392.7 797 316 778.8c-50.8-12.4-105.4-14.4-132.2-14.4-17.3 0-27.8 1-28.7 1h-3.8c-17.3 0-32.6-5.8-45-17.3-13.4-11.5-21.1-28.7-21.1-46v-159c0-586.4 397.6-662.1 413.9-665 3.8-1 7.7-1 11.5-1s7.7 0 11.5 1c17.2 2.9 416.8 78.6 416.8 665v159c0 17.3-7.7 34.5-20.1 46z"  horiz-adv-x="1024" />
      
      <glyph glyph-name="wancheng" unicode="&#59098;" d="M412.458667 292.373333l337.066666 335.466667a42.666667 42.666667 0 0 0 60.202667 0l31.104-30.954667a42.666667 42.666667 0 0 0 0-60.48L443.328 140.77866700000004a42.858667 42.858667 0 0 0-6.677333-5.44 42.666667 42.666667 0 0 0-54.442667 4.821333l-199.04 198.101333a42.666667 42.666667 0 0 0 0 60.48l31.104 30.954667a42.666667 42.666667 0 0 0 60.202667 0l137.984-137.322667z"  horiz-adv-x="1024" />
      
      <glyph glyph-name="chengyuan" unicode="&#58972;" d="M837.603556 618.865778a2.275556 2.275556 0 0 1-0.056889 0.483555c-0.199111 0.654222 14.848-44.856889-0.597334 1.934223a88.462222 88.462222 0 0 1-0.995555 2.929777c-14.961778 42.496-39.224889 58.965333-57.002667 62.321778-22.840889 4.352-47.587556-5.774222-47.587555-35.498667 0-4.437333 0.853333-9.272889 2.417777-14.250666l-0.142222 0.028444c0.085333-0.256 0.227556-0.512 0.369778-0.768 1.621333-5.063111 3.953778-10.268444 6.769778-15.445333 13.767111-34.019556 21.333333-71.224889 21.333333-110.165333 0-76.117333-28.956444-145.521778-76.458667-197.802667 102.030222-60.273778 177.208889-184.149333 203.064889-303.672889H981.333333c-21.162667 119.978667-82.915556 248.632889-170.524444 325.632a385.194667 385.194667 0 0 1 42.154667 175.843556 386.275556 386.275556 0 0 1-15.36 108.430222zM429.056 258.986667a250.026667 250.026667 0 1 1-0.028444 500.081777 250.026667 250.026667 0 0 1 0.028444-500.081777z m158.151111 253.354666a161.479111 161.479111 0 1 0-322.958222 0 161.479111 161.479111 0 0 0 322.958222 0z m182.784-503.381333c-30.663111 180.878222-180.707556 340.935111-352.483555 340.935111-191.744 0-343.950222-160.056889-374.840889-340.935111h91.306666c29.354667 130.304 141.624889 250.026667 283.534223 250.026667 122.737778 0 232.248889-119.694222 261.205333-250.026667h91.278222z"  horiz-adv-x="1024" />
      
      <glyph glyph-name="order" unicode="&#58914;" d="M704 768h-64v64h-256v-64h-64v-128h384zM832 768h-64v-192h-510v192h-66c-70.7 0-128-57.3-128-128v-576c0-70.7 57.3-128 128-128h640c70.7 0 128 57.3 128 128v576c0 70.7-57.3 128-128 128zM320.1 192h-64v64h64v-64zM320.1 384h-64v64h64v-64zM768 192h-384v64h384v-64zM768 384h-384v64h384v-64z"  horiz-adv-x="1024" />
      
      <glyph glyph-name="jianjie" unicode="&#59042;" d="M782.933333-42.66666699999996H241.066667c-76.8 0-138.666667 61.866667-138.666667 138.666667v576C102.4 748.8 164.266667 810.666667 241.066667 810.666667h541.866666c76.8 0 138.666667-61.866667 138.666667-138.666667v-576c0-76.8-61.866667-138.666667-138.666667-138.666667zM241.066667 746.666667c-40.533333 0-74.666667-34.133333-74.666667-74.666667v-576c0-40.533333 34.133333-74.666667 74.666667-74.666667h541.866666c40.533333 0 74.666667 34.133333 74.666667 74.666667v576c0 40.533333-34.133333 74.666667-74.666667 74.666667H241.066667zM716.8 298.66666699999996H307.2c-17.066667 0-32 14.933333-32 32s14.933333 32 32 32h409.6c17.066667 0 32-14.933333 32-32s-14.933333-32-32-32zM716.8 117.33333300000004H307.2c-17.066667 0-32 14.933333-32 32s14.933333 32 32 32h409.6c17.066667 0 32-14.933333 32-32s-14.933333-32-32-32zM695.466667 454.4c-14.933333 0-27.733333 6.4-38.4 14.933333l-46.933334 46.933334-46.933333-46.933334c-21.333333-21.333333-55.466667-21.333333-74.666667 0-10.666667 10.666667-14.933333 23.466667-14.933333 38.4V755.2c0 17.066667 14.933333 32 32 32h213.333333c17.066667 0 32-14.933333 32-32v-247.466667c0-21.333333-12.8-40.533333-32-49.066666-10.666667-2.133333-17.066667-4.266667-23.466666-4.266667z m8.533333 61.866667z m-93.866667 70.4c14.933333 0 27.733333-6.4 38.4-14.933334l36.266667-38.4V723.2h-149.333333V533.333333l36.266666 38.4c10.666667 8.533333 23.466667 14.933333 38.4 14.933334z"  horiz-adv-x="1024" />
      
      <glyph glyph-name="dingzhu" unicode="&#58929;" d="M768 875.52l235.52-225.28c30.72-20.48 30.72-61.44 10.24-92.16-30.72-30.72-71.68-30.72-92.16-10.24l-10.24 10.24-20.48 20.48-235.52-337.92 71.68-71.68c20.48-30.72 20.48-71.68-10.24-92.16-20.48-20.48-51.2-20.48-81.92 0L204.8 517.12c-20.48 30.72-20.48 61.44 0 92.16 20.48 20.48 61.44 20.48 81.92 0l71.68-71.68 337.92 235.52-10.24 10.24C655.36 814.08 655.36 844.8 675.84 875.52c20.48 20.48 61.44 30.72 92.16 0zM419.84 209.92l-81.92 81.92c-71.68-81.92-184.32-204.8-204.8-235.52-30.72-30.72-51.2-71.68-71.68-112.64 51.2 10.24 92.16 30.72 122.88 61.44 30.72 20.48 153.6 133.12 235.52 204.8z m0 0"  horiz-adv-x="1028" />
      
      <glyph glyph-name="aite" unicode="&#58909;" d="M512-42.652444c-235.264 0-426.666667 191.402667-426.666667 426.666666s191.402667 426.666667 426.666667 426.666667 426.666667-191.402667 426.666667-426.666667c0-55.552-10.538667-109.639111-31.317334-160.739555a42.709333 42.709333 0 0 0-55.608889-23.438223 42.695111 42.695111 0 0 0-23.452444 55.608889A339.256889 339.256889 0 0 1 853.333333 384.014222c0 188.202667-153.130667 341.333333-341.333333 341.333334s-341.333333-153.130667-341.333333-341.333334 153.130667-341.333333 341.333333-341.333333c53.333333 0 104.391111 11.946667 151.736889 35.484444a42.666667 42.666667 0 0 0 38.001778-76.416A422.684444 422.684444 0 0 0 512-42.652444M512 526.236444c-78.421333 0-142.222222-63.800889-142.222222-142.222222s63.800889-142.222222 142.222222-142.222222a142.222222 142.222222 0 0 1 142.222222 142.222222c0 78.421333-63.800889 142.222222-142.222222 142.222222m0-369.777777c-125.468444 0-227.555556 102.087111-227.555556 227.555555s102.087111 227.555556 227.555556 227.555556 227.555556-102.087111 227.555556-227.555556a227.498667 227.498667 0 0 0-227.555556-227.555555M765.368889 113.208889c-7.822222 0-15.431111 0.768-22.755556 2.275555C689.749333 126.407111 654.222222 173.511111 654.222222 232.675556V568.903111a42.666667 42.666667 0 1 0 85.333334 0v-336.213333c0-10.993778 2.631111-29.980444 20.337777-33.649778 19.569778-3.982222 49.322667 12.202667 68.750223 57.230222a42.680889 42.680889 0 0 0 78.364444-33.806222c-33.393778-77.312-91.562667-109.269333-141.653333-109.269333"  horiz-adv-x="1024" />
      
      <glyph glyph-name="app" unicode="&#59004;" d="M484.906667 467.413333v-89.173333h63.36c19.2 0 33.28 3.626667 42.026666 10.666667 8.746667 7.466667 13.226667 18.773333 13.226667 34.133333 0 16-4.48 27.093333-13.44 33.493333-8.746667 7.04-22.613333 10.666667-41.6 10.666667h-63.573333zM300.373333 458.88l-42.453333-115.2h85.76l-42.026667 115.2zM853.333333 597.333333h-62.72V725.333333c0 47.146667-38.186667 85.333333-85.333333 85.333334h-384c-47.146667 0-85.333333-38.186667-85.333333-85.333334v-128H170.666667c-47.146667 0-85.333333-38.186667-85.333334-85.333333v-277.333333c0-47.146667 38.186667-85.333333 85.333334-85.333334h65.28v-106.666666c0-47.146667 38.186667-85.333333 85.333333-85.333334h384c47.146667 0 85.333333 38.186667 85.333333 85.333334v106.666666H853.333333c47.146667 0 85.333333 38.186667 85.333334 85.333334V512c0 47.146667-38.186667 85.333333-85.333334 85.333333zM310.613333 699.093333c0 22.4 17.493333 40.533333 39.253334 40.533334h326.826666c21.76 0 39.253333-18.133333 39.253334-40.533334V597.333333h-405.333334V699.093333z m331.733334-275.84c0-52.053333-30.506667-78.08-91.52-78.08h-65.92v-98.986666h-38.826667V500.48h105.386667c60.586667 0 90.88-25.813333 90.88-77.226667z m-420.053334-177.066666H180.906667l97.92 254.293333h44.16l97.92-254.293333h-41.6l-23.893334 65.493333h-109.44l-23.68-65.493333zM566.613333 0h-106.666666c-11.733333 0-21.333333 9.6-21.333334 21.333333s9.6 21.333333 21.333334 21.333334h106.666666c11.733333 0 21.333333-9.6 21.333334-21.333334s-9.6-21.333333-21.333334-21.333333z m149.333334 104.533333c0-22.4-17.493333-40.533333-39.253334-40.533333H349.866667c-21.76 0-39.253333 18.133333-39.253334 40.533333V149.33333300000004h405.333334v-44.8z m67.2 240.64h-65.92v-98.986666H678.4V500.48h105.386667c60.586667 0 90.88-25.813333 90.88-77.226667 0-52.053333-30.506667-78.08-91.52-78.08zM822.186667 456.746667c-8.746667 7.04-22.613333 10.666667-41.6 10.666666h-63.36v-89.173333h63.36c19.2 0 33.28 3.626667 42.026666 10.666667 8.746667 7.466667 13.226667 18.773333 13.226667 34.133333 0 16-4.48 27.306667-13.653333 33.706667z"  horiz-adv-x="1024" />
      
      <glyph glyph-name="shezhi" unicode="&#58912;" d="M510.37806 558.196391c-98.010221 0-177.748287-78.842673-177.748287-175.75284 0-96.91426 79.738066-175.763073 177.748287-175.763073 9.537214 0 19.620873 0.978281 31.797194 3.088338 18.196431 3.281743 30.290887 20.538779 26.963095 38.471197-2.924609 15.732309-16.693194 27.152407-32.747845 27.152407-2.071172 0-4.15974-0.196475-6.123464-0.563842-7.937786-1.402953-14.233166-2.056845-19.807115-2.056845-61.159942 0-110.915136 49.201585-110.915136 109.671819 0 60.467163 49.679469 109.661585 110.747313 109.661585 61.116963 0 110.832248-49.194422 110.832248-109.661585 0-5.892197-0.656963-12.0832-2.088568-19.531845-3.327792-17.928325 8.769734-35.189454 26.959002-38.464033 2.006703-0.360204 4.045129-0.546446 6.070252-0.546446 16.204054 0 30.019711 11.43033 32.832779 27.116591 2.13871 11.45182 3.13848 21.435195 3.13848 31.41857 0.042979 46.873564-18.435884 90.990341-52.033074 124.223233C602.407056 539.893536 557.790906 558.196391 510.37806 558.196391zM938.476161 463.20083c-2.185782 11.426237-11.037381 20.499893-22.563902 23.12058-41.909505 9.508561-76.781734 34.929534-98.185206 71.550593-21.334911 36.560684-26.191522 79.099523-13.68979 119.709429 3.52836 11.123338 0.007163 23.235191-8.951883 30.840402-41.860387 35.721573-89.536222 62.938448-141.695163 80.885192-3.152806 1.088798-6.437619 1.639337-9.776667 1.639337-8.256034 0-16.182564-3.431146-21.724791-9.376555-29.236881-31.04404-68.840878-48.140417-111.5107-48.140417-42.673915 0-82.305541 17.125029-111.607914 48.230468-7.877411 8.333806-20.510126 11.512195-31.580253 7.726985-52.483328-18.171871-100.131535-45.416376-141.640927-80.988546-8.815783-7.591909-12.322653-19.620873-8.934486-30.67258 12.586666-40.645722 7.759731-83.180468-13.597693-119.78106-21.306258-36.5965-56.149834-62.006216-98.17395-71.561849-11.540847-2.709715-20.396539-11.812023-22.559808-23.166629-5.228071-27.169803-7.877411-54.346769-7.877411-80.770582 0-26.426883 2.64934-53.603849 7.873318-80.763418 2.174526-11.411911 11.023054-20.488637 22.552645-23.12058 41.913599-9.512654 76.785827-34.922371 98.19237-71.547523 21.349237-36.59343 26.177196-79.128175 13.583366-119.795387-3.363607-10.969842 0.121773-23.013133 8.973372-30.758538 41.84913-35.707246 89.494267-62.920028 141.662417-80.902588 11.466146-3.885494 23.738657-0.549515 31.454386 7.680936 29.29828 31.091112 68.925812 48.216141 111.593588 48.216141s82.302471-17.125029 111.560842-48.183396c5.556553-5.955642 13.494339-9.380648 21.782096-9.380648 3.27765 0 6.537903 0.520863 9.829879 1.599428 52.126194 17.968234 99.774401 45.184085 141.652184 80.912821 8.791224 7.577582 12.308327 19.628036 8.94165 30.758538-12.597923 40.678468-7.745405 83.20605 13.672394 119.773897 21.324678 36.625152 56.192813 62.030775 98.19237 71.547523 11.390421 2.592035 20.23588 11.633968 22.549575 23.106254 5.223978 27.184129 7.870248 54.358025 7.870248 80.770582C946.342316 408.828478 943.697069 436.034097 938.476161 463.20083zM728.572524 106.121202c-26.02677-20.157085-54.736649-36.553521-85.487-48.818869-36.682457 32.144094-83.60207 49.779753-132.792399 49.779753-48.926316 0-95.838765-17.635659-132.767839-49.786916-30.744211 12.262278-59.45716 28.655643-85.491093 48.812729 9.894348 47.441499 1.889023 96.449679-22.763446 138.627291-24.448832 41.966811-63.427588 73.339332-110.186542 88.840374-2.381234 16.343223-3.584642 32.758078-3.584642 48.869011 0 16.043395 1.203408 32.451086 3.584642 48.851615 46.612621 15.389502 85.584214 46.758953 110.186542 88.850607 24.523533 42.024116 32.525788 91.033319 22.74912 138.620128 26.0237 20.149922 54.735625 36.543288 85.494163 48.815799 36.821627-32.201399 83.73817-49.861618 132.778072-49.861618 49.194422 0 96.109941 17.635659 132.792399 49.779753 30.751375-12.269441 59.45716-28.662807 85.48086-48.812729-9.809413-47.63388-1.835811-96.634898 22.667256-138.620128 24.445762-41.966811 63.416332-73.343425 110.182448-88.850607 2.381234-16.386202 3.584642-32.801057 3.584642-48.940642 0.143263-15.443737-1.031493-31.797194-3.499707-48.701189-46.763047-15.504112-85.73771-46.873564-110.186542-88.836281C726.84416 202.810335 718.845998 153.809317 728.572524 106.121202z"  horiz-adv-x="1024" />
      
      <glyph glyph-name="addqunzu" unicode="&#58913;" d="M880.3 183h-104V287c0 17.6-14.4 32-32 32s-32-14.4-32-32v-104h-104c-17.6 0-32-14.4-32-32s14.4-32 32-32h104v-104c0-17.6 14.4-32 32-32s32 14.4 32 32V119h104c17.6 0 32 14.4 32 32s-14.4 32-32 32zM504.4 782.9c-122.3-4-221.6-104.6-224.1-227-1.7-80.9 38.1-152.6 99.5-195.4-145.3-51-252.3-183.4-266.1-342.6-1.6-18.8 13-35 31.9-35 16.8 0 30.4 12.9 31.9 29.6 15 170.5 157.8 304.8 331.7 306.4 128.5 1.1 235.1 103.7 235 232.2 0 130.8-108.1 236.1-239.8 231.8z m7.9-399.9c-92.6 0-168 75.4-168 168s75.4 168 168 168 168-75.4 168-168-75.4-168-168-168z"  horiz-adv-x="1024" />
      
      <glyph glyph-name="fasong" unicode="&#59069;" d="M357.285 810c41.5 0 77.11-25.2 92.347-61.126V752.5h260.02c81.791 0 148.269-65.52 149.59-146.87l0.02-2.47 0.002-6.747C898.87 576.274 926 535.153 926 487.699V92.39999999999998c0-73.675-59.759-133.4-133.475-133.4h-619.05C99.76-41 40 18.725000000000023 40 92.39999999999998V672c0 76.215 61.82 138 138.078 138h179.207z m0.759-59.8H178.078c-42.781 0-77.543-34.315-78.234-76.907l-0.01-1.293v-579.6c0-40.242 32.314-72.94 72.424-73.59l1.217-0.01h619.05c40.264 0 72.981 32.296 73.631 72.383l0.01 1.217V487.7c0 33.953-27.265 61.542-61.107 62.09l-1.028 0.01H554.196c-85.562 0-155.085 68.628-156.467 153.813l-0.021 2.586v3.6c0 22.06-17.69 39.99-39.664 40.401z m155.332-301.584c13.827 13.623 36.03 13.623 49.858 0l141.784-139.693 0.387-0.388c6.526-6.633 9.828-15.263 9.892-23.917v-0.845c-0.065-8.824-3.497-17.623-10.28-24.306L563.235 119.77499999999998c-13.828-13.624-36.03-13.624-49.858 0a34.49 34.49 0 0 0-0.363 0.362c-13.364 13.565-13.202 35.396 0.363 48.76l89.258 87.941h-320.23c-16.523 0-29.917 13.395-29.917 29.917 0 16.523 13.394 29.917 29.917 29.917h315.033l-84.061 82.821-0.403 0.403c-13.164 13.398-13.19 34.928 0.04 48.357 0.12 0.122 0.241 0.243 0.363 0.363zM709.653 692.7l-251.175-0.001c6.57-46.96 46.921-83.1 95.718-83.1H799.2c-3.275 45.952-41.319 82.333-88.062 83.089l-1.485 0.012z"  horiz-adv-x="1024" />
      
      <glyph glyph-name="qunzu" unicode="&#58995;" d="M575.457882 388.487529c59.226353 23.476706 101.285647 81.212235 101.285647 148.690824 0 88.229647-71.785412 160-160.015058 160s-160-71.770353-160-160c0-67.478588 42.044235-125.214118 101.270588-148.690824-131.689412-27.226353-231.002353-144.097882-231.002353-283.738353 0-33.957647 23.823059-45.206588 42.962823-54.241882l1.099295-0.451765c77.176471-27.241412 188.792471-34.499765 242.582588-34.499764 58.654118 0 173.477647 9.517176 249.735529 35.855059 28.581647 10.962824 43.083294 28.912941 43.083294 53.338352 0 139.655529-99.312941 256.527059-231.002353 283.738353zM382.780235 401.965176c-37.903059 35.343059-61.741176 85.564235-61.741176 141.477648 0 68.472471 35.644235 128.512 89.283765 162.93647v0.015059c-0.331294 0.466824-0.813176 0.737882-1.189648 1.129412-0.391529 0.421647-0.632471 0.948706-1.099294 1.325176a160.301176 160.301176 0 0 1-100.141176 35.312941c-88.229647 0-160.015059-71.770353-160.015059-160 0-67.478588 42.059294-125.214118 101.285647-148.690823C117.458824 408.244706 18.160941 291.37317599999994 18.160941 151.732706c0-24.440471 14.501647-42.375529 43.459765-53.488941 42.887529-14.817882 96.105412-23.356235 134.128941-27.994353a322.409412 322.409412 0 0 0-2.409412 38.731294c0 130.439529 77.778824 242.642824 189.44 292.98447zM786.808471 435.456c59.226353 23.476706 101.285647 81.212235 101.285647 148.690824 0 88.229647-71.785412 160-160.015059 160-36.939294 0-73.005176-12.905412-101.51153-36.321883l-4.246588-3.478588a193.400471 193.400471 0 0 0 85.940706-160.903529c0-55.913412-23.838118-106.134588-61.741176-141.477648 111.661176-50.341647 189.44-162.544941 189.44-292.98447 0-13.402353-0.918588-26.578824-2.499765-39.544471l0.798118 0.090353c39.137882 4.547765 95.216941 13.206588 140.483764 28.852706 28.581647 10.962824 43.083294 28.912941 43.083294 53.338353 0 139.655529-99.312941 256.527059-231.017411 283.738353z"  horiz-adv-x="1024" />
      
      <glyph glyph-name="xiaoxi" unicode="&#59020;" d="M512-21.33333300000004a308.458667 308.458667 0 0 0-86.058667 9.152c-59.349333 17.301333-177.642667 4.373333-272.576-14.485334 0 0-8.192-1.344-8.704-1.344a42.282667 42.282667 0 0 0-41.408 52.522667c20.245333 91.733333 28.053333 200.746667 12.330667 274.581333A405.333333 405.333333 0 1 0 512-21.33333300000004z m-172.992 277.333333h213.333333a32 32 0 1 1 0 64h-213.333333a32 32 0 0 1 0-64z m341.333333 234.666667h-341.333333a32 32 0 0 1 0-64h341.333333a32 32 0 1 1 0 64z"  horiz-adv-x="1024" />
      
      <glyph glyph-name="gongzuotai" unicode="&#59021;" d="M910.762667 526.336l-135.765334-135.765333a85.333333 85.333333 0 0 0-120.661333 0l-135.765333 135.765333a85.333333 85.333333 0 0 0 0 120.661333l135.765333 135.765334a85.333333 85.333333 0 0 0 120.661333 0l135.765334-135.765334a85.333333 85.333333 0 0 0 0-120.661333zM362.666667-42.66666699999996H170.666667a85.333333 85.333333 0 0 0-85.333334 85.333334v192a85.333333 85.333333 0 0 0 85.333334 85.333333h192a85.333333 85.333333 0 0 0 85.333333-85.333333v-192a85.333333 85.333333 0 0 0-85.333333-85.333334z m0 448H170.666667a85.333333 85.333333 0 0 0-85.333334 85.333334v192a85.333333 85.333333 0 0 0 85.333334 85.333333h192a85.333333 85.333333 0 0 0 85.333333-85.333333v-192a85.333333 85.333333 0 0 0-85.333333-85.333334z m256-85.333333h192a85.333333 85.333333 0 0 0 85.333333-85.333333v-192a85.333333 85.333333 0 0 0-85.333333-85.333334h-192a85.333333 85.333333 0 0 0-85.333334 85.333334v192a85.333333 85.333333 0 0 0 85.333334 85.333333z"  horiz-adv-x="1024" />
      
      <glyph glyph-name="member" unicode="&#59134;" d="M102.5 262.6h61.7c21.3 0 38.5 17.2 38.5 38.5s-17.2 38.5-38.5 38.5h-61.7c-21.3 0-38.5-17.2-38.5-38.5-0.1-21.3 17.2-38.5 38.5-38.5zM102.5 594h61.7c21.3 0 38.5 17.2 38.5 38.5S185.5 671 164.2 671h-61.7C81.2 671 64 653.8 64 632.5c-0.1-21.2 17.2-38.5 38.5-38.5zM202.7 135.29999999999995c0 21.3-17.2 38.5-38.5 38.5h-61.7c-21.3 0-38.5-17.2-38.5-38.5s17.2-38.5 38.5-38.5h61.7c21.2 0 38.5 17.3 38.5 38.5zM102.5 428.3h61.7c21.3 0 38.5 17.2 38.5 38.5s-17.2 38.5-38.5 38.5h-61.7C81.2 505.3 64 488 64 466.8c-0.1-21.3 17.2-38.5 38.5-38.5zM806.5 819.5l-606.4 0.2c-43.5 0-79.1-35.6-79.1-79.1v-45.9h43.3c34.1 0 61.7-27.6 61.7-61.7s-27.6-61.7-61.7-61.7H121v-42.4h43.3c34.1 0 61.7-27.6 61.7-61.7s-27.6-61.7-61.7-61.7H121v-42.4h43.3c34.1 0 61.7-27.6 61.7-61.7s-27.6-61.7-61.7-61.7H121v-42.4h43.3c34.1 0 61.7-27.6 61.7-61.7s-27.6-61.7-61.7-61.7H121v-46.1c0-43.5 35.5-79.1 79.1-79.1h606.4c43.5 0 79.1 35.5 79.1 79.1V740.4c0 43.5-35.6 79.1-79.1 79.1zM515.6 658.9c60.7 0 110-49.3 110.2-110.2 0-60.9-49.3-110.2-110.2-110.2s-110.2 49.3-110.2 110.2c0 60.9 49.4 110.2 110.2 110.2z m176.7-514.1h-0.3c-3.4-20-80.9-36-176.5-36s-173.2 16-176.5 36h-0.4V251.89999999999998c0 78.1 49.3 144.4 117.9 169.1l59-78.5 58.9 78.5c68.7-24.6 117.9-90.9 117.9-169.1v-107.1zM943.7 737.5h-27.1c-8.9 0-16.3-7.4-16.3-16.3v-95.1c0 8.9 7.4 16.3 16.3 16.3h27.1c8.9 0 16.3-7.4 16.3-16.3v95.1c0 8.9-7.4 16.3-16.3 16.3zM943.7 618h-27.1c-8.9 0-16.3-7.4-16.3-16.3v-95.1c0 8.9 7.4 16.3 16.3 16.3h27.1c8.9 0 16.3-7.4 16.3-16.3v95.1c0 9-7.4 16.3-16.3 16.3zM943.7 502.7h-27.1c-8.9 0-16.3-7.4-16.3-16.3v-103.2c0-8.9 7.4-16.3 16.3-16.3h27.1c8.9 0 16.3 7.4 16.3 16.3V486.4c0 8.9-7.4 16.3-16.3 16.3z"  horiz-adv-x="1024" />
      
      <glyph glyph-name="zuixiaohua" unicode="&#58960;" d="M863.7 343.5H160.3c-10.6 0-19.2 8.6-19.2 19.2v41.7c0 10.6 8.6 19.2 19.2 19.2h703.3c10.6 0 19.2-8.6 19.2-19.2v-41.7c0-10.6-8.5-19.2-19.1-19.2z"  horiz-adv-x="1024" />
      
      <glyph glyph-name="zuidahua" unicode="&#58964;" d="M770.9-27.3H253.1c-83.8 0-151.9 68.2-151.9 151.9V642.4c0 83.8 68.2 151.9 151.9 151.9h517.8c83.8 0 151.9-68.2 151.9-151.9v-517.8c0-83.8-68.1-151.9-151.9-151.9zM253.1 714.3c-39.7 0-71.9-32.3-71.9-71.9v-517.8c0-39.7 32.3-71.9 71.9-71.9h517.8c39.7 0 71.9 32.3 71.9 71.9V642.4c0 39.7-32.3 71.9-71.9 71.9H253.1z"  horiz-adv-x="1024" />
      
      <glyph glyph-name="biaoqing" unicode="&#58894;" d="M512 896C229.2 896 0 666.8 0 384s229.2-512 512-512 512 229.2 512 512S794.8 896 512 896z m0-960C265-64 64 137 64 384S265 832 512 832s448-201 448-448-201-448-448-448zM320 490.7m-64 0a64 64 0 1 1 128 0 64 64 0 1 1-128 0ZM704 490.7m-64 0a64 64 0 1 1 128 0 64 64 0 1 1-128 0ZM512 85.3c117.8 0 213.3 95.5 213.3 213.3H298.7c0-117.8 95.5-213.3 213.3-213.3z"  horiz-adv-x="1024" />
      
      <glyph glyph-name="record" unicode="&#58944;" d="M695.04 701.6800000000001H98.08c-18.32 0-33.16 14.85-33.16 33.16 0 18.32 14.85 33.16 33.16 33.16h596.96c18.32 0 33.16-14.85 33.16-33.16 0-18.31-14.84-33.16-33.16-33.16zM298.97 502.7H96.19c-17.27 0-31.27 14-31.27 31.27v3.79c0 17.27 14 31.27 31.27 31.27h202.78c17.27 0 31.27-14 31.27-31.27v-3.79c-0.01-17.28-14.01-31.27-31.27-31.27zM230.74 303.71000000000004H98.08c-18.32 0-33.16 14.85-33.16 33.16 0 18.32 14.85 33.16 33.16 33.16h132.66c18.32 0 33.16-14.85 33.16-33.16 0.01-18.31-14.84-33.16-33.16-33.16zM230.74 104.72000000000003H98.08c-18.32 0-33.16 14.85-33.16 33.16 0 18.32 14.85 33.16 33.16 33.16h132.66c18.32 0 33.16-14.85 33.16-33.16 0.01-18.31-14.84-33.16-33.16-33.16zM728.2 204.22000000000003H595.55c-18.32 0-33.16 14.85-33.16 33.16 0 18.32 14.85 33.16 33.16 33.16H728.2c18.32 0 33.16-14.85 33.16-33.16 0.01-18.31-14.84-33.16-33.16-33.16zM562.38 237.38V370.03999999999996c0 18.32 14.85 33.16 33.16 33.16 18.32 0 33.16-14.85 33.16-33.16v-132.66c0-18.32-14.85-33.16-33.16-33.16-18.31 0-33.16 14.85-33.16 33.16zM960.35 270.54999999999995c0-183.16-148.48-331.64-331.64-331.64S297.07 87.38 297.07 270.54999999999995s148.48 331.64 331.64 331.64 331.64-148.48 331.64-331.64zM628.71 535.86c-146.53 0-265.31-118.79-265.31-265.31s118.79-265.31 265.31-265.31 265.31 118.79 265.31 265.31-118.78 265.31-265.31 265.31z"  horiz-adv-x="1024" />
      
      <glyph glyph-name="time" unicode="&#58903;" d="M512 896a512 512 0 1 1 512-512A512.525 512.525 0 0 1 512 896z m0-945.23A433.23 433.23 0 1 0 945.23 384 433.756 433.756 0 0 0 512-49.23000000000002zM551.385 400.279V646.564a39.385 39.385 0 0 1-78.77 0v-278.843l116.579-116.578a39.385 39.385 0 0 1 55.663 0 39.385 39.385 0 0 1 0 55.663z"  horiz-adv-x="1024" />
      
      <glyph glyph-name="jpg" unicode="&#58925;" d="M935.563636 798.254545H88.436364C39.563636 798.254545 0 758.690909 0 707.490909V58.18181800000002c0-48.872727 39.563636-88.436364 88.436364-88.436363h844.8c48.872727 0 88.436364 39.563636 88.436363 88.436363V707.490909c2.327273 51.2-37.236364 90.763636-86.109091 90.763636zM88.436364 721.454545h844.8c6.981818 0 11.636364-4.654545 11.636363-11.636363v-456.145455L721.454545 514.327273 477.090909 202.47272699999996s-188.509091 153.6-195.490909 153.6c-6.981818 0-139.636364-186.181818-204.8-276.945454v628.363636c0 6.981818 4.654545 13.963636 11.636364 13.963636zM249.018182 553.890909m-62.836364 0a62.836364 62.836364 0 1 1 125.672727 0 62.836364 62.836364 0 1 1-125.672727 0Z"  horiz-adv-x="1024" />
      
      <glyph glyph-name="wenjian" unicode="&#58905;" d="M893.72 304.24a33.66 33.56 0 1 1 67.32 0 33.66 33.56 0 1 1-67.32 0ZM927.38 210a33.65 33.65 0 0 1-33.66-33.57v-80.61a62.5 62.5 0 0 0-62.43-62.43H192.71a62.5 62.5 0 0 0-62.43 62.43V670.9300000000001a62.5 62.5 0 0 0 62.43 62.43h221.38L496.27 591a33.64 33.64 0 0 1 32.85-16.54h302.07A62.49 62.49 0 0 0 893.62 512v-79.9a33.67 33.67 0 0 1 67.33 0 21 21 0 0 1-0.1 2.48v77.33A129.39 129.39 0 0 1 877 633a125.5 125.5 0 0 1-125.32 125.33H477l-14.35 24.92c-6.29 11-15.89 16.74-27.8 16.74h-0.16l-0.09 0.1H192.31A129.51 129.51 0 0 1 63 670.73v-573.46a129.51 129.51 0 0 1 129.31-129.36h639.28A129.51 129.51 0 0 1 961 97.26999999999998V174a21 21 0 0 1 0.1 2.48A33.66 33.66 0 0 1 927.38 210zM515.55 691.6h231.14a62.27 62.27 0 0 0 61.23-50.34H544.58z"  horiz-adv-x="1024" />
      
      <glyph glyph-name="caijian" unicode="&#59002;" d="M826.7 211.53999999999996c20.76-13.21 37.43-30.83 50.01-52.84 12.58-22.02 18.87-46.24 18.87-72.66 0-20.76-3.93-40.1-11.8-58.03-7.86-17.93-18.56-33.5-32.08-46.71-13.53-13.21-29.25-23.75-47.18-31.61-17.93-7.86-37.27-11.8-58.03-11.8-26.42 0-50.48 6.29-72.19 18.87-21.7 12.58-39.16 28.94-52.37 49.07a52.81 52.81 0 0 0-6.61 8.02c-1.89 2.83-4.4 5.82-7.55 8.96-10.07 13.84-16.36 30.83-18.87 50.96-2.52 20.13-3.46 41.05-2.83 62.75 0.63 21.7 1.26 43.09 1.89 64.17 0.63 21.07-0.94 39.79-4.72 56.15-6.92 12.58-14.78 26.26-23.59 41.05-8.81 14.78-18.56 29.72-29.25 44.82-1.89 2.52-3.62 4.72-5.19 6.61s-2.99 3.77-4.25 5.66a2106.96 2106.96 0 0 1-34.91-43.41 4125.038 4125.038 0 0 1-34.91-45.29c-3.15-3.77-5.82-7.55-8.02-11.32-2.2-3.77-4.88-7.55-8.02-11.32-5.66-11.95-8.49-22.33-8.49-31.14s1.1-17.46 3.3-25.95 4.72-17.14 7.55-25.95c2.83-8.81 4.4-19.03 4.72-30.67 0.31-11.64-1.26-25.32-4.72-41.05s-10.22-34.6-20.29-56.62c-10.69-28.31-28.62-51.43-53.79-69.36-25.17-17.94-53.79-26.9-85.87-26.9-20.76 0-40.1 3.93-58.03 11.8-17.93 7.86-33.66 18.56-47.18 32.08-13.53 13.53-24.22 29.25-32.08 47.18s-11.8 37.27-11.8 58.03c0 22.65 4.72 43.72 14.15 63.22 9.44 19.5 22.33 36.17 38.69 50.01 15.73 16.36 32.24 30.04 49.54 41.05 17.3 11.01 34.44 21.23 51.43 30.67 16.99 9.44 33.18 18.87 48.6 28.31 15.41 9.44 28.78 20.76 40.1 33.97 2.52 3.15 4.88 6.29 7.08 9.44 2.2 3.15 4.56 6.29 7.08 9.44l0.94 0.94c2.52 5.03 5.98 9.75 10.38 14.15 8.81 11.32 17.61 23.12 26.42 35.39 8.81 12.27 17.93 24.69 27.37 37.27-16.36 16.99-30.35 30.83-41.99 41.52-11.64 10.69-22.8 23.28-33.5 37.75-22.02 28.94-40.58 59.13-55.67 90.59s-26.74 61.34-34.91 89.65-12.42 53.63-12.74 75.96 3.62 38.85 11.8 49.54c4.4 3.15 10.69 5.5 18.87 7.08 8.18 1.57 14.78-1.42 19.82-8.96 11.32-16.99 24.22-36.49 38.69-58.51s30.2-45.77 47.18-71.24 34.6-52.06 52.84-79.74c18.24-27.68 36.49-55.05 54.73-82.1 3.77 5.03 7.39 10.22 10.85 15.57s7.08 10.54 10.85 15.57c16.99 24.53 33.34 49.86 49.07 75.96s30.35 51.11 43.88 75.02 25.48 45.45 35.86 64.64c10.38 19.19 18.4 33.81 24.06 43.88 4.4 6.92 11.95 10.54 22.65 10.85 10.69 0.31 19.82-2.99 27.37-9.91 3.77-3.77 7.08-14.63 9.91-32.56s1.89-41.05-2.83-69.36-14.78-60.86-30.2-97.67c-15.41-36.8-39.48-75.96-72.19-117.48l-30.2-37.75a1691.558 1691.558 0 0 0-31.14-37.75c14.47-22.02 28.15-42.78 41.05-62.28 12.9-19.5 24.69-37.12 35.39-52.84 15.73-16.36 31.61-29.25 47.65-38.69 16.04-9.44 31.3-17.46 45.77-24.06 14.47-6.61 27.99-12.74 40.58-18.4 12.56-5.65 23.57-12.88 33-21.69zM276.56 17.149999999999977c20.13 0 37.27 7.23 51.43 21.7 14.15 14.47 21.23 31.77 21.23 51.9s-7.08 37.43-21.23 51.9c-14.15 14.47-31.3 21.7-51.43 21.7s-37.43-7.23-51.9-21.7c-14.47-14.47-21.7-31.77-21.7-51.9s7.23-37.43 21.7-51.9 31.77-21.7 51.9-21.7z m468.99 0c20.13 0 37.27 7.08 51.43 21.23 14.15 14.15 21.23 31.3 21.23 51.43s-7.08 37.43-21.23 51.9c-14.15 14.47-31.3 21.7-51.43 21.7s-37.43-7.23-51.9-21.7c-14.47-14.47-21.7-31.77-21.7-51.9 0-10.07 1.89-19.5 5.66-28.31 3.77-8.81 8.96-16.51 15.57-23.12 6.61-6.61 14.47-11.8 23.59-15.57 9.12-3.77 18.71-5.66 28.78-5.66z"  horiz-adv-x="1024" />
      
      <glyph glyph-name="download" unicode="&#58900;" d="M188.3 166.60000000000002h644.8c18.4 0 33.3-14.9 33.3-33.3S851.5 100 833.1 100H188.3c-18.4 0-33.3 14.9-33.3 33.3s14.9 33.3 33.3 33.3z m389.1 300.3h124.2c5.9 0 11.6-2.3 15.7-6.5 8.7-8.7 8.7-22.8 0-31.4L526.4 238.10000000000002c-8.7-8.7-22.8-8.7-31.4 0L304.1 429c-4.2 4.2-6.5 9.8-6.5 15.7 0 12.3 10 22.2 22.2 22.2H444V744.7c0 36.8 29.9 66.7 66.7 66.7s66.7-29.9 66.7-66.7v-277.8z"  horiz-adv-x="1024" />
      
      <glyph glyph-name="ok" unicode="&#58962;" d="M510.567403 832.147097c-246.304387 0-446.663336-200.358949-446.663336-446.663336 0-246.304387 200.358949-446.663336 446.663336-446.663336 246.304387 0 446.765664 200.358949 446.765664 446.663336C957.230738 631.788148 756.87179 832.147097 510.567403 832.147097L510.567403 832.147097zM787.979614 509.915059L454.593784 176.42690100000004c-7.981613-7.981613-20.977316-7.981613-28.958929 0l-43.694214 43.694214c0 0 0 0 0 0L237.145998 364.915759c-7.981613 7.981613-7.981613 20.977316 0 28.958929l43.694214 43.694214c7.981613 7.981613 20.977316 7.981613 28.958929 0L440.063156 307.40721499999995 715.326471 582.670531c7.981613 7.981613 20.977316 7.981613 29.061257 0L787.979614 538.873988C796.063556 530.892375 796.063556 517.8966720000001 787.979614 509.915059L787.979614 509.915059z"  horiz-adv-x="1024" />
      
      <glyph glyph-name="caigou" unicode="&#59006;" d="M719.04 216.01999999999998v-53.28h87.58c8.28 0 15-6.72 15-15s-6.72-15-15-15h-87.58v-68.84c0-8.28-6.72-15-15-15s-15 6.72-15 15v68.84h-87.58c-8.28 0-15 6.72-15 15s6.72 15 15 15h87.58v53.28h-87.58c-8.28 0-15 6.72-15 15s6.72 15 15 15h82.64l-63.7 63.7c-5.86 5.86-5.86 15.36 0 21.21 5.86 5.86 15.36 5.86 21.21 0l62.48-62.48 62.38 62.38c5.86 5.86 15.36 5.86 21.21 0 5.86-5.86 5.86-15.36 0-21.21l-63.6-63.6h82.54c8.28 0 15-6.72 15-15s-6.72-15-15-15h-87.58z m227.18-23.9c0-64.69-25.19-125.51-70.93-171.25s-106.56-70.93-171.25-70.93-125.51 25.19-171.25 70.93c-45.74 45.74-70.93 106.56-70.93 171.25s25.19 125.51 70.93 171.25c45.74 45.74 106.56 70.93 171.25 70.93s125.51-25.19 171.25-70.93c45.74-45.74 70.93-106.56 70.93-171.25z m-30 0c0 117-95.18 212.18-212.18 212.18s-212.18-95.18-212.18-212.18 95.18-212.18 212.18-212.18 212.18 95.18 212.18 212.18z m-482.2-144.08H130.66c-19.3 0-35 15.7-35 35v682.3c0 19.3 15.7 35 35 35h700.68c19.3 0 35-15.7 35-35v-317.55c0-8.28 6.72-15 15-15s15 6.72 15 15V765.34c0 35.84-29.16 65-65 65H130.66c-35.84 0-65-29.16-65-65v-682.3c0-35.84 29.16-65 65-65h303.36c8.28 0 15 6.72 15 15s-6.72 15-15 15zM802.7 595.5699999999999H159.3c-8.28 0-15 6.72-15 15V742.3199999999999c0 8.28 6.72 15 15 15h643.4c8.28 0 15-6.72 15-15v-131.74c0-8.28-6.72-15-15-15z m-15 131.74H174.3v-101.74h613.4V727.31zM438.3 394.57c0-8.28-6.72-15-15-15h-264c-8.28 0-15 6.72-15 15V526.31c0 8.28 6.72 15 15 15h264c8.28 0 15-6.72 15-15v-131.74z m-30 116.74h-234v-101.74h234V511.31z m399.07-52.09c8.28 0 15 6.72 15 15v52.09c0 8.28-6.72 15-15 15h-264c-8.28 0-15-6.72-15-15v-84.26c0-8.28 6.72-15 15-15s15 6.72 15 15v69.26h234v-37.09c0-8.28 6.72-15 15-15zM438.3 296.88v-131.74c0-8.28-6.72-15-15-15h-264c-8.28 0-15 6.72-15 15V296.88c0 8.28 6.72 15 15 15h264c8.28 0 15-6.72 15-15z m-30-15h-234v-101.74h234V281.88z"  horiz-adv-x="1024" />
      
      <glyph glyph-name="chengben" unicode="&#59007;" d="M719.04 216.01999999999998v-53.28h87.58c8.28 0 15-6.72 15-15s-6.72-15-15-15h-87.58v-68.84c0-8.28-6.72-15-15-15s-15 6.72-15 15v68.84h-87.58c-8.28 0-15 6.72-15 15s6.72 15 15 15h87.58v53.28h-87.58c-8.28 0-15 6.72-15 15s6.72 15 15 15h82.64l-63.7 63.7c-5.86 5.86-5.86 15.36 0 21.21 5.86 5.86 15.36 5.86 21.21 0l62.48-62.48 62.38 62.38c5.86 5.86 15.36 5.86 21.21 0 5.86-5.86 5.86-15.36 0-21.21l-63.6-63.6h82.54c8.28 0 15-6.72 15-15s-6.72-15-15-15h-87.58z m227.18-23.9c0-64.69-25.19-125.51-70.93-171.25s-106.56-70.93-171.25-70.93-125.51 25.19-171.25 70.93c-17.1 17.1-31.32 36.3-42.43 57.03-1.37-0.3-2.79-0.46-4.25-0.46h-70.13c-11.05 0-20 8.95-20 20s8.95 20 20 20h57.57c-7.69 23.81-11.69 48.94-11.69 74.69 0 6.34 0.25 12.65 0.73 18.9h-46.61c-11.05 0-20 8.95-20 20s8.95 20 20 20h53.05c8.49 34.14 24.38 65.98 46.84 93.59h-99.89c-11.05 0-20 8.95-20 20s8.95 20 20 20h125.28c4.2 0 8.09-1.3 11.31-3.51 42.83 34.47 95.71 53.2 151.47 53.2s106-17.8 148.25-50.64c1.92 0.61 3.96 0.95 6.08 0.95h39.61c11.05 0 20-8.95 20-20s-8.95-20-20-20h-5.77c34.99-43.01 54.02-96.29 54.02-152.49z m-30 0c0 61.03-25.91 116.12-67.3 154.86a19.988 19.988 0 0 0-7.03 6.3c-37.11 31.78-85.27 51.01-137.85 51.01-117 0-212.18-95.18-212.18-212.18s95.18-212.18 212.18-212.18 212.18 95.18 212.18 212.18z m-594.15-74.69H128.02c-11.05 0-20-8.95-20-20s8.95-20 20-20h194.04c11.05 0 20 8.95 20 20s-8.95 20-20 20z m0 133.59H128.02c-11.05 0-20-8.95-20-20s8.95-20 20-20h194.04c11.05 0 20 8.95 20 20s-8.95 20-20 20z m0 133.59H128.02c-11.05 0-20-8.95-20-20s8.95-20 20-20h194.04c11.05 0 20 8.95 20 20s-8.95 20-20 20z m0 133.59H128.02c-11.05 0-20-8.95-20-20s8.95-20 20-20h194.04c11.05 0 20 8.95 20 20s-8.95 20-20 20z m93.91-40h194.04c11.05 0 20 8.95 20 20s-8.95 20-20 20H415.98c-11.05 0-20-8.95-20-20s8.95-20 20-20z m0 133.59h194.04c11.05 0 20 8.95 20 20s-8.95 20-20 20H415.98c-11.05 0-20-8.95-20-20s8.95-20 20-20z m0 133.59h194.04c11.05 0 20 8.95 20 20s-8.95 20-20 20H415.98c-11.05 0-20-8.95-20-20s8.95-20 20-20zM703.93 478.2h194.04c11.05 0 20 8.95 20 20s-8.95 20-20 20H703.93c-11.05 0-20-8.95-20-20s8.95-20 20-20z m0 133.59h194.04c11.05 0 20 8.95 20 20s-8.95 20-20 20H703.93c-11.05 0-20-8.95-20-20s8.95-20 20-20z"  horiz-adv-x="1024" />
      
      <glyph glyph-name="huishou" unicode="&#58957;" d="M512 842.666667c126.997333 0 232.469333-88.32 244.245333-202.666667H896a32 32 0 0 0 3.072-63.850667L896 576h-54.592l-34.986667-564.906667c-2.133333-35.2-31.082667-62.421333-66.218666-64.32l-3.946667-0.106666H287.744c-35.584 0-65.728 25.962667-69.802667 60.501333l-0.341333 3.861333L182.570667 576H128a32 32 0 0 0-3.072 63.850667L128 640h139.754667C279.530667 754.346667 385.002667 842.666667 512 842.666667zM777.258667 576H246.72l34.773333-561.066667c0.085333-1.706667 1.813333-3.541333 4.522667-4.096l1.706667-0.170666h448.533333c3.072 0 5.290667 1.536 6.016 3.264l0.256 1.066666L777.258667 576z m-150.976-243.349333l1.877333-2.389334 1.642667-2.602666 80.64-141.12a32 32 0 0 0-24.981334-47.765334L682.666667 138.66666699999996h-71.338667a32 32 0 0 0-3.093333 63.850666l3.093333 0.149334h16.192l-53.269333 93.226666a32 32 0 0 0 52.053333 36.757334z m-233.92-72.704a32 32 0 0 0 13.312-40.896l-1.408-2.773334-7.808-13.610666h110.528a32 32 0 0 0 31.850666-28.928l0.149334-3.072a32 32 0 0 0-28.906667-31.850667l-3.093333-0.149333H341.333333a32 32 0 0 0-29.077333 45.397333l1.28 2.474667 35.157333 61.504a32 32 0 0 0 43.669334 11.904z m143.808 230.4l1.92-2.453334 1.706666-2.688 37.525334-65.685333a32 32 0 0 0-53.909334-34.346667l-1.664 2.602667-9.749333 17.066667-57.301333-100.266667a32 32 0 0 0-40.896-13.312l-2.773334 1.408a32 32 0 0 0-13.290666 40.896l1.408 2.773333 85.077333 148.864c11.2 19.626667 38.016 21.333333 51.946667 5.12zM512 778.666667c-92.544 0-167.914667-60.970667-179.733333-138.666667h359.466666C679.893333 717.696 604.544 778.666667 512 778.666667z"  horiz-adv-x="1024" />
      
      <glyph glyph-name="hetong" unicode="&#58990;" d="M813.935-95.447c0 0-604.771 0-604.771 0-49.6 0-89.949 36.306-89.949 80.931 0 0 0 797.382 0 797.382 0 44.625 40.349 80.931 89.949 80.931 0 0 480.553 0 480.553 0 0 0 214.196-175.942 214.196-175.942 0 0 0-702.371 0-702.371 0-44.625-40.349-80.931-89.978-80.931zM209.164 804.829c-16.815 0-31.011-10.036-31.011-21.964 0 0 0-797.382 0-797.382 0-11.898 14.197-21.964 31.011-21.964 0 0 604.771 0 604.771 0 16.815 0 31.011 10.065 31.011 21.964 0 0 0 663.709 0 663.709 0 0-165.789 0-165.789 0 0 0 0 146.996 0 146.996 0 0-10.531 8.64-10.531 8.64 0 0-459.462 0-459.462 0zM772.975 524.742c0-9.774-7.913-17.687-17.687-17.687 0 0-259.345 0-259.345 0-9.774 0-17.687 7.912-17.687 17.687 0 9.774 7.912 17.687 17.687 17.687 0 0 259.345 0 259.345 0 9.774 0 17.687-7.912 17.687-17.687zM367.011 435.956c0 0-44.305 0-44.305 0-36.742 0-66.618 29.876-66.618 66.618 0 0 0 44.305 0 44.305 0 36.742 29.876 66.618 66.618 66.618 0 0 44.305 0 44.305 0 36.713 0 66.589-29.876 66.589-66.618 0 0 0-44.305 0-44.305 0-36.742-29.876-66.618-66.589-66.618zM398.225 546.88c0 17.222-13.993 31.244-31.215 31.244 0 0-44.305 0-44.305 0-17.251 0-31.244-14.022-31.244-31.244 0 0 0-44.305 0-44.305 0-17.251 13.993-31.244 31.244-31.244 0 0 44.305 0 44.305 0 17.222 0 31.215 13.993 31.215 31.244 0 0 0 44.305 0 44.305zM286.255 372.306c0 0 465.629 0 465.629 0 9.774 0 17.687-7.913 17.687-17.687 0-9.774-7.912-17.687-17.687-17.687 0 0-465.629 0-465.629 0-9.774 0-17.687 7.912-17.687 17.687 0 9.774 7.912 17.687 17.687 17.687zM286.255 255.389c0 0 465.629 0 465.629 0 9.774 0 17.687-7.912 17.687-17.687 0-9.745-7.912-17.687-17.687-17.687 0 0-465.629 0-465.629 0-9.774 0-17.687 7.942-17.687 17.687 0 9.774 7.912 17.687 17.687 17.687zM286.255 132.596c0 0 259.345 0 259.345 0 9.774 0 17.687-7.912 17.687-17.687 0-9.745-7.912-17.687-17.687-17.687 0 0-259.345 0-259.345 0-9.774 0-17.687 7.942-17.687 17.687 0 9.774 7.912 17.687 17.687 17.687z"  horiz-adv-x="1024" />
      
      <glyph glyph-name="yichang" unicode="&#59163;" d="M513.33-42.66999999999996H262.92a90.1 90.1 0 0 0-90 90V722.14a90.1 90.1 0 0 0 90 90h500.83a90.1 90.1 0 0 0 90-90v-333.55a30 30 0 0 0-60 0V722.14a30 30 0 0 1-30 30H262.92a30 30 0 0 1-30-30v-674.81a30 30 0 0 1 30-30h250.41a30 30 0 0 0 0-60zM740.41 234.5q25 0 25-25v-90q0-25-25-25t-25 25v90q0 25 25 25z m-25-185.01a25 25 0 1 1 50 0 25 25 0 1 1-50 0z m-32.75 504.18H341.33a30 30 0 0 0 0 60h341.33c16.57 0 18-13.44 18-30s-1.43-30-18-30z m1.5-165.08H342.83a30 30 0 0 0 0 60h341.33c16.57 0 18-13.43 18-30s-1.43-30-18-30zM512 212.33000000000004H342.83a30 30 0 0 0 0 60H512a30 30 0 0 0 0-60z m231.41-278.16c-106.6 0-193.32 86.72-193.32 193.32s86.72 193.33 193.32 193.33 193.33-86.73 193.33-193.33S850-65.83000000000004 743.41-65.83000000000004z m0 336.65c-79 0-143.32-64.3-143.32-143.33s64.29-143.32 143.32-143.32 143.33 64.29 143.33 143.32-64.3 143.33-143.33 143.33z"  horiz-adv-x="1024" />
      
      <glyph glyph-name="tupian" unicode="&#59169;" d="M896 768H128C73.6 768 32 726.4 32 672v-576c0-54.4 41.6-96 96-96h768c54.4 0 96 41.6 96 96V672c0 54.4-41.6 96-96 96zM96 672c0 19.2 12.8 32 32 32h768c19.2 0 32-12.8 32-32v-457.6l-150.4 150.4c-19.2 19.2-41.6 28.8-67.2 28.8s-51.2-9.6-67.2-25.6L438.4 192l-140.8 112c-35.2 35.2-99.2 35.2-134.4 0L96 236.8V672z m832-576c0-19.2-12.8-32-32-32H128c-19.2 0-32 12.8-32 32v51.2L208 256c12.8 12.8 32 12.8 44.8 0 0 0 3.2 0 3.2-3.2l163.2-131.2c12.8-9.6 28.8-9.6 41.6 0l227.2 195.2 3.2 3.2c12.8 12.8 32 12.8 44.8 0l195.2-195.2v-28.8zM288 416c54.4 0 96 41.6 96 96s-41.6 96-96 96-96-41.6-96-96 41.6-96 96-96z m0 128c19.2 0 32-12.8 32-32s-12.8-32-32-32-32 12.8-32 32 12.8 32 32 32z"  horiz-adv-x="1024" />
      
      <glyph glyph-name="pic" unicode="&#59269;" d="M982.7 137.60000000000002h-72.4V208c0 19.4-16.2 35.2-36.2 35.2-20 0-36.2-15.8-36.2-35.2v-70.4h-72.4c-20 0-36.2-15.8-36.2-35.2s16.2-35.2 36.2-35.2h72.4v-70.4c0-19.4 16.2-35.2 36.2-35.2 20 0 36.2 15.8 36.2 35.2v70.4h72.4c20 0 36.2 15.8 36.2 35.2s-16.2 35.2-36.2 35.2zM729.2 560c0-19.4-16.2-35.2-36.2-35.2-20 0-36.2 15.8-36.2 35.2s16.2 35.2 36.2 35.2c20 0 36.2-15.8 36.2-35.2z m-144.8 0c0-58.2 48.7-105.6 108.6-105.6 59.9 0 108.6 47.4 108.6 105.6S752.9 665.6 693 665.6c-59.9 0-108.6-47.4-108.6-105.6z m159.3-248.1L617 404.2c-19.2 14-46 14-65.2 0l-111.5-81.3-148.7 115.7c-18.6 14.5-44.4 15.6-64.3 2.6L77.5 343.29999999999995V736H874v-387.2c0-19.4 16.2-35.2 36.2-35.2 20 0 36.2 15.8 36.2 35.2V739c0 37.2-31.1 67.4-69.4 67.4H74.5c-38.3 0-69.4-30.3-69.4-67.4v-639.5c0-37.2 31.1-67.4 69.4-67.4h546.1c20 0 36.2 15.8 36.2 35.2 0 19.4-16.2 35.2-36.2 35.2H77.5v156l179.2 117.1 182.2-141.7L584.4 340l115.8-84.5c16.1-11.7 38.7-8.5 50.7 7 12 15.6 8.8 37.7-7.2 49.4z"  horiz-adv-x="1024" />
      
      <glyph glyph-name="jiage" unicode="&#58917;" d="M640 768H384v-64h256v64z m32-256c17.7 0 32-14.3 32-32s-14.3-32-32-32H352c-17.7 0-32 14.3-32 32s14.3 32 32 32h320zM544 320c17.7 0 32-14.3 32-32s-14.3-32-32-32H352c-17.7 0-32 14.3-32 32s14.3 32 32 32h192z m160-18.8l67.8-67.9 67.9 67.9c12.5 12.5 32.8 12.5 45.3 0s12.5-32.8 0-45.2l-60.1-60.1 39.1-0.1c17.7 0 32-14.3 32-32s-14.3-32-32-32l-64.1 0.1V96H864c17.7 0 32-14.3 32-32s-14.3-32-32-32h-64.1l0.1-60.2c0-17.7-14.3-32-32-32s-32 14.3-32 32l-0.1 60.2H672c-17.7 0-32 14.3-32 32s14.3 32 32 32h63.9v35.9l-63.9-0.1c-17.7 0-32 14.3-32 32s14.3 32 32 32l46.8 0.1-60 60.1c-12.5 12.5-12.5 32.8 0 45.2 12.4 12.6 32.7 12.6 45.2 0zM672 832c17.7 0 32-14.3 32-32v-32h160c17.7 0 32-14.3 32-32v-320c0-17.7-14.3-32-32-32s-32 14.3-32 32V704H704v-32c0-15.7-11.3-28.8-26.2-31.5l-5.8-0.5H352c-17.7 0-32 14.3-32 32v32H192v-704h352c17.7 0 32-14.3 32-32s-14.3-32-32-32H160c-17.7 0-32 14.3-32 32V736c0 17.7 14.3 32 32 32h160V800c0 17.7 14.3 32 32 32h320z"  horiz-adv-x="1024" />
      
      <glyph glyph-name="xitong" unicode="&#58892;" d="M514.4 832.6c-1.2 0.1-2.4 0.2-3.6 0.2-1.3 0-2.5-0.1-3.7-0.2C262.2 830.1 64.4 631.2 63.5 386v-1.6c0-247.5 200.7-448.2 448.2-448.2s448.2 200.7 448.2 448.2c0 246.6-199.2 446.7-445.5 448.2z m28-320.3c48.3 2.1 95.1 9.9 139.8 22.6 10.6-37.7 17.2-77.1 19.5-117.7H542.4v95.1z m0 64.3V767.3c2-0.2 4.1-0.3 6.1-0.5 47.6-49 86.1-106.9 112.6-171-38-10.6-77.8-17.2-118.7-19.2z m-63.2 190.5V577c-39.7 2.6-78.3 9.4-115.2 20 27.3 63.8 66.3 121.4 114.5 170 0.2 0.1 0.5 0.1 0.7 0.1z m0-254.4v-95.5H321.4c2.5 41.2 9.6 81.2 20.8 119.4 43.9-13 89.7-21.1 137-23.9z m-222.1-95.5H129c5.8 68.3 29.5 131.6 66.3 185.1 27.4-16.9 56.2-31.7 86.3-44.2-13.4-45.1-21.8-92.2-24.5-140.9z m-0.2-63.2c2.4-50 10.8-98.3 24.5-144.4-29.8-12.4-58.3-27-85.5-43.8-37.7 54.2-61.7 118.6-67.1 188.2h128.1z m64.3 0h158v-99c-47.4-2.7-93.4-10.9-137.2-23.9-11.5 39.3-18.6 80.5-20.8 122.9z m158-163.4v-189c-1 0.1-2.1 0.2-3.1 0.3-47.3 48.3-85.7 105.4-112.6 168.5 37.1 10.8 75.8 17.6 115.7 20.2z m63.2-189.1V191.10000000000002c40-2 78.9-8.3 116.2-18.4-27.6-64.4-67.2-122.4-116.2-171.2 0.1 0 0 0 0 0z m0 253.9V354h159.1c-2.5-41.7-9.7-82.1-21-120.7-44.2 12.4-90.4 20-138.1 22.1zM765.7 354h128.9c-5.4-68.4-28.6-131.7-65.1-185.3-28 16.9-57.6 31.7-88.3 44 13.5 45.1 21.9 92.4 24.5 141.3z m0.2 63.2c-2.3 47.8-10.1 94.3-22.9 138.6 30.3 12.2 59.4 26.8 87 43.6 35.7-52.8 58.7-115 64.4-182.1H765.9z m23.4 232.7c-21.5-12.6-44-23.7-67.3-33.3-18.1 44.6-41.4 86.5-69.1 125.1 52-20.6 98.4-52.2 136.4-91.8z m-415.7 93c-28-38.3-51.7-80-70.3-124.3-23.1 9.8-45.4 21.1-66.7 33.8 38.2 39.3 84.9 70.4 137 90.5zM237.2 115.70000000000005c21 12.5 43 23.6 65.7 33.2 18.2-43.5 41.2-84.5 68.5-122.3-50.9 20.1-96.5 50.7-134.2 89.1z m409.9-90.8c29 39.1 53.4 81.8 72.4 127.3 23.9-9.7 47-21 69.1-33.9-39.2-40.9-87.5-73.1-141.5-93.4z"  horiz-adv-x="1024" />
      
      <glyph glyph-name="qidong" unicode="&#59057;" d="M512-64c-247.424 0-448 200.512-448 448s200.576 448 448 448c247.488 0 448-200.512 448-448s-200.512-448-448-448zM512 757.12v0.256C297.92 757.312 138.88 589.696 138.88 384S306.304 10.879999999999995 512 10.879999999999995s373.12 167.36 373.12 373.12S717.76 757.12 512 757.12z m-66.048-554.816a26.88 26.88 0 0 0-30.336-0.832 35.456 35.456 0 0 0-15.424 29.952V574.0160000000001c0 12.416 5.888 23.872 15.424 29.952a26.88 26.88 0 0 0 30.4-0.896l238.912-171.328c8.64-6.272 13.952-17.28 13.952-29.056s-5.312-22.784-14.016-28.992l-238.912-171.392z"  horiz-adv-x="1024" />
      
      <glyph glyph-name="tuichu" unicode="&#59147;" d="M228.66 731.919c19.426 14.6 47.01 10.688 61.61-8.737 14.6-19.426 10.688-47.009-8.737-61.61C185.55 589.433 128 476.736 128 354.39300000000003c0-212.077 171.923-384 384-384s384 171.923 384 384c0 122.476-57.676 235.281-153.834 307.407-19.44 14.58-23.378 42.16-8.797 61.6 14.581 19.44 42.16 23.378 61.6 8.797C913.054 643.625 984 504.864 984 354.39200000000005c0-260.678-211.322-472-472-472s-472 211.322-472 472c0 150.31 70.792 288.937 188.66 377.527zM556 512c0-24.3-19.7-44-44-44s-44 19.7-44 44V821c0 24.3 19.7 44 44 44s44-19.7 44-44v-309z"  horiz-adv-x="1024" />
      
      <glyph glyph-name="key" unicode="&#58922;" d="M655.54431073 775.8987531c-138.4177282 0-251.20254378-112.78481557-251.20254378-251.20254378 0-16.51898815 1.70886084-33.03797627 5.12658253-49.55696442l2.27848111-11.96202589-295.06330537-295.06330538v-176.58228702h206.20254159v102.53165053h96.26582744V190.32910458000003h95.12658687v96.8354477h32.468356v9.1139245l29.6202546-9.68354477c25.06329235-8.54430421 51.83544554-12.53164617 78.03797845-12.53164617 138.4177282 0 251.20254378 112.78481557 251.20254377 251.20254377 1.13924057 137.84810792-111.64557501 250.6329235-250.06330321 250.63292349z m93.98734631-210.18988357c0-29.05063432-23.92405179-52.9746861-52.97468611-52.97468611s-52.9746861 23.92405179-52.9746861 52.97468611 23.92405179 52.9746861 52.9746861 52.9746861 52.9746861-23.35443151 52.97468611-52.9746861z"  horiz-adv-x="1024" />
      
      <glyph glyph-name="iPhone" unicode="&#58930;" d="M768 896H256c-35.3 0-64-28.7-64-64v-896c0-35.3 28.7-64 64-64h512c35.3 0 64 28.7 64 64V832c0 35.3-28.7 64-64 64z m3.7-819.8h-512v704h512v-704z m-216.2-93.3c0-24-19.5-43.5-43.5-43.5s-43.5 19.5-43.5 43.5 19.5 43.5 43.5 43.5 43.5-19.4 43.5-43.5z"  horiz-adv-x="1024" />
      
      <glyph glyph-name="name" unicode="&#59389;" d="M875.75000029 98.99999971c-0.93750029 4.68749971-0.93750029 9.37500029-1.87500058 15.00000029-1.87499971 15.00000029-7.49999971 27.18749971-14.99999942 36.5625s-16.875 17.81250029-27.18750058 24.37499971c-11.25 7.49999971-23.43750029 13.12499971-35.62499971 16.875-13.12499971 3.75000029-26.25000029 8.4375-40.31250029 12.18750029s-27.18749971 8.4375-40.31249942 12.18750029c-13.12499971 4.68749971-24.37499971 10.31249971-35.62500058 16.875-12.18750029 7.49999971-21.56249971 15.00000029-28.125 21.56249971-4.68749971 5.625-9.37500029 11.25-13.12499971 18.74999971-1.87499971 3.75000029-2.8125 6.56250029-3.75000029 10.31250058-1.87499971 5.625-2.8125 10.31249971-2.8125 15.93749971 0 7.49999971 0 16.875 0.93750029 26.25000029 0.93750029 12.18750029 5.625 23.43750029 14.0625 32.81249971 5.625 5.625 11.25 10.31249971 16.875 15.00000029 3.75000029 2.8125 8.4375 5.625 12.18750029 9.37499942 5.625 4.68749971 9.37500029 11.25 13.12499971 17.81250029 3.75000029 7.49999971 6.56250029 15.00000029 10.31249971 22.5 1.87499971 5.625 4.68749971 12.18750029 7.50000058 17.81250029 1.87499971 2.8125 2.8125 6.56250029 3.74999942 10.31249971 6.56250029 19.6875 10.31249971 35.62499971 13.12500058 50.625 3.75000029 17.81250029 5.625 35.62499971 7.49999971 59.0625 0.93750029 43.12500029-4.68749971 86.24999971-16.875 127.50000029 0 0.93750029-0.93750029 2.8125-0.93750029 3.74999942-4.68749971 19.6875-13.12499971 37.50000029-24.37499971 54.37500029-0.93750029 0.93750029-1.87499971 2.8125-2.8125 3.75000029l-0.93750029 0.93749942c-0.93750029 1.87499971-2.8125 3.75000029-3.74999942 5.625-1.87499971 1.87499971-2.8125 3.75000029-4.68750058 6.56250029l-0.93749942 0.93750029c-9.37500029 11.25-18.74999971 20.62500029-29.06250029 28.125-14.0625 10.31249971-28.125 18.74999971-43.12500029 24.37499971C588.87500029 824.62499971 573.875 828.375 558.87499971 831.1875 543.87500029 833.06249971 529.81250029 834 516.68749971 834h-9.37499942c-14.0625 0-28.125-0.93750029-42.1875-2.8125-15.00000029-1.87499971-29.99999971-6.56250029-44.06250058-12.18750029-15.00000029-5.625-29.06250029-14.0625-43.12499942-24.37499971-10.31249971-7.49999971-19.6875-16.875-29.06250029-28.125l-0.93750029-0.93750029c-1.87499971-1.87499971-2.8125-3.75000029-4.68749971-6.56249942-0.93750029-1.87499971-2.8125-3.75000029-3.75000029-5.625l-0.93749942-0.93750029c-0.93750029-0.93750029-1.87499971-2.8125-2.8125-3.75000029-11.25-16.875-19.6875-34.68750029-24.37500058-54.37499942 0-0.93750029-0.93750029-2.8125-0.93749942-3.75000029-12.18750029-41.24999971-17.81250029-84.375-16.875-127.50000029 0.93750029-23.43750029 3.75000029-41.24999971 7.49999971-59.0625 2.8125-15.00000029 6.56250029-31.87500029 13.12499971-50.625 0.93750029-3.75000029 2.8125-6.56250029 3.75000029-10.31249971 2.8125-6.56250029 5.625-12.18750029 7.49999971-17.81250029 2.8125-7.49999971 6.56250029-15.00000029 10.31250058-22.5 2.8125-6.56250029 7.49999971-13.12499971 13.12499971-17.81249942 3.75000029-2.8125 8.4375-6.56250029 12.18750029-9.37500029 5.625-4.68749971 11.25-10.31249971 16.875-15.00000029 8.4375-9.37500029 13.12499971-20.62500029 14.0625-32.81249971 0.93750029-9.37500029 0.93750029-17.81250029 0.93749942-26.25000029 0-4.68749971-0.93750029-9.37500029-1.87499971-14.0625v-1.87499971c-0.93750029-3.75000029-2.8125-6.56250029-3.75000029-10.31249971-1.87499971-2.8125-2.8125-4.68749971-4.68749971-7.50000058-0.93750029-1.87499971-2.8125-3.75000029-3.75000029-5.625-0.93750029-1.87499971-2.8125-3.75000029-3.74999942-4.68749971-6.56250029-6.56250029-15.93749971-14.0625-28.125-21.56249971-10.31249971-6.56250029-22.5-12.18750029-35.62500058-16.875s-26.25000029-8.4375-40.31249942-12.18750029-27.18749971-8.4375-40.31250029-12.18750029c-12.18750029-3.75000029-24.37499971-9.37500029-35.62499971-16.875-11.25-6.56250029-19.6875-15.00000029-27.18750058-24.37499971-7.49999971-9.37500029-12.18750029-21.56249971-14.99999942-36.5625C144.50000029 74.625 142.62499971 42.74999971 146.375 18.375c2.8125-24.37499971 8.4375-39.375 15.00000029-44.06249971 3.75000029-2.8125 12.18750029-5.625 26.24999942-9.37500029 14.0625-2.8125 30.9375-5.625 50.625-9.37500029 21.56249971-2.8125 44.06249971-5.625 65.62500029-8.4375 24.37499971-2.8125 48.75000029-4.68749971 73.125-7.49999971 14.0625-0.93750029 27.18749971-1.87499971 41.24999971-2.8125 10.31249971-0.93750029 19.6875-0.93750029 30.00000058-1.87499971h31.87499942c11.25 0 22.5-0.93750029 33.75-0.93750029 11.25 0 22.5 0 33.75 0.93750029h31.87500029c10.31249971 0.93750029 19.6875 0.93750029 29.99999971 1.87499971 14.0625 0.93750029 27.18749971 1.87499971 41.25000058 2.8125 24.37499971 1.87499971 48.75000029 4.68749971 73.125 7.49999971 21.56249971 2.8125 44.06249971 5.625 65.62499942 8.4375 19.6875 2.8125 36.5625 5.625 50.625 9.37500029 14.0625 2.8125 22.5 5.625 26.25000029 9.37500029 6.56250029 4.68749971 11.25 19.6875 15.00000029 44.06249971-0.93750029 21.56249971-1.87499971 48.75000029-5.625 80.62499971z"  horiz-adv-x="1024" />
      
      <glyph glyph-name="duanxin" unicode="&#58893;" d="M847.4 719.6h-672c-61.5 0-111.5-43.1-111.5-96.2v-0.8l421.5-230.1c19.8-10.8 55.4-10.6 75.1 0.4L959 618.1v5.2c-0.1 53.2-50 96.3-111.6 96.3zM63.8 543.9v-399.5c0-52.9 49.9-96.2 111.5-96.2h672c61.5 0 111.5 43.1 111.5 96.2V538.6L608 332.29999999999995c-47.8-27-121-27.4-169.3-1L63.8 543.9z"  horiz-adv-x="1024" />
      
      <glyph glyph-name="mima" unicode="&#59049;" d="M816.536-95.99699999999996l-597.332 0c-60 0-108.607 53.719-108.607 120l0 299.998c0 66.277 48.607 120 108.607 120l0 90c0 182.257 133.692 329.999 298.664 329.999 164.944 0 298.668-147.743 298.668-329.999l0-1.878-0.347 0c-0.938-15.638-12.413-28.125-26.817-28.125-14.372 0-25.88 12.487-26.789 28.125l-0.338 0 0 1.878c0 149.119-109.406 269.997-244.377 269.997s-244.345-120.879-244.345-269.997l0-90 543.013 0c59.972 0 108.609-53.723 108.609-120l0-299.999c-0.005-66.281-48.642-119.999-108.609-119.999l0 0zM870.822 324.001c0 33.141-24.286 60-54.286 60l-597.332 0c-30 0-54.319-26.859-54.319-60l0-299.999c0-33.141 24.319-60 54.319-60l597.331 0c29.972 0 54.286 26.859 54.286 60l0 299.999 0.001 0zM544.999 150.067l0-96.066c0-16.566-12.131-30-27.131-30s-27.159 13.439-27.159 30l0 96.066c-31.477 12.431-54.291 44.869-54.291 83.92 0 49.716 36.45 90.014 81.45 90.014 44.972 0 81.45-40.298 81.45-90.014-0.001-39.052-22.843-71.489-54.319-83.92l0 0zM517.868 264.00199999999995c-15 0-27.159-13.434-27.159-30.014 0-16.547 12.159-29.986 27.159-29.986 15 0 27.131 13.439 27.131 29.986 0 16.58-12.131 30.014-27.131 30.014l0 0z"  horiz-adv-x="1024" />
      
      <glyph glyph-name="school" unicode="&#58926;" d="M989.090909-11.636363999999958H954.181818V525.963636c0 30.254545-25.6 55.854545-58.181818 55.854546h-132.654545v39.563636c0 6.981818 0 25.6-102.4 121.018182-104.727273 97.745455-128 97.745455-137.309091 97.745455-9.309091 0-32.581818 0-141.963637-95.418182-107.054545-95.418182-107.054545-111.709091-107.054545-121.018182v-39.563636H146.618182c-32.581818 0-58.181818-25.6-58.181818-55.854546V-11.636363999999958H37.236364c-13.963636 0-25.6-11.636364-25.6-25.6 0-13.963636 11.636364-25.6 25.6-25.6l954.181818 2.327273c13.963636 0 25.6 11.636364 25.6 25.6s-13.963636 23.272727-27.927273 23.272727z m-95.418182 542.254546c4.654545 0 6.981818-2.327273 6.981818-4.654546V-11.636363999999958h-139.636363V530.6181819999999h132.654545zM414.254545 705.163636c58.181818 51.2 93.090909 76.8 107.054546 81.454546 32.581818-13.963636 169.890909-139.636364 190.836364-172.218182V-11.636363999999958h-44.218182v179.2c0 55.854545-46.545455 100.072727-104.727273 100.072728h-86.109091C418.909091 267.63636399999996 372.363636 223.418182 372.363636 167.56363599999997V-11.636363999999958h-51.2V614.4c9.309091 11.636364 44.218182 48.872727 93.090909 90.763636zM616.727273-11.636363999999958h-195.490909v181.527273c0 27.927273 25.6 48.872727 55.854545 48.872727h86.109091c30.254545 0 55.854545-20.945455 55.854545-48.872727V-11.636363999999958zM137.309091 525.963636c0 2.327273 2.327273 4.654545 6.981818 4.654546h125.672727V-11.636363999999958H134.981818V525.963636zM397.963636 432.872727h225.745455c13.963636 0 25.6 11.636364 25.6 25.6 0 13.963636-11.636364 25.6-25.6 25.6h-225.745455c-13.963636 0-25.6-11.636364-25.6-25.6 2.327273-13.963636 11.636364-25.6 25.6-25.6zM397.963636 337.45454500000005h225.745455c13.963636 0 25.6 11.636364 25.6 25.6s-11.636364 25.6-25.6 25.6h-225.745455c-13.963636 0-25.6-11.636364-25.6-25.6s11.636364-25.6 25.6-25.6zM397.963636 530.6181819999999h225.745455c13.963636 0 25.6 11.636364 25.6 25.6s-11.636364 25.6-25.6 25.6h-225.745455c-13.963636 0-25.6-11.636364-25.6-25.6s11.636364-25.6 25.6-25.6z"  horiz-adv-x="1024" />
      
      <glyph glyph-name="xueyuan" unicode="&#58904;" d="M992-23.039999999999964h-64v576c0 89.6-51.2 128-83.2 134.4l-204.8 64v70.4c0 12.8-6.4 19.2-12.8 25.6s-19.2 6.4-25.6 6.4l-428.8-121.6S96 712.96 96 610.56v-633.6H32c-19.2 0-32-12.8-32-32s12.8-32 32-32h960c19.2 0 32 12.8 32 32s-12.8 32-32 32z m-416 0H160v633.6c0 44.8 25.6 57.6 32 57.6l384 108.8v-800z m288 0H640v710.4l185.6-64h6.4c6.4 0 32-6.4 32-70.4v-576z m-524.8 646.4h-64v-64h64v64z m147.2 0h-64v-64h64v64z m-147.2-102.4h-64v-64h64v64z m147.2 0h-64v-64h64v64z m-147.2-108.8h-64v-64h64v64z m147.2 0h-64v-64h64v64z m-147.2-108.8h-64v-64h64v64z m147.2 0h-64v-64h64v64z m-147.2-102.4h-64v-64h64v64z m147.2 0h-64v-64h64v64z m-147.2-108.8h-64v-64h64v64z m147.2 0h-64v-64h64v64z m236.8 364.8h64v64h-64v-64z m0-108.8h64v64h-64v-64z m0-108.8h64v64h-64v-64z m0-102.4h64v64h-64v-64z m0-108.8h64v64h-64v-64z"  horiz-adv-x="1024" />
      
      <glyph glyph-name="dingwei" unicode="&#58910;" d="M512-63.469288000000006c-10.69969 0-16.60519 1.283226-20.36584 5.689582-2.261507 2.64934-229.644237 272.535093-290.237267 403.232784-21.890566 46.818305-33.44267 97.655134-33.44267 147.265018 0 187.090049 154.331971 339.226005 344.045777 339.226005s344.045777-153.187915 344.045777-341.429183c0-56.871265-10.660804-99.841939-36.789904-148.300604C747.006362 208.324932 534.795169-54.61871299999996 532.675902-57.242470000000026c-2.532683-3.166109-7.055696-6.227842-20.145829-6.227842L512-63.47031100000004zM512 623.596913c-72.959685 0-132.325771-59.365062-132.325771-132.325771S439.040315 358.945371 512 358.945371s132.325771 59.365062 132.325771 132.325771S584.959685 623.596913 512 623.596913z"  horiz-adv-x="1024" />
      
      <glyph glyph-name="biaoqian" unicode="&#63649;" d="M745.0624 772.8128H252.928c-60.1088 0-108.8512-48.7424-108.8512-108.8512v-612.3008c0-67.6864 76.3904-107.2128 131.6352-68.1472l169.472 119.8592a108.80512 108.80512 0 0 0 128.3072-1.8944l146.7904-110.4896c54.9888-41.3696 133.632-2.1504 133.632 66.6624V663.9616c0 60.1088-48.7424 108.8512-108.8512 108.8512z m-118.6304-169.984H371.5584c-16.9472 0-30.72 13.7728-30.72 30.72s13.7728 30.72 30.72 30.72h254.9248c16.9472 0 30.72-13.7728 30.72-30.72s-13.7728-30.72-30.7712-30.72z"  horiz-adv-x="1024" />
      
      <glyph glyph-name="chuangjian" unicode="&#59032;" d="M910.208 334.20799999999997H561.792v-348.416a49.792 49.792 0 1 0-99.584 0V334.20799999999997H113.792a49.792 49.792 0 1 0 0 99.584h348.416V782.208a49.792 49.792 0 1 0 99.584 0v-348.416h348.416a49.792 49.792 0 1 0 0-99.584z"  horiz-adv-x="1024" />
      
      <glyph glyph-name="suanshu" unicode="&#59142;" d="M918.6 829H587.4c-22.8 0-41.4-18.7-41.4-41.4v-331.2c0-22.8 18.7-41.4 41.4-41.4h331.2c22.8 0 41.4 18.7 41.4 41.4V787.7c0.1 22.7-18.5 41.3-41.4 41.3z m-82.2-234.8H669.7c-17.6 0-32 12.5-32 27.8s14.4 27.8 32 27.8h166.9c17.6 0 32-12.5 32-27.8-0.2-15.3-14.5-27.8-32.2-27.8zM436.6 829H105.4C82.5 829 64 810.4 64 787.7v-331.2c0-22.8 18.7-41.4 41.4-41.4h331.2c22.8 0 41.4 18.7 41.4 41.4V787.7c-0.1 22.7-18.6 41.3-41.4 41.3z m-82.3-234.8h-55.6v-55.6c0-17.6-12.5-32-27.8-32-15.2 0-27.8 14.4-27.8 32v55.6h-55.6c-17.6 0-32 12.5-32 27.7 0 15.3 14.4 27.8 32 27.8h55.6v55.6c0 17.6 12.5 32 27.8 32s27.8-14.4 27.8-32v-55.6h55.6c17.6 0 32-12.5 32-27.8 0-15.2-14.2-27.7-32-27.7zM436.6 352.9H105.4c-22.8 0-41.4-18.7-41.4-41.4v-331.2c0-22.8 18.7-41.4 41.4-41.4h331.2c22.8 0 41.4 18.7 41.4 41.4V311.6c-0.1 22.8-18.6 41.3-41.4 41.3zM271 262.4c17.7 0 32-14.4 32-32 0-17.7-14.3-32.1-32-32.1s-32.1 14.4-32.1 32.1 14.4 32 32.1 32z m0-232.9c-17.7 0-32.1 14.4-32.1 32.1 0 17.7 14.4 32.1 32.1 32.1s32-14.4 32-32.1c0-17.8-14.3-32.1-32-32.1z m83.3 88.7H187.5c-17.6 0-32 12.5-32 27.8s14.4 27.8 32 27.8h166.9c17.6 0 32-12.5 32-27.8s-14.3-27.8-32.1-27.8zM918.6 352.9H587.4c-22.8 0-41.4-18.7-41.4-41.4v-331.2c0-22.8 18.7-41.4 41.4-41.4h331.2c22.8 0 41.4 18.7 41.4 41.4V311.6c0.1 22.8-18.5 41.3-41.4 41.3z m-82.2-288.2H669.7c-17.6 0-32 12.5-32 27.7 0 15.3 14.4 27.8 32 27.8h166.9c17.6 0 32-12.5 32-27.8-0.1-15.2-14.5-27.7-32.2-27.7z m0 106.9H669.7c-17.6 0-32 12.5-32 27.8s14.4 27.8 32 27.8h166.9c17.6 0 32-12.5 32-27.8-0.1-15.4-14.5-27.8-32.2-27.8z"  horiz-adv-x="1024" />
      
      <glyph glyph-name="shanchury" unicode="&#59028;" d="M495.49 236.28999999999996c0 94.06 47.13 177.01 118.45 225.61 1.25 21.66 0.69 61.7-20.58 61.7 0 0-12.14-2.43-7.28 14.57 2.43 31.56 2.43 60.7 0 89.83-2.43 19.43 2.43 75.27-36.42 82.55-14.57 2.42-29.14 2.42-43.7 0-17 0-33.99 36.42-58.27 36.42l-53.41-7.28c-24.28 0-21.85-7.28-33.99-9.71-12.14 0-26.71-2.43-38.85-4.85-38.85-9.71-53.41-63.13-55.84-82.55-2.43-16.99-2.43-72.84-2.43-101.97 4.86-17-9.71-17-9.71-17-24.28 2.43-14.57-75.26-14.57-75.26 4.86-17 0-26.71 36.42-41.28 12.14-31.56 33.99-55.84 60.7-72.84 0 0 2.43-31.56 2.43-53.42-2.43 2.43 12.14-55.84-99.54-72.84-111.69-17-133.54-53.41-155.39-72.84-21.85-21.85-19.42-114.11-19.42-114.11H600.2c-63.49 49.53-104.71 127.48-104.71 215.27zM760.32 429.87c-110.29 0-199.68-86.65-199.68-193.56 0-106.88 89.39-193.56 199.68-193.56S960 129.41999999999996 960 236.29999999999995c0 106.91-89.39 193.57-199.68 193.57z m102.61-252.2c12.14-12.14 12.14-31.83 0-43.98-12.14-12.14-31.83-12.14-43.98 0l-58.63 58.63-58.64-58.63c-12.14-12.14-31.83-12.14-43.98 0-12.14 12.14-12.14 31.84 0 43.98l58.64 58.63-58.64 58.64c-12.14 12.14-12.14 31.83 0 43.98 12.14 12.14 31.83 12.14 43.98 0l58.64-58.64 58.63 58.64c12.14 12.14 31.83 12.14 43.98 0 12.14-12.14 12.14-31.83 0-43.98L804.3 236.29999999999995l58.63-58.63z"  horiz-adv-x="1024" />
      
      <glyph glyph-name="tianjiary" unicode="&#59029;" d="M495.5 236.29999999999995c0 94.06 47.13 177.01 118.45 225.61 1.25 21.66 0.69 61.7-20.58 61.7 0 0-12.14-2.43-7.28 14.57 2.43 31.56 2.43 60.7 0 89.83-2.43 19.43 2.43 75.27-36.42 82.55-14.57 2.42-29.14 2.42-43.7 0-17 0-33.99 36.42-58.27 36.42l-53.41-7.28c-24.28 0-21.85-7.28-33.99-9.71-12.14 0-26.71-2.43-38.85-4.85-38.85-9.71-53.41-63.13-55.84-82.55-2.43-16.99-2.43-72.84-2.43-101.97 4.86-17-9.71-17-9.71-17-24.28 2.43-14.57-75.26-14.57-75.26 4.86-17 0-26.71 36.42-41.28 12.14-31.56 33.99-55.84 60.7-72.84 0 0 2.43-31.56 2.43-53.42-2.43 2.43 12.14-55.84-99.54-72.84-111.69-17-133.54-53.41-155.39-72.84C61.67 113.28999999999996 64.1 21.029999999999973 64.1 21.029999999999973h536.1c-63.48 49.53-104.7 127.48-104.7 215.27zM760.32 429.87c-110.29 0-199.68-86.65-199.68-193.56 0-106.88 89.39-193.56 199.68-193.56S960 129.42999999999995 960 236.30999999999995c0 106.91-89.39 193.56-199.68 193.56z m37.54-231.1v-111.75h-75.08V198.76999999999998H611.02v75.08h111.75V385.6h75.08v-111.75H909.6v-75.08H797.86z"  horiz-adv-x="1024" />
      
      <glyph glyph-name="ryshezhi" unicode="&#59030;" d="M495.49 236.28999999999996c0 94.06 47.13 177.01 118.45 225.61 1.25 21.66 0.69 61.7-20.58 61.7 0 0-12.14-2.43-7.28 14.57 2.43 31.56 2.43 60.7 0 89.83-2.43 19.43 2.43 75.27-36.42 82.55-14.57 2.42-29.14 2.42-43.7 0-17 0-33.99 36.42-58.27 36.42l-53.41-7.28c-24.28 0-21.85-7.28-33.99-9.71-12.14 0-26.71-2.43-38.85-4.85-38.85-9.71-53.41-63.13-55.84-82.55-2.43-16.99-2.43-72.84-2.43-101.97 4.86-17-9.71-17-9.71-17-24.28 2.43-14.57-75.26-14.57-75.26 4.86-17 0-26.71 36.42-41.28 12.14-31.56 33.99-55.84 60.7-72.84 0 0 2.43-31.56 2.43-53.42-2.43 2.43 12.14-55.84-99.54-72.84-111.69-17-133.54-53.41-155.39-72.84-21.85-21.85-19.42-114.11-19.42-114.11H600.2c-63.49 49.53-104.71 127.48-104.71 215.27zM760.32 429.87c-110.29 0-199.68-86.65-199.68-193.56 0-106.88 89.39-193.56 199.68-193.56S960 129.41999999999996 960 236.29999999999995c0 106.91-89.39 193.57-199.68 193.57z m136.72-237.33l-27.5-49.32c-0.41-1.32-1.5-2.33-3.24-3.02-1.75-0.69-3.51-0.61-5.28 0.23l-35.21 13.23c-7.38-5.85-15.21-10.61-23.5-14.28l-4.62-37.04c0.04-1.76-0.6-3.2-1.9-4.32s-2.83-1.7-4.59-1.73l-56.74-1.01c-1.76-0.03-3.31 0.49-4.65 1.57-1.34 1.07-2.03 2.49-2.06 4.25l-5.93 36.85c-7.98 2.93-15.97 7.41-24 13.43L663.1 136.89999999999998c-1.74-0.91-3.5-1.05-5.27-0.42-1.77 0.63-2.88 1.6-3.35 2.91l-29.23 48.31c-0.91 1.74-1.27 3.39-1.08 4.93 0.19 1.55 0.94 2.99 2.23 4.33l29.27 23.61c-0.53 5.27-0.83 9.88-0.9 13.84-0.07 3.96 0.07 8.58 0.42 13.87l-30.1 22.56c-1.34 1.29-2.14 2.71-2.39 4.25-0.25 1.53 0.06 3.19 0.9 4.97l27.5 49.32c0.41 1.32 1.5 2.33 3.24 3.02 1.75 0.69 3.51 0.61 5.28-0.23l35.21-13.23c7.81 6.3 15.64 11.06 23.5 14.28l4.62 37.04c-0.04 1.76 0.6 3.2 1.9 4.32s2.83 1.7 4.59 1.73l56.74 1.01c1.76 0.03 3.31-0.49 4.65-1.57 1.34-1.07 2.03-2.49 2.06-4.25l5.93-36.85c7.97-2.94 15.97-7.41 23.99-13.43l34.72 14.48c1.74 0.91 3.5 1.05 5.27 0.42 1.77-0.63 2.88-1.6 3.35-2.91l29.23-48.31c0.91-1.74 1.27-3.39 1.08-4.93-0.19-1.55-0.94-2.99-2.23-4.33l-29.28-23.62c0.53-5.27 0.83-9.88 0.9-13.84 0.07-3.96-0.06-8.58-0.41-13.87l30.1-22.56c1.34-1.29 2.14-2.71 2.39-4.25 0.26-1.52-0.04-3.18-0.89-4.96zM759.44 285.78c-13.63-0.24-25.21-5.28-34.71-15.13-9.5-9.85-14.13-21.59-13.89-35.22 0.24-13.63 5.28-25.21 15.13-34.71 9.85-9.5 21.59-14.13 35.22-13.89 13.63 0.24 25.21 5.28 34.71 15.13 9.5 9.85 14.13 21.59 13.89 35.22s-5.28 25.21-15.13 34.71c-9.85 9.51-21.59 14.13-35.22 13.89z"  horiz-adv-x="1024" />
      
      <glyph glyph-name="ryyidong" unicode="&#59031;" d="M495.49 236.28999999999996c0 94.06 47.13 177.01 118.45 225.61 1.25 21.66 0.69 61.7-20.58 61.7 0 0-12.14-2.43-7.28 14.57 2.43 31.56 2.43 60.7 0 89.83-2.43 19.43 2.43 75.27-36.42 82.55-14.57 2.42-29.14 2.42-43.7 0-17 0-33.99 36.42-58.27 36.42l-53.41-7.28c-24.28 0-21.85-7.28-33.99-9.71-12.14 0-26.71-2.43-38.85-4.85-38.85-9.71-53.41-63.13-55.84-82.55-2.43-16.99-2.43-72.84-2.43-101.97 4.86-17-9.71-17-9.71-17-24.28 2.43-14.57-75.26-14.57-75.26 4.86-17 0-26.71 36.42-41.28 12.14-31.56 33.99-55.84 60.7-72.84 0 0 2.43-31.56 2.43-53.42-2.43 2.43 12.14-55.84-99.54-72.84-111.69-17-133.54-53.41-155.39-72.84-21.85-21.85-19.42-114.11-19.42-114.11H600.2c-63.49 49.53-104.71 127.48-104.71 215.27zM760.32 429.87c-110.29 0-199.68-86.65-199.68-193.56 0-106.88 89.39-193.56 199.68-193.56S960 129.41999999999996 960 236.29999999999995c0 106.91-89.39 193.57-199.68 193.57z m60.77-243.15c-24.32 11.3-53.74 16.95-88.29 16.95v-55.66l-95.33 95.33 95.33 95.33v-54.38c44.36-6.4 79.76-24.53 106.21-54.38 21.75-25.17 36.47-57.16 44.15-95.97-17.07 23.88-37.75 41.48-62.07 52.78z"  horiz-adv-x="1024" />
      
      <glyph glyph-name="downall" unicode="&#59086;" d="M515.669333 725.333333a42.666667 42.666667 0 0 0 42.666667-42.666666l-0.042667-518.058667 228.266667 228.266667a42.666667 42.666667 0 0 0 60.330667-60.373334l-301.653334-301.696a42.666667 42.666667 0 0 0-60.373333 0l-301.696 301.653334a42.666667 42.666667 0 0 0 60.330667 60.373333l229.461333-229.504V682.666667a42.666667 42.666667 0 0 0 42.666667 42.666666z"  horiz-adv-x="1024" />
      
      <glyph glyph-name="upall" unicode="&#59087;" d="M514.389333 0.6399999999999864a42.666667 42.666667 0 0 0-42.666666 42.666667l0.042666 518.058666-228.266666-228.266666a42.666667 42.666667 0 0 0-60.330667 60.373333l301.696 301.653333a42.666667 42.666667 0 0 0 60.330667 0l301.696-301.653333a42.666667 42.666667 0 0 0-60.330667-60.330667l-229.461333 229.504v-519.338666a42.666667 42.666667 0 0 0-42.666667-42.666667z"  horiz-adv-x="1024" />
      
      <glyph glyph-name="rightall" unicode="&#59088;" d="M161.536 372.48a42.666667 42.666667 0 0 0 42.666667 42.666667l518.058666-0.085334-228.266666 228.266667a42.666667 42.666667 0 0 0 60.373333 60.373333l301.653333-301.696a42.666667 42.666667 0 0 0 0-60.373333l-301.653333-301.653333a42.666667 42.666667 0 0 0-60.373333 60.330666l229.546666 229.418667-519.338666 0.042667a42.666667 42.666667 0 0 0-42.666667 42.666666z"  horiz-adv-x="1024" />
      
      <glyph glyph-name="leftall" unicode="&#59089;" d="M877.397333 362.36800000000005a42.666667 42.666667 0 0 0-42.666666-42.666667H316.672l228.224-228.266666a42.666667 42.666667 0 0 0-60.330667-60.330667L182.869333 332.79999999999995a42.666667 42.666667 0 0 0 0 60.330667l301.653334 301.738666a42.666667 42.666667 0 0 0 60.373333-60.373333l-229.546667-229.461333h519.381334a42.666667 42.666667 0 0 0 42.666666-42.666667z"  horiz-adv-x="1024" />
      
      <glyph glyph-name="shangsheng" unicode="&#59280;" d="M928 534.4v-182.4c0-19.2 12.8-32 32-32s32 12.8 32 32v224c0 35.2-28.8 64-64 64h-224c-19.2 0-32-12.8-32-32s12.8-32 32-32h176l-272-272-204.8 204.8c-6.4 6.4-16 9.6-22.4 9.6-9.6 0-16-3.2-22.4-9.6l-316.8-316.8c-12.8-12.8-12.8-32 0-44.8 12.8-12.8 32-12.8 44.8 0l294.4 294.4 204.8-204.8c6.4-6.4 16-9.6 22.4-9.6 9.6 0 16 3.2 22.4 9.6l297.6 297.6z"  horiz-adv-x="1024" />
      
      <glyph glyph-name="xiajiang" unicode="&#59281;" d="M886.4 160h-182.4c-19.2 0-32-12.8-32-32s12.8-32 32-32h224c35.2 0 64 28.8 64 64v224c0 19.2-12.8 32-32 32s-32-12.8-32-32v-172.8l-297.6 297.6c-6.4 6.4-16 9.6-22.4 9.6-9.6 0-16-3.2-22.4-9.6l-204.8-204.8-294.4 294.4c-12.8 12.8-32 12.8-44.8 0-12.8-12.8-12.8-32 0-44.8l316.8-316.8c6.4-6.4 16-9.6 22.4-9.6 9.6 0 16 3.2 22.4 9.6l204.8 204.8 278.4-281.6z"  horiz-adv-x="1024" />
      
      <glyph glyph-name="fangda" unicode="&#60435;" d="M919.264-9.984l-138.912 138.912C851.808 203.68 896 304.672 896 416c0 229.376-186.624 416-416 416S64 645.376 64 416s186.624-416 416-416c95.008 0 182.432 32.384 252.544 86.208l141.44-141.44a31.904 31.904 0 0 1 45.248 0 32 32 0 0 1 0.032 45.248zM128 416C128 610.08 285.92 768 480 768s352-157.92 352-352-157.92-352-352-352S128 221.92 128 416zM625.792 448H512v112a32 32 0 0 1-64 0V448h-112a32 32 0 0 1 0-64H448v-112a32 32 0 1 1 64 0V384h113.792a32 32 0 1 1 0 64z"  horiz-adv-x="1024" />
      
      <glyph glyph-name="dianhua" unicode="&#58948;" d="M635.6 248.4L598.7 220s-36.9-18-81.3 23.2c-44.3 41.3-123 135.7-145.2 189.8-22.2 54.2 22.2 77.4 22.2 77.4s57.8 50.3 60.2 59.3c2.5 9 34.5 45.2-34.4 141.9-68.9 96.8-84.9 77.4-121.8 47.7-36.9-29.6-88.7-87.7-99.7-154.9-11.1-67.1-18.4-149.7 75.1-296.8 93.5-147.1 235-259.4 313.7-277.4 78.9-18 134.2-29.6 212.8 37.4 78.8 67.1 92.4 73.5 56.6 121.3C821.5 236.8 743 294 731.2 296.4c-11.7 2.5-28.6 6.6-55.1-14-26.5-20.5-40.5-34-40.5-34"  horiz-adv-x="1024" />
      
      <glyph glyph-name="zuobian" unicode="&#59289;" d="M675.328 130.373818L400.570182 384l274.757818 253.626182a34.909091 34.909091 0 1 1-47.36 51.316363l-302.545455-279.272727a34.909091 34.909091 0 0 1 0-51.316363l302.545455-279.272728a34.909091 34.909091 0 1 1 47.36 51.316364"  horiz-adv-x="1024" />
      
      <glyph glyph-name="youbian" unicode="&#59290;" d="M325.399273 660.875636L600.157091 407.272727 325.399273 153.646545a34.909091 34.909091 0 1 1 47.36-51.316363l302.545454 279.272727a34.909091 34.909091 0 0 1 0 51.316364l-302.545454 279.272727a34.909091 34.909091 0 1 1-47.36-51.316364"  horiz-adv-x="1024" />
      
      <glyph glyph-name="xiangshang" unicode="&#58883;" d="M896 128l-80.896 0-131.072 0-155.648 0-159.744 0-141.312 0-100.352 0q-24.576 0-39.936 11.264t-20.992 28.672-0.512 38.4 22.528 41.472q37.888 40.96 79.872 86.016t86.016 91.136l86.016 92.16q44.032 46.08 83.968 89.088 18.432 19.456 44.032 28.672t52.736 8.704 53.248-11.776 45.568-31.744q70.656-73.728 147.456-159.744t160.768-184.32q19.456-23.552 26.624-46.592t2.56-40.96-20.48-29.184-40.448-11.264z"  horiz-adv-x="1024" />
      
      <glyph glyph-name="xiangxia" unicode="&#58885;" d="M878.592 645.12q29.696 0 48.128-11.264t24.576-29.696 0-41.472-26.624-45.568q-82.944-92.16-159.744-180.224t-148.48-164.864q-19.456-20.48-45.568-31.744t-53.76-11.776-53.248 8.704-43.008 28.672q-39.936 44.032-82.944 90.112l-88.064 92.16q-43.008 46.08-85.504 90.624t-79.36 86.528q-17.408 19.456-22.528 40.448t1.024 38.4 23.552 28.672 45.056 11.264q35.84 0 98.816 0.512t137.728 0.512l153.6 0 150.528 0 125.952 0 79.872 0z"  horiz-adv-x="1024" />
      
      <glyph glyph-name="xiangzuo" unicode="&#58887;" d="M765.952 771.072l0-81.92 0-129.024 0-156.672 0-159.744q0-76.8 0.512-141.312t0.512-100.352q0-24.576-11.776-40.96t-29.696-22.016-39.424 0-39.936 24.064q-37.888 38.912-81.92 81.408t-90.624 85.504-94.208 86.016-91.648 82.944q-19.456 17.408-29.184 43.008t-8.704 53.248 11.776 54.272 32.256 45.056q39.936 34.816 79.36 70.144t80.896 72.704 87.04 78.336 96.768 87.04q22.528 20.48 45.568 27.136t41.472 2.048 29.696-20.48 11.264-40.448z"  horiz-adv-x="1024" />
      
      <glyph glyph-name="beizhu" unicode="&#58981;" d="M31.676416-53.865728M229.98016-148.129024l138.052608 19.572736-53.57056 371.390464c26.264576 29.348864 75.70432 74.559488 132.891648 76.74368 117.942272 4.507648 232.311808-3.084288 341.507072 85.506048 13.913088 13.908992 28.443648 31.867904 43.779072 54.601728 26.387456 39.077888 59.76064 100.954112 89.121792 195.733504-70.567936-20.604928-126.736384-33.364992-167.932928-40.173568-24.220672-4.013056-44.81536-7.672832-63.347712-9.27744-94.272512-8.17664-112.451584 20.926464-177.195008 73.660416-26.94656 21.956608-61.328384 36.470784-100.959232 48.413696-68.021248 20.507648-168.953856 32.451584-308.026368 2.066432L229.98016-148.129024zM993.872896-53.865728"  horiz-adv-x="1024" />
      
      <glyph glyph-name="tianjia" unicode="&#58902;" d="M509.811148 746.919772c-246.678192 0-446.650643-199.972451-446.650643-446.650643s199.972451-446.650643 446.650643-446.650643 446.650643 199.972451 446.650643 446.650643S756.490364 746.919772 509.811148 746.919772zM727.422328 276.1058 533.973454 276.1058l0-193.448874c0-13.353123-10.809183-24.186865-24.162306-24.186865-13.353123 0-24.162306 10.832719-24.162306 24.186865L485.648842 276.1058 292.200992 276.1058c-13.328563 0-24.162306 10.809183-24.162306 24.189935 0 13.328563 10.832719 24.134677 24.162306 24.134677l193.448874 0L485.649865 517.854726c0 13.352099 10.809183 24.162306 24.162306 24.214495 13.352099-0.052189 24.162306-10.861372 24.162306-24.214495l0-193.424314 193.448874 0c13.328563 0 24.162306-10.806113 24.162306-24.134677C751.612263 286.914984 740.77545 276.1058 727.422328 276.1058zM509.811148-146.893166c-60.365856 0-118.927623 11.82328-174.056198 35.140335-53.247738 22.521946-101.068883 54.764278-142.135184 95.830579-41.066301 41.066301-73.308633 88.887446-95.829556 142.135184-23.318078 55.128575-35.140335 113.689319-35.140335 174.055175s11.82328 118.927623 35.140335 174.056198c22.521946 53.247738 54.764278 101.068883 95.829556 142.135184 41.066301 41.066301 88.887446 73.308633 142.135184 95.829556 55.128575 23.318078 113.690342 35.140335 174.056198 35.140335s118.927623-11.82328 174.056198-35.140335c53.247738-22.521946 101.069907-54.764278 142.135184-95.829556 41.067324-41.066301 73.309656-88.88847 95.830579-142.135184 23.317055-55.129598 35.140335-113.690342 35.140335-174.056198s-11.82328-118.9266-35.140335-174.055175c-22.521946-53.247738-54.764278-101.069907-95.830579-142.135184-41.066301-41.067324-88.887446-73.309656-142.135184-95.830579C628.738771-135.069887 570.177004-146.893166 509.811148-146.893166zM509.811148 746.409143c-246.001787 0-446.13899-200.137203-446.13899-446.140013 0-246.001787 200.137203-446.13899 446.13899-446.13899 246.001787 0 446.140013 200.137203 446.140013 446.13899C955.951161 546.270916 755.813958 746.409143 509.811148 746.409143zM509.811148 57.959432c-13.604856 0-24.673959 11.079336-24.673959 24.698518L485.137189 275.594147 292.199968 275.594147c-13.604856 0-24.673959 11.08036-24.673959 24.700565 0 13.59053 11.06808 24.64633 24.673959 24.64633l192.937221 0 0 192.913685c0 13.580297 11.06808 24.672936 24.671912 24.726148 13.608949-0.053212 24.676006-11.144828 24.676006-24.726148l0-192.913685 192.937221 0c13.604856 0 24.672936-11.0558 24.672936-24.64633 0.014326-6.592139-2.540869-12.792351-7.193843-17.455557-4.663206-4.672416-10.870582-7.246031-17.479093-7.246031L534.485107 275.593124l0-192.937221C534.485107 69.038768 523.417027 57.959432 509.811148 57.959432zM292.199968 323.917736c-13.041014 0-23.650653-10.597359-23.650653-23.623024 0-13.05534 10.609639-23.677259 23.650653-23.677259l193.960527 0 0-193.960527c0-13.054317 10.609639-23.675212 23.650653-23.675212 13.041014 0 23.650653 10.620895 23.650653 23.675212L533.461801 276.617453l193.960527 0c6.334265 0 12.284791 2.466168 16.754592 6.945179 4.459568 4.469801 6.90834 10.411117 6.895037 16.73208 0 13.026688-10.609639 23.624047-23.64963 23.624047L533.461801 323.918759l0 193.936991c0 13.018501-10.610662 23.651676-23.652699 23.702841-13.037944-0.050142-23.648606-10.683317-23.648606-23.702841l0-193.936991L292.199968 323.918759z"  horiz-adv-x="1024" />
      
      <glyph glyph-name="zhuye" unicode="&#58898;" d="M587.776-33.792H299.52c-84.992 0-154.624 69.12-154.624 154.624v227.84H58.368c-10.752 0-20.48 6.656-24.064 16.384-3.584 10.24-1.024 21.504 7.168 28.672l453.632 401.408c9.728 8.704 24.576 8.704 34.304 0L983.04 393.728c8.192-7.168 10.752-18.432 7.168-28.672-3.584-10.24-13.312-16.384-24.064-16.384h-86.528v-227.84c0-53.248-27.136-102.4-72.192-131.072-12.288-7.68-28.16-4.096-35.328 8.192-7.68 11.776-4.096 28.16 8.192 35.328a102.4 102.4 0 0 1 48.128 87.04V373.76c0 14.336 11.776 25.6 25.6 25.6h44.544L512 741.376 125.952 399.872h44.544c14.336 0 25.6-11.776 25.6-25.6v-253.44c0-56.832 46.08-102.912 102.912-102.912h288.256c14.336 0 25.6-11.776 25.6-25.6 0.512-14.336-10.752-26.112-25.088-26.112z m-0.512 0c-14.336 0-25.6 11.776-25.6 25.6 0 14.336 11.776 25.6 25.6 25.6 21.504 0 38.4 17.408 38.4 38.4v186.88c0 21.504-17.408 38.4-38.4 38.4H436.736c-21.504 0-38.4-17.408-38.4-38.4v-120.32c0-14.336-11.776-25.6-25.6-25.6s-25.6 11.776-25.6 25.6v120.32c0 49.664 40.448 90.112 90.112 90.112h150.528c49.664 0 90.112-40.448 90.112-90.112V56.32c-0.512-49.664-40.96-90.112-90.624-90.112z"  horiz-adv-x="1024" />
      
      <glyph glyph-name="dayin" unicode="&#58963;" d="M843.946667 603.733333h-47.36V725.333333a90.026667 90.026667 0 0 1-94.72 85.333334H312.32a81.493333 81.493333 0 0 1-85.333333-85.333334v-121.6H170.666667a81.493333 81.493333 0 0 1-85.333334-85.333333v-325.12a89.173333 89.173333 0 0 1 85.333334-93.866667h56.746666v-52.48a89.6 89.6 0 0 1 89.6-89.6h389.973334a89.6 89.6 0 0 1 89.6 89.6v52.48h47.36a97.706667 97.706667 0 0 1 94.72 93.866667V518.4a90.026667 90.026667 0 0 1-94.72 85.333333zM279.466667 725.333333a30.72 30.72 0 0 0 32.853333 33.706667h389.546667c18.773333 0 42.666667-11.52 42.666666-33.706667v-121.6H279.466667z m465.066666-678.4a37.546667 37.546667 0 0 0-37.546666-37.973333H317.013333a37.546667 37.546667 0 0 0-37.546666 37.973333v170.666667a37.546667 37.546667 0 0 0 37.546666 38.4h389.973334a37.546667 37.546667 0 0 0 37.546666-37.973333z m142.506667 146.346667a45.653333 45.653333 0 0 0-42.666667-42.666667h-47.786666v66.133334a89.6 89.6 0 0 1-89.6 89.6H317.013333a89.6 89.6 0 0 1-89.6-89.6v-65.28H170.666667a37.546667 37.546667 0 0 0-33.28 42.666666v324.266667A31.146667 31.146667 0 0 0 170.666667 552.106667h673.28c19.2 0 42.666667-11.52 42.666666-33.706667z m-640 281.173333h-37.546667a13.226667 13.226667 0 0 0 0 26.026667h38.826667a13.226667 13.226667 0 1 0 0-26.026667z m94.293333 0H298.666667a13.226667 13.226667 0 1 0 0 26.026667h42.666666a13.226667 13.226667 0 0 0 0-26.026667z m426.666667-116.48H248.32a13.226667 13.226667 0 0 0 0 26.026667H768a13.226667 13.226667 0 0 0 0-26.026667z"  horiz-adv-x="1024" />
      
      <glyph glyph-name="xiangyou" unicode="&#58921;" d="M385.536 793.6l398.848-364.544c12.288-10.752 19.456-26.624 19.456-43.008s-7.168-32.256-19.456-43.008l-398.848-364.544c-18.944-17.92-46.08-23.552-70.656-14.336s-40.96 31.232-43.52 57.344V750.592c2.048 26.112 18.944 48.128 43.52 57.344 24.064 9.216 51.712 3.584 70.656-14.336z"  horiz-adv-x="1024" />
      
      </font>
</defs>
</svg>
